<?xml version="1.0" standalone="no"?>
<!DOCTYPE svg PUBLIC "-//W3C//DTD SVG 1.0//EN" "http://www.w3.org/TR/2001/REC-SVG-20010904/DTD/svg10.dtd">
<svg xmlns="http://www.w3.org/2000/svg" xmlns:xlink="http://www.w3.org/1999/xlink" id="body_1" width="103" height="100">

<g transform="matrix(0.1992032 0 0 0.1992032 1.9980078 -0)">
	<g>
        <path d="M264.75 130.29C 266.29 131.17667 267.95667 131.48334 269.75 131.21" stroke="#C1B38F" stroke-width="2" fill="none" stroke-opacity="0.99215686" />
        <path d="M303.5 142.29C 304.15335 143.07 304.9867 143.54333 306 143.71" stroke="#A49473" stroke-width="2" fill="none" stroke-opacity="0.8862745" />
        <path d="M325.04 156.25C 326.52667 158.74335 328.57666 160.6 331.19 161.82" stroke="#C1B38F" stroke-width="2" fill="none" stroke-opacity="0.99215686" />
        <path d="M341.79 172.5C 342.90332 174.98001 344.47333 177.13333 346.5 178.96" stroke="#C1B38F" stroke-width="2" fill="none" stroke-opacity="0.99215686" />
        <path d="M316.71 353.5C 315.49002 353.90002 314.42 354.55334 313.5 355.46" stroke="#A49473" stroke-width="2" fill="none" stroke-opacity="0.8862745" />
        <path d="M220.75 371.46L215.25 369.96" stroke="#A49473" stroke-width="2" fill="none" stroke-opacity="0.8862745" />
        <path d="M215.25 369.96L210.29 368.75" stroke="#A49473" stroke-width="2" fill="none" stroke-opacity="0.8862745" />
        <path d="M188.75 359.46C 188.35 358.60666 187.68333 358.13333 186.75 358.04" stroke="#A88873" stroke-width="2" fill="none" />
        <path d="M178.5 352.71C 177.68001 351.60333 176.61002 350.95 175.29 350.75" stroke="#A49473" stroke-width="2" fill="none" stroke-opacity="0.8862745" />
        <path d="M174 349.71C 173.03334 347.84335 171.53334 346.6067 169.5 346" stroke="#A49473" stroke-width="2" fill="none" stroke-opacity="0.8862745" />
        <path d="M169.5 346C 169.52667 345.66 169.29666 345.30667 168.81 344.94C 166.67001 343.30002 163.88669 340.7367 160.46 337.25" stroke="#A49473" stroke-width="2" fill="none" stroke-opacity="0.8862745" />
        <path d="M160.46 337.25L154 330.5" stroke="#A49473" stroke-width="2" fill="none" stroke-opacity="0.8862745" />
        <path d="M154 330.5C 153.30667 328.65335 152.14001 327.1667 150.5 326.04" stroke="#A88873" stroke-width="2" fill="none" />
        <path d="M134.04 207L135.04 204.75" stroke="#A49473" stroke-width="2" fill="none" stroke-opacity="0.8862745" />
        <path d="M135.04 204.75L138.04 198" stroke="#A49473" stroke-width="2" fill="none" stroke-opacity="0.8862745" />
        <path d="M138.04 198L141.75 190.5" stroke="#A88873" stroke-width="2" fill="none" />
        <path d="M141.75 190.5L145.54 184.75" stroke="#A88873" stroke-width="2" fill="none" />
        <path d="M145.54 184.75L149.46 178.75" stroke="#A88873" stroke-width="2" fill="none" />
        <path d="M151.79 175.75L154.46 172.5" stroke="#A88873" stroke-width="2" fill="none" />
        <path d="M145.54 184.75L145.46 184" stroke="#6C4147" stroke-width="2" fill="none" />
        <path d="M138.04 198L137.96 197" stroke="#614542" stroke-width="2" fill="none" stroke-opacity="0.8862745" />
        <path d="M244.0524 371.9339C 275.9086 372.9907 306.88016 361.3399 330.15372 339.54456C 353.42728 317.7492 367.09634 287.59467 368.1539 255.7146C 370.3562 189.32784 318.3647 133.72675 252.0276 131.5261C 220.1714 130.4693 189.19983 142.1201 165.9263 163.91547C 142.65274 185.71082 128.98367 215.86533 127.9261 247.7454C 125.723816 314.13217 177.71533 369.73328 244.0524 371.9339" stroke="#7E735C" stroke-width="2" fill="none" />
        <path d="M217.86 183.79C 217.60666 184.79 217.65666 185.65 218.01 186.37" stroke="#5F3A42" stroke-width="2" fill="none" />
        <path d="M218.01 186.37C 217.65001 189.57666 217.56335 191.95334 217.75 193.5C 217.93668 195.02 217.68668 196.25668 217 197.21" stroke="#6A464D" stroke-width="2" fill="none" />
        <path d="M217 197.21L208.66 199.87" stroke="#8B6E70" stroke-width="2" fill="none" />
        <path d="M208.66 199.87C 196.74667 203.50334 191.37332 211.79668 192.54 224.75" stroke="#7A5258" stroke-width="2" fill="none" />
        <path d="M192.54 224.75C 192.65335 228.07 192.01668 231.19 190.63 234.11C 190.43001 234.52333 189.83334 235.29666 188.84 236.43C 187.87334 237.53 187.76001 238.60667 188.5 239.66C 189.02667 240.42001 190.03 241.09001 191.51 241.67C 196.32333 243.53668 201.32 243.82668 206.5 242.54" stroke="#56343C" stroke-width="2" fill="none" />
        <path d="M206.5 242.54L205.25 245.96" stroke="#422D31" stroke-width="2" fill="none" />
        <path d="M205.25 245.96L200.36 254.45" stroke="#755357" stroke-width="2" fill="none" />
        <path d="M200.36 254.45C 195.96 260.28998 191.73668 266.70334 187.69 273.69C 183.03668 281.71002 181.54335 290.23 183.21 299.25" stroke="#8A6164" stroke-width="2" fill="none" />
        <path d="M183.21 299.25C 184.70334 307.88336 189.23 314.30002 196.79 318.5" stroke="#8B6E70" stroke-width="2" fill="none" />
        <path d="M196.79 318.5L195 320.46" stroke="#422D31" stroke-width="2" fill="none" />
        <path d="M195 320.46L193.5 321.46" stroke="#6A464D" stroke-width="2" fill="none" />
        <path d="M193.5 321.46L187.32 323.96C 186.57333 324.26666 186.54333 324.59668 187.23 324.95C 190.89667 326.86334 194.41666 326.7967 197.79 324.75" stroke="#875F5F" stroke-width="2" fill="none" />
        <path d="M197.79 324.75L199.5 323.96" stroke="#6A464D" stroke-width="2" fill="none" />
        <path d="M199.5 323.96L203 321.21" stroke="#422D31" stroke-width="2" fill="none" />
        <path d="M203 321.21C 207.52 322.87668 212.62334 322.91 218.31 321.31C 222.97002 320.00336 226.95001 319.98334 230.25 321.25C 233.96335 322.6767 237.47668 324.50336 240.79 326.73C 242.75 328.05 244.82 329.15332 247 330.04" stroke="#8B6E70" stroke-width="2" fill="none" />
        <path d="M247 330.04C 247.88 330.91333 248.95001 331.40002 250.21 331.5" stroke="#56343C" stroke-width="2" fill="none" />
        <path d="M250.21 331.5C 257.74335 333.86002 263.16333 331.67334 266.47 324.94" stroke="#41222E" stroke-width="2" fill="none" />
        <path d="M266.47 324.94L280.66 322.21" stroke="#845B5F" stroke-width="2" fill="none" />
        <path d="M280.66 322.21L282 322.71" stroke="#331B20" stroke-width="2" fill="none" />
        <path d="M282 322.71L294 325.54" stroke="#6A464D" stroke-width="2" fill="none" />
        <path d="M294 325.54C 297.57333 326.31335 300.98334 325.9367 304.23 324.41C 304.5472 324.26108 304.79727 324.02863 304.94 323.75C 305.48 322.69 305.57 321.52335 305.21 320.25" stroke="#41222E" stroke-width="2" fill="none" />
        <path d="M305.21 320.25C 308.69 315.53003 307.62 312.87668 302 312.29" stroke="#4F2D38" stroke-width="2" fill="none" />
        <path d="M302 312.29L296.75 311.46" stroke="#6A464D" stroke-width="2" fill="none" />
        <path d="M296.75 311.46C 296.07666 311.36667 295.48 311.13 294.96 310.75" stroke="#331B20" stroke-width="2" fill="none" />
        <path d="M294.96 310.75C 298.05334 305.98334 300.00668 300.86667 300.82 295.4" stroke="#845B5F" stroke-width="2" fill="none" />
        <path d="M300.82 295.4C 301.33334 290.4467 301.29 285.55334 300.69 280.72" stroke="#8B6E70" stroke-width="2" fill="none" />
        <path d="M300.69 280.72L301.71 280.75" stroke="#4F2D38" stroke-width="2" fill="none" />
        <path d="M301.71 280.75L302.75 281.79" stroke="#6E494F" stroke-width="2" fill="none" />
        <path d="M302.75 281.79C 304.14334 283.26337 305.79333 284.27002 307.7 284.81C 307.99707 284.89673 308.32062 284.8168 308.55 284.6L308.55 284.6L310.95 282.4C 311.1546 282.20767 311.4634 282.09995 311.81 282.1C 312.55002 282.10004 313.17 281.86002 313.67 281.38C 313.88544 281.17154 313.99872 280.85367 313.98 280.51C 313.84 277.68335 312.94333 275.09668 311.29 272.75" stroke="#41222E" stroke-width="2" fill="none" />
        <path d="M311.29 272.75L297.46 253.5" stroke="#8B6E70" stroke-width="2" fill="none" />
        <path d="M297.46 253.5L294.65 249.78" stroke="#4F2D38" stroke-width="2" fill="none" />
        <path d="M294.65 249.78C 291.36334 239.56 288.90002 229.13333 287.26 218.5C 286.26666 212.08667 286.61002 205.75334 288.29 199.5" stroke="#8B6E70" stroke-width="2" fill="none" />
        <path d="M288.29 199.5C 289.3567 196.86667 290.04 194.16333 290.34 191.39C 290.66666 188.33667 290.22333 185.66667 289.01 183.38C 287.60333 180.72 285.51666 178.58002 282.75 176.96" stroke="#875F5F" stroke-width="2" fill="none" />
        <path d="M282.75 176.96C 278.60333 173.73334 274.32 173.36667 269.9 175.86" stroke="#6A464D" stroke-width="2" fill="none" />
        <path d="M269.9 175.86C 261.33334 172.76666 252.74667 172.46333 244.14 174.95" stroke="#8B7A7C" stroke-width="2" fill="none" />
        <path d="M244.14 174.95C 240.47334 173.10333 236.59334 172.07333 232.5 171.86" stroke="#6A464D" stroke-width="2" fill="none" />
        <path d="M232.5 171.86L228.5 172.04" stroke="#5F3A42" stroke-width="2" fill="none" />
        <path d="M228.5 172.04C 224.42001 172.71333 220.35335 172.67001 216.3 171.91C 215.95871 171.84541 215.6253 171.89151 215.36 172.04C 213.84001 172.87332 213.49002 174.00667 214.31 175.44C 216.23001 178.78 217.41333 181.56334 217.86 183.79" stroke="#4F2D38" stroke-width="2" fill="none" />
        <path d="M228.5 172.04C 227.75334 175.68 225.68668 178.05667 222.3 179.17C 222.08667 179.23666 221.83667 179.42667 221.55 179.74L221.55 179.74L217.86 183.79" stroke="#974F60" stroke-width="2" fill="none" />
        <path d="M232.5 171.86C 231.67334 175.81332 230.09001 179.42667 227.75 182.7C 226.80334 184.03333 225.59001 184.93333 224.11 185.4C 222.15001 186.01334 220.11667 186.33667 218.01 186.37" stroke="#B26875" stroke-width="2" fill="none" />
        <path d="M244.14 174.95C 244.37335 175.54333 244.83334 175.94 245.52 176.14C 245.88235 176.25352 246.13396 176.49295 246.14 176.73C 246.15335 177.03 245.91 177.14667 245.41 177.08C 245.19669 177.05333 244.94669 176.95 244.66 176.77C 243.22 175.87666 241.73001 175.88 240.19 176.78" stroke="#DEA8AE" stroke-width="2" fill="none" />
        <path d="M240.19 176.78C 232.82335 179.28667 226.90001 183.70667 222.42 190.04C 222.2 190.35333 221.93 190.66667 221.61 190.98C 221.31668 191.28 221.03668 191.59 220.77 191.91C 220.55667 192.17001 220.44669 192.42334 220.44 192.67C 220.42667 193.15668 220.69667 193.36334 221.25 193.29" stroke="#A9626F" stroke-width="2" fill="none" />
        <path d="M221.25 193.29L218.96 196.5" stroke="#DEA8AE" stroke-width="2" fill="none" />
        <path d="M218.96 196.5C 218.54666 197.26001 217.89334 197.49667 217 197.21" stroke="#DE9CA3" stroke-width="2" fill="none" />
        <path d="M220.75 201.21C 219.70334 202.05002 218.67 202.16 217.65 201.54C 217.34334 201.34668 217.04333 201.24667 216.75 201.24C 213.98334 201.15334 211.28668 200.69667 208.66 199.87" stroke="#EEA8AE" stroke-width="2" fill="none" />
        <path d="M269.9 175.86C 268.71335 179.84668 268.13 183.86667 268.15 187.92" stroke="#DEA8AE" stroke-width="2" fill="none" />
        <path d="M268.15 187.92C 267.31665 190.96667 267.86334 193.74335 269.79 196.25" stroke="#E2AAB0" stroke-width="2" fill="none" />
        <path d="M269.79 196.25C 268.39 197.96335 266.74667 199.39334 264.86 200.54C 264.6828 200.64713 264.6017 200.88228 264.66 201.12C 264.71332 201.33334 264.67667 201.48666 264.55 201.58C 264.35983 201.71324 264.00198 201.63098 263.68 201.38C 259.94 198.5 256.21335 198.54001 252.5 201.5C 250.86 202.80669 249.11 203.61668 247.25 203.93C 246.95602 203.9755 246.62607 203.92686 246.3 203.79C 245.25334 203.34332 244.15001 203.15 242.99 203.21C 242.65208 203.2294 242.33035 203.15245 242.07 202.99C 240.81668 202.24335 239.6 201.43668 238.42 200.57C 238.16 200.38335 237.69 199.87334 237.01 199.04C 236.47668 198.38667 235.80667 198.04001 235 198C 232.88669 197.89334 230.77667 198.47334 228.67 199.74C 228.4167 199.88957 228.09473 199.95607 227.75 199.93C 226.33669 199.83002 225.02335 200.45668 223.81 201.81C 222.70334 203.05667 221.86334 202.95334 221.29 201.5" stroke="#FFCFD2" stroke-width="2" fill="none" />
        <path d="M221.29 201.5C 221.17667 201.27335 220.99667 201.17668 220.75 201.21" stroke="#EEB4B9" stroke-width="2" fill="none" />
        <path d="M220.75 201.21C 219.66333 199.85 219.06668 198.28 218.96 196.5" stroke="#FFCFD2" stroke-width="2" fill="none" />
        <path d="M221.25 193.29C 226.36334 186.49667 232.67668 180.99335 240.19 176.78" stroke="#CA959E" stroke-width="2" fill="none" />
        <path d="M223.63 211.3L210.03 215.75C 209.26729 215.99748 208.43942 215.72017 208 215.07C 207.33334 214.09668 206.66667 213.64334 206 213.71" stroke="#EA999C" stroke-width="2" fill="none" />
        <path d="M206 213.71C 209.90001 209.50333 214.3 205.91 219.2 202.93C 219.93333 202.48334 219.87 202.25667 219.01 202.25C 216.15668 202.22334 213.55 202.97667 211.19 204.51C 206.13 207.80333 202.40001 212.21667 200 217.75C 199.25334 219.46335 198.55334 220.81334 197.9 221.8C 197.82 221.92 197.56667 222.37334 197.14 223.16C 196.63335 224.09334 195.89334 224.29333 194.92 223.76C 194.67668 223.63083 194.37526 223.6797 194.18 223.88C 193.72667 224.36002 193.18 224.65001 192.54 224.75" stroke="#B96E7A" stroke-width="2" fill="none" />
        <path d="M282.75 176.96C 281.42334 177.19333 281.25668 177.77667 282.25 178.71" stroke="#DA8D91" stroke-width="2" fill="none" />
        <path d="M282.25 178.71C 282.02335 178.82335 281.92667 179.00334 281.96 179.25" stroke="#945060" stroke-width="2" fill="none" />
        <path d="M281.96 179.25C 281.75333 178.81668 281.49335 178.64667 281.18 178.74C 280.99463 178.79573 280.76266 179.06955 280.57 179.46C 280.23 180.16667 279.62335 180.68001 278.75 181C 277.53668 181.44667 276.59332 182.27667 275.92 183.49C 275.7695 183.7538 275.49893 183.9317 275.19 183.97C 274.16333 184.08334 274.01666 184.49667 274.75 185.21" stroke="#DA8D91" stroke-width="2" fill="none" />
        <path d="M274.75 185.21C 274.24335 185.35 273.99335 185.68333 274 186.21" stroke="#A25B6A" stroke-width="2" fill="none" />
        <path d="M274 186.21L271.84 188.13C 271.65704 188.28972 271.3796 188.28105 271.2 188.11C 270.9867 187.89667 270.74335 187.80667 270.47 187.84C 270.34232 187.85532 270.22995 187.93512 270.16116 188.05931C 270.09238 188.1835 270.07376 188.34024 270.11 188.49C 271.09 192.55667 273.47665 195.75 277.27 198.07" stroke="#DA8D91" stroke-width="2" fill="none" />
        <path d="M277.27 198.07C 272.53 196.45001 269.49 193.06667 268.15 187.92" stroke="#C17781" stroke-width="2" fill="none" />
        <path d="M294.65 249.78C 297.05002 260.02667 299.06335 270.34 300.69 280.72" stroke="#C3838E" stroke-width="2" fill="none" />
        <path d="M300.82 295.4C 298.87335 294.09335 297.38 294.09668 296.34 295.41C 296.16666 295.63 295.92334 295.83002 295.61 296.01C 295.00336 296.36334 294.74335 296.94 294.83 297.74C 294.91 298.55334 294.68335 299.20667 294.15 299.7C 293.92697 299.9044 293.84372 300.20566 293.94 300.46C 294.48 301.96667 294.33334 303.23 293.5 304.25C 291.80002 306.32333 289.38 308.34 286.24 310.3C 285.97818 310.46362 285.6534 310.55695 285.3 310.57C 282.16 310.65668 279.74667 312.07 278.06 314.81C 277.51334 315.70334 276.00333 316.57 273.53 317.41C 273.2382 317.50735 272.98123 317.708 272.8 317.98C 271.24667 320.32 269.86334 320.25 268.65 317.77C 268.50623 317.47617 268.2838 317.2329 268.01 317.07C 265.89 315.7967 264.16 313.55334 262.82 310.34C 262.526 309.62753 262.43933 308.8475 262.57 308.09C 262.85 306.45 263.20667 304.7367 263.64 302.95C 263.96002 301.62335 264.37 300.73666 264.87 300.29C 265.63666 299.59668 266.69333 299.34668 268.04 299.54C 268.4246 299.59488 268.81747 299.38455 269.03 299.01L269.03 299.01L272.5 292.79" stroke="#F8B0B5" stroke-width="2" fill="none" />
        <path d="M272.5 292.79C 273.73334 292.17 274.32 291.15668 274.26 289.75C 274.15335 287.07 273.88666 284.40335 273.46 281.75" stroke="#B57884" stroke-width="2" fill="none" />
        <path d="M273.46 281.75C 273.29333 275.05667 272.55667 268.42334 271.25 261.85C 271.20334 261.64337 271.14 261.4567 271.06 261.29C 270.58667 260.34335 270.43668 260.66 270.61 262.24C 271.31 268.63333 271.8567 275.04 272.25 281.46" stroke="#E9A8AD" stroke-width="2" fill="none" />
        <path d="M272.25 281.46C 269.15668 282.45334 266.01 283.2367 262.81 283.81C 261.97668 283.96335 261.22 284.47668 260.54 285.35C 260.47498 285.43118 260.37323 285.47443 260.2713 285.4642C 260.16937 285.454 260.08182 285.39185 260.04 285.3C 258.06 280.96667 256.7967 277.2 256.25 274C 254.85 265.75336 250.69667 259.83667 243.79 256.25" stroke="#B57884" stroke-width="2" fill="none" />
        <path d="M243.79 256.25C 243.17001 255.17001 242.26001 254.57335 241.06 254.46C 240.7545 254.42767 240.4773 254.26353 240.3 254.01C 239.70001 253.16335 239.20668 253.33334 238.82 254.52C 237.91335 257.34668 236.54333 259.92334 234.71 262.25" stroke="#F5B4B9" stroke-width="2" fill="none" />
        <path d="M234.71 262.25L230.37 259.76C 230.05667 259.57336 229.78333 259.47668 229.55 259.47C 228.62335 259.4367 228.53001 259.62003 229.27 260.02C 233.81001 262.46667 237.98668 265.37 241.8 268.73C 246.28001 272.68335 249.35335 276.64 251.02 280.6C 253.62668 286.78003 253.67667 293.40335 251.17 300.47C 250.27667 302.98334 249.47002 305.26 248.75 307.3C 248.43147 308.18536 248.6728 309.19742 249.37 309.9L249.37 309.9L260.95 321.57C 261.63 322.25668 261.48334 322.66003 260.51 322.78C 257.43 323.14667 254.66335 324.38666 252.21 326.5" stroke="#B57884" stroke-width="2" fill="none" />
        <path d="M252.21 326.5C 250.11668 327.12668 248.38 328.30667 247 330.04" stroke="#CA8992" stroke-width="2" fill="none" />
        <path d="M203 321.21L196.79 318.5" stroke="#B68287" stroke-width="2" fill="none" />
        <path d="M183.21 299.25C 183.35667 298.61002 183.68333 298.23 184.19 298.11C 184.31386 298.0787 184.44667 298.1094 184.55667 298.19476C 184.66667 298.2801 184.74394 298.4124 184.77 298.56C 185.77667 304.0467 188.18668 308.81335 192 312.86C 192.22 313.09332 192.45334 313.28668 192.7 313.44C 193.96 314.21335 194.11 313.78003 193.15 312.14C 192.21667 310.52667 192.65335 309.89667 194.46 310.25" stroke="#FEB6BA" stroke-width="2" fill="none" />
        <path d="M194.46 310.25C 196.46002 312.1967 196.89001 312.01666 195.75 309.71" stroke="#EEA8AE" stroke-width="2" fill="none" />
        <path d="M195.75 309.71C 196.21667 308.81 196.91 308.21667 197.83 307.93C 198.19405 307.81458 198.45105 307.58127 198.48 307.34L198.48 307.34L198.61 306.06C 198.6473 305.73035 198.7982 305.4625 199.01 305.35C 199.71667 304.97668 200.31334 304.49002 200.8 303.89C 201.02667 303.6167 201.28668 302.92 201.58 301.8C 201.80667 300.91333 202.32335 300.27002 203.13 299.87C 203.75002 299.55667 204.50334 299.53668 205.39 299.81C 206.80333 300.24335 208.13666 300.86002 209.39 301.66C 209.65 301.8267 209.86334 302.06668 210.03 302.38C 210.76334 303.76666 211.85667 304.78668 213.31 305.44C 215.74335 306.53333 217.05669 306.13666 217.25 304.25C 217.60335 300.77002 216.76334 297.8 214.73 295.34C 212.78333 292.99335 211.73334 291.69336 211.58 291.44C 209.72 288.29333 208.27667 284.81335 207.25 281C 206.77002 279.21335 206.93335 277.60333 207.74 276.17C 207.93001 275.83432 207.99965 275.5007 207.93 275.26L207.93 275.26L206.04 268.53" stroke="#FEB6BA" stroke-width="2" fill="none" />
        <path d="M206.04 268.53C 206.29999 267.91 206.35666 267.31668 206.21 266.75" stroke="#EEA8AE" stroke-width="2" fill="none" />
        <path d="M206.21 266.75C 205.03668 265.98334 204.13333 264.97003 203.5 263.71" stroke="#FEB6BA" stroke-width="2" fill="none" />
        <path d="M203.5 263.71C 204.04001 262.96332 204.27667 262.14334 204.21 261.25" stroke="#E29EA5" stroke-width="2" fill="none" />
        <path d="M204.21 261.25C 204.50334 259.70334 205.3 258.62 206.6 258C 206.88908 257.8654 207.11475 257.6254 207.23 257.33C 207.87 255.65 209.02667 254.52667 210.7 253.96C 211.02667 253.84666 211.14667 253.95667 211.06 254.29C 209.96667 258.37668 210.35335 258.65002 212.22 255.11C 212.36 254.84334 212.43333 254.54668 212.44 254.22C 212.49335 252.63335 212.91669 251.14334 213.71 249.75" stroke="#FEB6BA" stroke-width="2" fill="none" />
        <path d="M213.71 249.75C 214.73001 247.87668 215.73668 245.99667 216.73 244.11C 217.38335 242.88333 218.34668 241.72 219.62 240.62C 224.66 236.26666 227.72668 230.69333 228.82 223.9" stroke="#E9A8AD" stroke-width="2" fill="none" />
        <path d="M228.82 223.9C 230.09335 222.11334 230.99335 220.00002 231.52 217.56C 231.54948 217.43288 231.52232 217.29921 231.44556 217.19368C 231.3688 217.08813 231.25002 217.02112 231.12 217.01C 230.08002 216.91 229.33334 217.27335 228.88 218.1C 226.10667 223.12003 222.81334 227.76668 219 232.04" stroke="#B68287" stroke-width="2" fill="none" />
        <path d="M219 232.04C 218.47334 231.76668 218.34668 231.43335 218.62 231.04C 218.78001 230.81334 218.86334 230.64334 218.87 230.53C 218.92334 230.10335 218.62668 230.09335 217.98 230.5C 216.96 231.13333 215.93001 231.74667 214.89 232.34C 214.58334 232.51335 214.46 232.46335 214.52 232.19C 214.54001 232.11002 214.59001 232.03336 214.67 231.96C 217.21 229.42668 219.37334 226.54668 221.16 223.32" stroke="#CA8992" stroke-width="2" fill="none" />
        <path d="M221.16 223.32C 222.92001 221.01334 224.29668 218.40668 225.29 215.5" stroke="#E29EA5" stroke-width="2" fill="none" />
        <path d="M225.29 215.5C 227.40334 212.50668 226.85 211.10667 223.63 211.3" stroke="#FBB5B5" stroke-width="2" fill="none" />
        <path d="M223.63 211.3C 220.86334 209.64668 219.86334 207.27002 220.63 204.17C 220.85 203.28334 221.07 202.39334 221.29 201.5" stroke="#EEA8AE" stroke-width="2" fill="none" />
        <path d="M286.79 199.5C 285.99002 200.50667 285.22668 201.09 284.5 201.25C 278.46667 202.57 273.56335 200.90334 269.79 196.25" stroke="#E29EA5" stroke-width="2" fill="none" />
        <path d="M225.29 215.5C 225.11 214.44669 224.68001 214.06001 224 214.34C 223.69334 214.47334 223.39001 214.78 223.09 215.26C 220.69669 219.10666 217.95668 222.57666 214.87 225.67" stroke="#DE9093" stroke-width="2" fill="none" />
        <path d="M214.87 225.67C 213.17001 222.67001 210.93001 221.46335 208.15 222.05C 207.08334 222.27667 205.18668 223.41335 202.46 225.46C 200.52002 226.90668 198.45001 228.15668 196.25 229.21" stroke="#FBB5B5" stroke-width="2" fill="none" />
        <path d="M206 213.71C 201.56668 218.15 198.31668 223.31667 196.25 229.21" stroke="#C67B81" stroke-width="2" fill="none" />
        <path d="M196.25 229.21L192.04 237.11C 191.83273 237.4934 191.82118 237.95374 192.00845 238.3669C 192.19572 238.78006 192.56255 239.10349 193.01 239.25C 198.32333 241.00334 203.14334 239.93668 207.47 236.05" stroke="#CA8992" stroke-width="2" fill="none" />
        <path d="M207.47 236.05C 208.38333 236.06334 209.24667 235.56668 210.06 234.56C 212.48001 231.57333 216.18001 227.82668 221.16 223.32" stroke="#AC6471" stroke-width="2" fill="none" />
        <path d="M219 232.04C 215.52667 236.38 211.36002 239.88 206.5 242.54" stroke="#804853" stroke-width="2" fill="none" />
        <path d="M288.29 199.5C 287.79666 199.11334 287.29666 199.11334 286.79 199.5" stroke="#FBB5B5" stroke-width="2" fill="none" />
        <path d="M286.79 199.5C 287.92334 197.73334 287.65668 197.07333 285.99 197.52C 285.3567 197.68668 284.85 197.78001 284.47 197.8C 282.21667 197.95334 279.81668 198.04333 277.27 198.07" stroke="#DE9093" stroke-width="2" fill="none" />
        <path d="M274 186.21L275.83 187.74C 276.09357 187.96387 276.46368 187.97247 276.69 187.76C 276.90335 187.56667 276.9267 187.3 276.76 186.96C 276.32666 186.1 275.65668 185.51666 274.75 185.21" stroke="#BF747C" stroke-width="2" fill="none" />
        <path d="M281.96 179.25C 282.45334 180.44333 283.03003 181.21333 283.69 181.56C 284.44336 181.96667 284.69336 181.71667 284.44 180.81C 284.22 180.05 283.49 179.35 282.25 178.71" stroke="#B16972" stroke-width="2" fill="none" />
        <path d="M228.82 223.9C 224.83334 233.08 218.70667 240.42667 210.44 245.94C 209.33334 246.67334 207.60335 246.68 205.25 245.96" stroke="#A0676E" stroke-width="2" fill="none" />
        <path d="M199.5 323.96C 198.29333 322.41998 196.79333 321.25333 195 320.46" stroke="#955B63" stroke-width="2" fill="none" />
        <path d="M207.47 236.05C 207.37668 235.19667 207.82333 234.36667 208.81 233.56C 211.26334 231.56 213.28334 228.93 214.87 225.67" stroke="#E29EA5" stroke-width="2" fill="none" />
        <path d="M243.79 256.25C 243.73001 257.07666 244.13335 257.67334 245 258.04" stroke="#AA6976" stroke-width="2" fill="none" />
        <path d="M245 258.04C 244.85335 260.1 245.57 261.72 247.15 262.9C 247.42836 263.10696 247.62259 263.37537 247.7 263.66C 248.32668 266.01337 248.46667 267.97668 248.12 269.55C 247.84 270.81668 248.21333 271.84668 249.24 272.64C 252.28667 274.9867 253.22667 277.32666 252.06 279.66" stroke="#D78F97" stroke-width="2" fill="none" />
        <path d="M252.06 279.66C 247.66002 272.42667 241.87668 266.62335 234.71 262.25" stroke="#AA6976" stroke-width="2" fill="none" />
        <path d="M297.46 253.5C 296.74 253.57333 296.55667 253.92334 296.91 254.55C 297.37665 255.36334 297.83667 256.18 298.29 257" stroke="#C3838E" stroke-width="2" fill="none" />
        <path d="M298.29 257L297.9 258.03C 297.79614 258.30234 297.78912 258.63953 297.88 258.99C 299.81335 266.13 301.09 273.38336 301.71 280.75" stroke="#A65E6C" stroke-width="2" fill="none" />
        <path d="M213.71 249.75C 212.69 249.57668 211.87001 249.83667 211.25 250.53C 211.13002 250.66333 210.87335 250.87 210.48 251.15L210.48 251.15L206.6 253.89C 206.18668 254.18335 205.91335 254.36002 205.78 254.42C 204.97334 254.79333 204.54668 255.5 204.5 256.54C 204.48135 256.88275 204.27116 257.18246 203.96 257.31C 202.85333 257.76334 201.98001 258.32666 201.34 259C 201.21335 259.13336 201.07 259.3667 200.91 259.7C 200.67667 260.17334 200.40668 260.30667 200.1 260.1C 199.88513 259.95853 199.85425 259.6145 200.03 259.32C 200.97667 257.73334 201.08667 256.11 200.36 254.45" stroke="#E89BA1" stroke-width="2" fill="none" />
        <path d="M204.21 261.25C 203.08334 261.86334 202.23334 262.76337 201.66 263.95C 201.20001 264.89667 201.29335 265.4 201.94 265.46C 202.15977 265.47803 202.4326 265.29095 202.64 264.98L202.64 264.98L203.5 263.71" stroke="#E19199" stroke-width="2" fill="none" />
        <path d="M206.21 266.75C 205.29666 267.26334 204.82333 267.99335 204.79 268.94C 204.7844 269.08746 204.83907 269.2305 204.93936 269.3308C 205.03966 269.4311 205.17532 269.4784 205.31 269.46C 205.76334 269.4 206.00668 269.09 206.04 268.53" stroke="#ED9BA2" stroke-width="2" fill="none" />
        <path d="M195.75 309.71C 195.01001 309.29666 194.58002 309.47668 194.46 310.25" stroke="#ED9BA2" stroke-width="2" fill="none" />
        <path d="M253.54 297.5L250.22 307.97C 250.03604 308.56067 250.202 309.20905 250.65 309.65C 252.77667 311.73 254.92667 313.84668 257.1 316C 257.7 316.59335 258.84 317.88 260.52 319.86C 261.63333 321.18 262.86334 322.39334 264.21 323.5" stroke="#975362" stroke-width="2" fill="none" />
        <path d="M264.21 323.5C 264.59 324.38666 265.34332 324.86667 266.47 324.94" stroke="#AD6572" stroke-width="2" fill="none" />
        <path d="M250.21 331.5L252.21 326.5" stroke="#7F3E50" stroke-width="2" fill="none" />
        <path d="M294.96 310.75C 290.74667 315.26334 285.98 319.0833 280.66 322.21" stroke="#A05E64" stroke-width="2" fill="none" />
        <path d="M264.21 323.5C 264.45 322.19336 264.34335 320.95337 263.89 319.78C 263.78705 319.52298 263.5512 319.28717 263.23 319.12C 262.83002 318.91333 262.51 318.63 262.27 318.27C 261.74335 317.47 261.45334 317.04 261.4 316.98C 258.73334 314.08002 256.14667 311.11334 253.64 308.08C 253.4112 307.8064 253.30524 307.48117 253.35 307.19L253.35 307.19L254.54 299" stroke="#DA8B93" stroke-width="2" fill="none" />
        <path d="M272.25 281.46C 272.59668 281.74002 273 281.83667 273.46 281.75" stroke="#9F5D6B" stroke-width="2" fill="none" />
        <path d="M272.5 292.79L272.04 292.75" stroke="#AD6572" stroke-width="2" fill="none" />
        <path d="M272.04 292.75C 270.76 292.44336 269.49667 292.52667 268.25 293C 267.7367 293.19336 266.97668 293.11002 265.97 292.75C 265.37668 292.53003 264.65668 292.37335 263.81 292.28C 261.84332 292.06 260.34332 290.9467 259.31 288.94C 257.63666 285.6667 256.42334 282.49 255.67 279.41C 254.91666 276.31665 254.54 274.76666 254.54 274.76C 253.86667 272.46667 253.11667 270.1967 252.29 267.95C 250.82333 263.93002 248.39334 260.62668 245 258.04" stroke="#975362" stroke-width="2" fill="none" />
        <path d="M197.79 324.75C 195.91 324.27667 194.48001 323.18 193.5 321.46" stroke="#DA8D91" stroke-width="2" fill="none" />
        <path d="M272.04 292.75C 270.71332 292.91 269.72333 294.02667 269.07 296.1C 268.93765 296.52298 268.54675 296.89914 268.01 297.12L268.01 297.12L262.93 299.26C 262.63687 299.38538 262.3209 299.34137 262.14 299.15L262.14 299.15L257.08 293.88C 256.9841 293.77945 256.85522 293.71835 256.7231 293.71082C 256.591 293.70325 256.46707 293.7499 256.38 293.84C 255.88667 294.35333 255.60333 294.99 255.53 295.75C 255.41667 296.92334 255.08667 298.00668 254.54 299" stroke="#DA8B93" stroke-width="2" fill="none" />
        <path d="M254.54 299L253.54 297.5" stroke="#C47983" stroke-width="2" fill="none" />
        <path d="M253.54 297.5C 253.88 296.04 253.98666 294.58667 253.86 293.14C 253.69333 291.26666 253.62334 289.8333 253.65 288.84C 253.71667 285.72668 253.18668 282.6667 252.06 279.66" stroke="#975362" stroke-width="2" fill="none" />
        <path d="M311.29 272.75C 311.18335 273.77667 310.38336 274.27002 308.89 274.23C 308.1989 274.2131 307.58612 274.67685 307.41 275.35C 307.23666 276.03003 306.51334 276.48334 305.24 276.71" stroke="#B57884" stroke-width="2" fill="none" />
        <path d="M305.24 276.71L302.31 266.55C 301.94336 265.27667 301.74002 264.44 301.7 264.04C 301.34003 260.80667 300.20337 258.46002 298.29 257" stroke="#E29EA5" stroke-width="2" fill="none" />
        <path d="M305.24 276.71L302.75 281.79" stroke="#975362" stroke-width="2" fill="none" />
        <path d="M296.75 311.46C 296.2967 311.42667 295.93335 311.57666 295.66 311.91C 291.92 316.53668 287.36667 320.1367 282 322.71" stroke="#864952" stroke-width="2" fill="none" />
        <path d="M302 312.29C 301.99335 312.82333 301.84 313.31 301.54 313.75" stroke="#A25B6A" stroke-width="2" fill="none" />
        <path d="M301.54 313.75C 300.6667 312.25668 299.55002 311.9867 298.19 312.94C 296.87668 313.85333 295.81 315.22003 294.99 317.04C 294.97 317.08667 294.74335 317.91666 294.31 319.53C 294.11002 320.30334 293.7367 321.1067 293.19 321.94C 292.06335 323.64667 292.5 324.51337 294.5 324.54" stroke="#D78991" stroke-width="2" fill="none" />
        <path d="M294.5 324.54L294 325.54" stroke="#945060" stroke-width="2" fill="none" />
        <path d="M298.74 315.6C 298.99335 318.91336 297.92667 321.48 295.54 323.3C 295.1 323.63333 294.75336 324.0467 294.5 324.54" stroke="#AD6572" stroke-width="2" fill="none" />
        <path d="M305.21 320.25C 303.68335 320.71002 303.25668 320.34003 303.93 319.14C 304.27002 318.54 304.44666 317.89667 304.46 317.21C 304.54666 313.75 303.79 312.67334 302.19 313.98C 302.03003 314.1067 301.85004 314.3767 301.65 314.79C 301.24335 315.63 300.27335 315.9 298.74 315.6" stroke="#79374B" stroke-width="2" fill="none" />
        <path d="M298.74 315.6C 300.36667 315.29337 301.3 314.6767 301.54 313.75" stroke="#BC707C" stroke-width="2" fill="none" />
        <path d="M262.3779 177.8213C 262.50314 177.69522 262.5223 177.47408 262.4312 177.20651C 262.3401 176.93895 262.14618 176.6469 261.8921 176.3946C 261.3631 175.86926 260.72287 175.6562 260.4621 175.9187C 260.33688 176.04478 260.31772 176.26593 260.4088 176.5335C 260.49994 176.80106 260.69385 177.09311 260.9479 177.3454C 261.4769 177.87073 262.11713 178.08379 262.3779 177.8213" stroke="#E9B4B9" stroke-width="2" fill="none" />
        <path d="M251.3177 179.3259C 251.41467 179.1707 251.40045 178.95485 251.27815 178.72585C 251.15585 178.49684 250.93552 178.27345 250.6656 178.1048C 250.3957 177.93614 250.09833 177.83604 249.83891 177.82654C 249.57948 177.81703 249.37927 177.89888 249.2823 178.0541C 249.18532 178.20927 249.19954 178.42513 249.32184 178.65413C 249.44412 178.88315 249.66447 179.10655 249.9344 179.2752C 250.20432 179.44386 250.5017 179.54395 250.76111 179.55345C 251.02054 179.56296 251.22075 179.48111 251.3177 179.3259" stroke="#E9B4B9" stroke-width="2" fill="none" />
        <path d="M241.7303 189.2879C 242.3864 189.84631 243.8091 189.25229 244.908 187.9611C 245.43571 187.34103 245.81665 186.63985 245.967 186.01178C 246.11736 185.38373 246.0248 184.88025 245.7097 184.6121C 245.0536 184.05371 243.6309 184.64774 242.532 185.9389C 242.00429 186.55898 241.62335 187.26016 241.473 187.88823C 241.32265 188.51628 241.4152 189.01976 241.7303 189.2879" stroke="#C38F99" stroke-width="2" fill="none" />
        <path d="M250.04 195.91C 252.02 195.72336 253.94334 195.19002 255.81 194.31C 256.67 193.90334 256.98334 193.23 256.75 192.29" stroke="#FFEAEB" stroke-width="2" fill="none" />
        <path d="M256.75 192.29C 258.4167 191.02333 258.48 189.61334 256.94 188.06C 254.80667 185.92001 252.84668 186.00334 251.06 188.31C 249.42667 190.42334 249.08667 192.95667 250.04 195.91" stroke="#B68E92" stroke-width="2" fill="none" />
        <path d="M256.75 192.29C 255.37 191.43 254.62 190.16667 254.5 188.5C 254.38669 186.92001 253.90668 186.69 253.06 187.81C 251.38667 190.03 250.38 192.73001 250.04 195.91" stroke="#B69DA0" stroke-width="2" fill="none" />
        <path d="M201.2011 311.7167C 201.32509 311.63495 201.3164 311.36304 201.17696 310.96075C 201.0375 310.55847 200.7787 310.0588 200.4575 309.5717C 200.13629 309.08453 199.77898 308.64984 199.46417 308.36322C 199.14937 308.0766 198.90286 307.96152 198.7789 308.0433C 198.52072 308.2136 198.85365 309.17392 199.5225 310.1883C 199.8437 310.67545 200.201 311.11014 200.5158 311.39676C 200.8306 311.6834 201.0771 311.7985 201.2011 311.7167" stroke="#E29EA5" stroke-width="2" fill="none" />
        <path d="M204.71 316.08C 204.41 314.84668 204.12668 314.74667 203.86 315.78C 203.77162 316.10968 203.81569 316.43655 203.98 316.67C 204.14667 316.91 204.31334 316.99335 204.48 316.92C 204.70412 316.81934 204.80138 316.46417 204.71 316.08" stroke="#F8B0B5" stroke-width="2" fill="none" />
        <path d="M200.6749 317.5762C 200.8808 317.41815 200.6471 316.76794 200.1529 316.1239C 199.91554 315.81458 199.64864 315.54807 199.41087 315.38303C 199.17311 315.21796 198.98398 315.16788 198.8851 315.2438C 198.6792 315.40186 198.9129 316.05206 199.4071 316.6961C 199.64445 317.00543 199.91136 317.27194 200.14912 317.43698C 200.38689 317.60205 200.57602 317.65213 200.6749 317.5762" stroke="#EEA8AE" stroke-width="2" fill="none" />
        <path d="M195.591 266.3854C 195.8598 266.5792 196.58311 266.0355 197.2066 265.171C 197.50604 264.75583 197.74193 264.3207 197.86241 263.9613C 197.98288 263.6019 197.97806 263.34772 197.849 263.2546C 197.58022 263.0608 196.8569 263.6045 196.2334 264.469C 195.93396 264.88416 195.69804 265.3193 195.57758 265.67868C 195.4571 266.0381 195.46193 266.2923 195.591 266.3854" stroke="#E19199" stroke-width="2" fill="none" />
        <path d="M197.965 271.7272C 198.08524 271.805 198.32646 271.68497 198.6356 271.39355C 198.94475 271.10214 199.29646 270.6632 199.6134 270.1733C 199.93034 269.6834 200.18652 269.18265 200.3256 268.78122C 200.46468 268.3798 200.47525 268.1106 200.355 268.0328C 200.10457 267.87085 199.36656 268.56653 198.7066 269.5867C 198.38968 270.0766 198.1335 270.57733 197.99442 270.97876C 197.85533 271.3802 197.84476 271.6494 197.965 271.7272" stroke="#ED9BA2" stroke-width="2" fill="none" />
        <path d="M192.71 270.56C 191.20334 273.09332 191.55667 273.27332 193.77 271.1C 193.97 270.90668 194.10667 270.6767 194.18 270.41C 194.54668 269.03003 194.23001 268.85 193.23 269.87C 193.04333 270.06335 192.87 270.29333 192.71 270.56" stroke="#E19199" stroke-width="2" fill="none" />
        <path d="M201.3273 275.6313C 201.46912 275.71454 201.7171 275.60352 202.0167 275.32266C 202.31628 275.0418 202.64294 274.61414 202.9248 274.1337C 203.51169 273.13336 203.74805 272.18195 203.4527 272.0087C 203.31088 271.92548 203.0629 272.0365 202.7633 272.31735C 202.46371 272.5982 202.13705 273.02588 201.8552 273.5063C 201.26831 274.50662 201.03195 275.45804 201.3273 275.6313" stroke="#E89BA1" stroke-width="2" fill="none" />
        <path d="M198.38 279C 197.46667 279.90668 197.23 280.69666 197.67 281.37C 197.7424 281.4801 197.86316 281.5489 197.99771 281.5567C 198.13226 281.5645 198.26576 281.51044 198.36 281.41C 198.88 280.84335 199.15668 280.15668 199.19 279.35C 199.21667 278.55667 198.94669 278.44 198.38 279" stroke="#E19199" stroke-width="2" fill="none" />
        <path d="M193.573 282.4434C 193.70624 282.12796 193.55853 281.76425 193.2431 281.631L193.2431 281.631L193.0589 281.5532C 192.90744 281.4892 192.73674 281.488 192.58438 281.5499C 192.43204 281.61176 192.3105 281.7316 192.2465 281.8831L192.2465 281.8831L191.227 284.2966C 191.16302 284.4481 191.16183 284.61877 191.2237 284.77115C 191.28557 284.9235 191.40543 285.04504 191.5569 285.109L191.5569 285.109L191.7411 285.1868C 191.89258 285.2508 192.06328 285.25198 192.21564 285.1901C 192.36798 285.12823 192.48952 285.0084 192.5535 284.8569L192.5535 284.8569L193.573 282.4434" stroke="#E19199" stroke-width="2" fill="none" />
        <path d="M186.4838 287.4061C 186.86476 287.538 187.5032 286.69308 187.9098 285.5189C 188.10507 284.955 188.21965 284.38904 188.22836 283.9455C 188.23706 283.50198 188.13916 283.21722 187.9562 283.1539C 187.57524 283.022 186.9368 283.8669 186.5302 285.0411C 186.33493 285.605 186.22035 286.17096 186.21164 286.6145C 186.20294 287.058 186.30084 287.34277 186.4838 287.4061" stroke="#E19199" stroke-width="2" fill="none" />
        <path d="M190.38 291.4693C 190.61176 291.49695 190.85297 291.36444 191.0506 291.10092C 191.24823 290.83743 191.38606 290.4645 191.4338 290.0642C 191.5332 289.23065 191.22258 288.50827 190.74 288.4507C 190.50826 288.42307 190.26704 288.55557 190.06941 288.8191C 189.87178 289.08258 189.73395 289.4555 189.6862 289.8558C 189.58682 290.68933 189.89745 291.4117 190.38 291.4693" stroke="#E19199" stroke-width="2" fill="none" />
        <path d="M196.3159 297.4564C 196.78741 297.39932 197.06853 296.5175 196.9438 295.4867C 196.8839 294.9917 196.7365 294.52783 196.53401 294.19717C 196.33153 293.86652 196.09055 293.69617 195.8641 293.7236C 195.3926 293.78067 195.11148 294.6625 195.2362 295.6933C 195.29613 296.1883 195.44353 296.65216 195.64601 296.98282C 195.8485 297.31348 196.08948 297.48383 196.3159 297.4564" stroke="#ED9BA2" stroke-width="2" fill="none" />
        <path d="M191.0211 295.2105C 190.9889 295.06277 190.89934 294.9339 190.77211 294.8522C 190.64487 294.77054 190.4904 294.74274 190.3427 294.775L190.3427 294.775L190.2646 294.792C 189.95703 294.85907 189.76205 295.16275 189.8291 295.4703L189.8291 295.4703L190.5789 298.9095C 190.6111 299.05722 190.70065 299.1861 190.82788 299.2678C 190.95511 299.34946 191.10957 299.37723 191.2573 299.345L191.2573 299.345L191.3354 299.328C 191.64297 299.26093 191.83795 298.95724 191.7709 298.6497L191.7709 298.6497L191.0211 295.2105" stroke="#E19199" stroke-width="2" fill="none" />
        <path d="M197.51 304.44C 198.02335 303.72668 197.95668 303.04333 197.31 302.39C 197.1012 302.17822 196.76155 302.16513 196.53 302.36C 195.64334 303.1 195.72 303.83002 196.76 304.55C 197.01318 304.72186 197.34717 304.67288 197.51 304.44" stroke="#E19199" stroke-width="2" fill="none" />
        <path d="M191.69 303.43C 191.55667 304.23 191.83334 304.89 192.52 305.41C 192.62349 305.4922 192.75963 305.52087 192.88748 305.48746C 193.01534 305.454 193.12 305.36234 193.17 305.24C 193.55 304.34003 193.25334 303.64 192.28 303.14C 192.16272 303.0799 192.02393 303.0783 191.90701 303.13577C 191.79008 303.19324 191.70934 303.3027 191.69 303.43" stroke="#E19199" stroke-width="2" fill="none" />
	</g>
    <path d="M259.75 129.29L263.5 129.96L264.75 130.29C 266.29 131.17667 267.95667 131.48334 269.75 131.21C 279.16333 132.43 288.16 135.02667 296.74 139C 296.96002 139.10667 298.06335 139.69667 300.05 140.77C 301.15002 141.37001 302.30002 141.87668 303.5 142.29C 304.15335 143.07 304.9867 143.54333 306 143.71C 312.79333 147.21 319.14 151.39001 325.04 156.25C 326.52667 158.74335 328.57666 160.6 331.19 161.82L331.19 161.82L341.79 172.5C 342.90332 174.98001 344.47333 177.13333 346.5 178.96C 353.34003 187.79335 358.61002 197.12003 362.31 206.94C 371.63 231.63333 373.17334 256.63333 366.94 281.94C 362.0467 301.80002 352.53333 319.37 338.4 334.65C 338.35333 334.70337 337.72333 335.55002 336.51 337.19C 336.01666 337.84335 335.42334 338.40002 334.73 338.86C 333.81665 339.46002 333.18332 339.9367 332.83 340.29C 327.84332 345.15668 322.47 349.56 316.71 353.5C 315.49002 353.90002 314.42 354.55334 313.5 355.46C 290.46002 370.09332 265.21002 376.3567 237.75 374.25C 233.57668 373.93 227.91 373 220.75 371.46L220.75 371.46L215.25 369.96L210.29 368.75C 208.13 367.74335 205.92001 366.89 203.66 366.19C 200.90668 365.33002 198.72334 364.47333 197.11 363.62C 194.73001 362.36667 192.37334 361.07 190.04 359.73C 189.64667 359.50336 189.21667 359.41336 188.75 359.46C 188.35 358.60666 187.68333 358.13333 186.75 358.04L186.75 358.04L178.5 352.71C 177.68001 351.60333 176.61002 350.95 175.29 350.75C 175.00333 350.22333 174.57333 349.87668 174 349.71C 173.03334 347.84335 171.53334 346.6067 169.5 346C 169.52667 345.66 169.29666 345.30667 168.81 344.94C 166.67001 343.30002 163.88669 340.7367 160.46 337.25L160.46 337.25L154 330.5C 153.30667 328.65335 152.14001 327.1667 150.5 326.04C 148.27335 323.41998 145.85667 319.90668 143.25 315.5C 129.05667 291.52002 123.32001 265.77002 126.04 238.25L126.04 238.25L127.71 228.25C 129.24333 220.99667 131.35333 213.91333 134.04 207L134.04 207L135.04 204.75L138.04 198L141.75 190.5L145.54 184.75L149.46 178.75C 149.98001 177.55 150.75667 176.55 151.79 175.75L151.79 175.75L154.46 172.5C 162.04666 163.40001 170.95667 155.46335 181.19 148.69C 194.39001 139.95001 208.63335 134.18001 223.92 131.38C 228.27333 130.58667 230.53 130.17334 230.69 130.14C 234.17001 129.49333 236.94002 129.11334 239 129C 244.16667 128.72 251.08334 128.81667 259.75 129.29zM244.0524 371.9339C 275.9086 372.9907 306.88016 361.3399 330.15372 339.54456C 353.42728 317.7492 367.09634 287.59467 368.1539 255.7146C 370.3562 189.32784 318.3647 133.72675 252.0276 131.5261C 220.1714 130.4693 189.19983 142.1201 165.9263 163.91547C 142.65274 185.71082 128.98367 215.86533 127.9261 247.7454C 125.723816 314.13217 177.71533 369.73328 244.0524 371.9339z" stroke="none" fill="#E4CE9E" fill-rule="nonzero" />
    <path d="M264.75 130.29L269.75 131.21C 267.95667 131.48334 266.29 131.17667 264.75 130.29z" stroke="none" fill="#9D987F" fill-rule="nonzero" fill-opacity="0.9882353" />
    <path d="M244.0524 371.9339C 177.71533 369.73328 125.723816 314.13217 127.9261 247.7454C 128.98367 215.86533 142.65274 185.71082 165.9263 163.91547C 189.19983 142.1201 220.1714 130.4693 252.0276 131.5261C 318.3647 133.72675 370.3562 189.32784 368.1539 255.7146C 367.09634 287.59467 353.42728 317.7492 330.15372 339.54456C 306.88016 361.3399 275.9086 372.9907 244.0524 371.9339zM217.86 183.79C 217.60666 184.79 217.65666 185.65 218.01 186.37C 217.65001 189.57666 217.56335 191.95334 217.75 193.5C 217.93668 195.02 217.68668 196.25668 217 197.21L217 197.21L208.66 199.87C 196.74667 203.50334 191.37332 211.79668 192.54 224.75C 192.65335 228.07 192.01668 231.19 190.63 234.11C 190.43001 234.52333 189.83334 235.29666 188.84 236.43C 187.87334 237.53 187.76001 238.60667 188.5 239.66C 189.02667 240.42001 190.03 241.09001 191.51 241.67C 196.32333 243.53668 201.32 243.82668 206.5 242.54L206.5 242.54L205.25 245.96L200.36 254.45C 195.96 260.28998 191.73668 266.70334 187.69 273.69C 183.03668 281.71002 181.54335 290.23 183.21 299.25C 184.70334 307.88336 189.23 314.30002 196.79 318.5L196.79 318.5L195 320.46L193.5 321.46L187.32 323.96C 186.57333 324.26666 186.54333 324.59668 187.23 324.95C 190.89667 326.86334 194.41666 326.7967 197.79 324.75L197.79 324.75L199.5 323.96L203 321.21C 207.52 322.87668 212.62334 322.91 218.31 321.31C 222.97002 320.00336 226.95001 319.98334 230.25 321.25C 233.96335 322.6767 237.47668 324.50336 240.79 326.73C 242.75 328.05 244.82 329.15332 247 330.04C 247.88 330.91333 248.95001 331.40002 250.21 331.5C 257.74335 333.86002 263.16333 331.67334 266.47 324.94L266.47 324.94L280.66 322.21L282 322.71L294 325.54C 297.57333 326.31335 300.98334 325.9367 304.23 324.41C 304.5472 324.26108 304.79727 324.02863 304.94 323.75C 305.48 322.69 305.57 321.52335 305.21 320.25C 308.69 315.53003 307.62 312.87668 302 312.29L302 312.29L296.75 311.46C 296.07666 311.36667 295.48 311.13 294.96 310.75C 298.05334 305.98334 300.00668 300.86667 300.82 295.4C 301.33334 290.4467 301.29 285.55334 300.69 280.72L300.69 280.72L301.71 280.75L302.75 281.79C 304.14334 283.26337 305.79333 284.27002 307.7 284.81C 307.99707 284.89673 308.32062 284.8168 308.55 284.6L308.55 284.6L310.95 282.4C 311.1546 282.20767 311.4634 282.09995 311.81 282.1C 312.55002 282.10004 313.17 281.86002 313.67 281.38C 313.88544 281.17154 313.99872 280.85367 313.98 280.51C 313.84 277.68335 312.94333 275.09668 311.29 272.75L311.29 272.75L297.46 253.5L294.65 249.78C 291.36334 239.56 288.90002 229.13333 287.26 218.5C 286.26666 212.08667 286.61002 205.75334 288.29 199.5C 289.3567 196.86667 290.04 194.16333 290.34 191.39C 290.66666 188.33667 290.22333 185.66667 289.01 183.38C 287.60333 180.72 285.51666 178.58002 282.75 176.96C 278.60333 173.73334 274.32 173.36667 269.9 175.86C 261.33334 172.76666 252.74667 172.46333 244.14 174.95C 240.47334 173.10333 236.59334 172.07333 232.5 171.86L232.5 171.86L228.5 172.04C 224.42001 172.71333 220.35335 172.67001 216.3 171.91C 215.95871 171.84541 215.6253 171.89151 215.36 172.04C 213.84001 172.87332 213.49002 174.00667 214.31 175.44C 216.23001 178.78 217.41333 181.56334 217.86 183.79z" stroke="none" fill="#17181A" fill-rule="nonzero" />
    <path d="M303.5 142.29C 304.6667 142.17667 305.5 142.65 306 143.71C 304.9867 143.54333 304.15335 143.07 303.5 142.29z" stroke="none" fill="#524A3C" fill-rule="nonzero" fill-opacity="0.77254903" />
    <path d="M325.04 156.25C 327.36002 157.75667 329.41 159.61334 331.19 161.82C 328.57666 160.6 326.52667 158.74335 325.04 156.25z" stroke="none" fill="#9D987F" fill-rule="nonzero" fill-opacity="0.9882353" />
    <path d="M228.5 172.04C 227.75334 175.68 225.68668 178.05667 222.3 179.17C 222.08667 179.23666 221.83667 179.42667 221.55 179.74L221.55 179.74L217.86 183.79C 217.41333 181.56334 216.23001 178.78 214.31 175.44C 213.49002 174.00667 213.84001 172.87332 215.36 172.04C 215.6253 171.89151 215.95871 171.84541 216.3 171.91C 220.35335 172.67001 224.42001 172.71333 228.5 172.04z" stroke="none" fill="#874255" fill-rule="nonzero" />
    <path d="M232.5 171.86C 231.67334 175.81332 230.09001 179.42667 227.75 182.7C 226.80334 184.03333 225.59001 184.93333 224.11 185.4C 222.15001 186.01334 220.11667 186.33667 218.01 186.37C 217.65666 185.65 217.60666 184.79 217.86 183.79L217.86 183.79L221.55 179.74C 221.83667 179.42667 222.08667 179.23666 222.3 179.17C 225.68668 178.05667 227.75334 175.68 228.5 172.04L228.5 172.04L232.5 171.86z" stroke="none" fill="#A65C6A" fill-rule="nonzero" />
    <path d="M232.5 171.86C 236.59334 172.07333 240.47334 173.10333 244.14 174.95C 244.37335 175.54333 244.83334 175.94 245.52 176.14C 245.88235 176.25352 246.13396 176.49295 246.14 176.73C 246.15335 177.03 245.91 177.14667 245.41 177.08C 245.19669 177.05333 244.94669 176.95 244.66 176.77C 243.22 175.87666 241.73001 175.88 240.19 176.78C 232.82335 179.28667 226.90001 183.70667 222.42 190.04C 222.2 190.35333 221.93 190.66667 221.61 190.98C 221.31668 191.28 221.03668 191.59 220.77 191.91C 220.55667 192.17001 220.44669 192.42334 220.44 192.67C 220.42667 193.15668 220.69667 193.36334 221.25 193.29L221.25 193.29L218.96 196.5C 218.54666 197.26001 217.89334 197.49667 217 197.21C 217.68668 196.25668 217.93668 195.02 217.75 193.5C 217.56335 191.95334 217.65001 189.57666 218.01 186.37C 220.11667 186.33667 222.15001 186.01334 224.11 185.4C 225.59001 184.93333 226.80334 184.03333 227.75 182.7C 230.09001 179.42667 231.67334 175.81332 232.5 171.86z" stroke="none" fill="#BD747F" fill-rule="nonzero" />
    <path d="M154.46 172.5L151.79 175.75C 152.13666 174.23666 153.02667 173.15334 154.46 172.5z" stroke="none" fill="#6C4147" fill-rule="nonzero" />
    <path d="M341.79 172.5L346.5 178.96C 344.47333 177.13333 342.90332 174.98001 341.79 172.5z" stroke="none" fill="#9D987F" fill-rule="nonzero" fill-opacity="0.9882353" />
    <path d="M269.9 175.86C 268.71335 179.84668 268.13 183.86667 268.15 187.92C 267.31665 190.96667 267.86334 193.74335 269.79 196.25C 268.39 197.96335 266.74667 199.39334 264.86 200.54C 264.6828 200.64713 264.6017 200.88228 264.66 201.12C 264.71332 201.33334 264.67667 201.48666 264.55 201.58C 264.35983 201.71324 264.00198 201.63098 263.68 201.38C 259.94 198.5 256.21335 198.54001 252.5 201.5C 250.86 202.80669 249.11 203.61668 247.25 203.93C 246.95602 203.9755 246.62607 203.92686 246.3 203.79C 245.25334 203.34332 244.15001 203.15 242.99 203.21C 242.65208 203.2294 242.33035 203.15245 242.07 202.99C 240.81668 202.24335 239.6 201.43668 238.42 200.57C 238.16 200.38335 237.69 199.87334 237.01 199.04C 236.47668 198.38667 235.80667 198.04001 235 198C 232.88669 197.89334 230.77667 198.47334 228.67 199.74C 228.4167 199.88957 228.09473 199.95607 227.75 199.93C 226.33669 199.83002 225.02335 200.45668 223.81 201.81C 222.70334 203.05667 221.86334 202.95334 221.29 201.5C 221.17667 201.27335 220.99667 201.17668 220.75 201.21C 219.66333 199.85 219.06668 198.28 218.96 196.5L218.96 196.5L221.25 193.29C 226.36334 186.49667 232.67668 180.99335 240.19 176.78C 241.73001 175.88 243.22 175.87666 244.66 176.77C 244.94669 176.95 245.19669 177.05333 245.41 177.08C 245.91 177.14667 246.15335 177.03 246.14 176.73C 246.13396 176.49295 245.88235 176.25352 245.52 176.14C 244.83334 175.94 244.37335 175.54333 244.14 174.95C 252.74667 172.46333 261.33334 172.76666 269.9 175.86zM262.3779 177.8213C 262.50314 177.69522 262.5223 177.47408 262.4312 177.20651C 262.3401 176.93895 262.14618 176.6469 261.8921 176.3946C 261.3631 175.86926 260.72287 175.6562 260.4621 175.9187C 260.33688 176.04478 260.31772 176.26593 260.4088 176.5335C 260.49994 176.80106 260.69385 177.09311 260.9479 177.3454C 261.4769 177.87073 262.11713 178.08379 262.3779 177.8213zM251.3177 179.3259C 251.41467 179.1707 251.40045 178.95485 251.27815 178.72585C 251.15585 178.49684 250.93552 178.27345 250.6656 178.1048C 250.3957 177.93614 250.09833 177.83604 249.83891 177.82654C 249.57948 177.81703 249.37927 177.89888 249.2823 178.0541C 249.18532 178.20927 249.19954 178.42513 249.32184 178.65413C 249.44412 178.88315 249.66447 179.10655 249.9344 179.2752C 250.20432 179.44386 250.5017 179.54395 250.76111 179.55345C 251.02054 179.56296 251.22075 179.48111 251.3177 179.3259zM241.7303 189.2879C 242.3864 189.84631 243.8091 189.25229 244.908 187.9611C 245.43571 187.34103 245.81665 186.63985 245.967 186.01178C 246.11736 185.38373 246.0248 184.88025 245.7097 184.6121C 245.0536 184.05371 243.6309 184.64774 242.532 185.9389C 242.00429 186.55898 241.62335 187.26016 241.473 187.88823C 241.32265 188.51628 241.4152 189.01976 241.7303 189.2879zM250.04 195.91C 252.02 195.72336 253.94334 195.19002 255.81 194.31C 256.67 193.90334 256.98334 193.23 256.75 192.29C 258.4167 191.02333 258.48 189.61334 256.94 188.06C 254.80667 185.92001 252.84668 186.00334 251.06 188.31C 249.42667 190.42334 249.08667 192.95667 250.04 195.91z" stroke="none" fill="#FFDBDD" fill-rule="nonzero" />
    <path d="M282.75 176.96C 281.42334 177.19333 281.25668 177.77667 282.25 178.71C 282.02335 178.82335 281.92667 179.00334 281.96 179.25C 281.75333 178.81668 281.49335 178.64667 281.18 178.74C 280.99463 178.79573 280.76266 179.06955 280.57 179.46C 280.23 180.16667 279.62335 180.68001 278.75 181C 277.53668 181.44667 276.59332 182.27667 275.92 183.49C 275.7695 183.7538 275.49893 183.9317 275.19 183.97C 274.16333 184.08334 274.01666 184.49667 274.75 185.21C 274.24335 185.35 273.99335 185.68333 274 186.21L274 186.21L271.84 188.13C 271.65704 188.28972 271.3796 188.28105 271.2 188.11C 270.9867 187.89667 270.74335 187.80667 270.47 187.84C 270.34232 187.85532 270.22995 187.93512 270.16116 188.05931C 270.09238 188.1835 270.07376 188.34024 270.11 188.49C 271.09 192.55667 273.47665 195.75 277.27 198.07C 272.53 196.45001 269.49 193.06667 268.15 187.92C 268.13 183.86667 268.71335 179.84668 269.9 175.86C 274.32 173.36667 278.60333 173.73334 282.75 176.96z" stroke="none" fill="#BD747F" fill-rule="nonzero" />
    <path transform="matrix(0.70957077 0.70463413 -0.70463413 0.70957077 261.42 176.87)"  d="M-1.35 0C -1.35 -0.37003082 -0.7455845 -0.67 0 -0.67C 0.7455845 -0.67 1.35 -0.37003082 1.35 0C 1.35 0.37003082 0.7455845 0.67 0 0.67C -0.7455845 0.67 -1.35 0.37003082 -1.35 0" stroke="none" fill="#D38D94" fill-rule="nonzero" />
    <path d="M240.19 176.78C 232.67668 180.99335 226.36334 186.49667 221.25 193.29C 220.69667 193.36334 220.42667 193.15668 220.44 192.67C 220.44669 192.42334 220.55667 192.17001 220.77 191.91C 221.03668 191.59 221.31668 191.28 221.61 190.98C 221.93 190.66667 222.2 190.35333 222.42 190.04C 226.90001 183.70667 232.82335 179.28667 240.19 176.78z" stroke="none" fill="#944F5E" fill-rule="nonzero" />
    <path d="M282.75 176.96C 285.51666 178.58002 287.60333 180.72 289.01 183.38C 290.22333 185.66667 290.66666 188.33667 290.34 191.39C 290.04 194.16333 289.3567 196.86667 288.29 199.5C 287.79666 199.11334 287.29666 199.11334 286.79 199.5C 287.92334 197.73334 287.65668 197.07333 285.99 197.52C 285.3567 197.68668 284.85 197.78001 284.47 197.8C 282.21667 197.95334 279.81668 198.04333 277.27 198.07C 273.47665 195.75 271.09 192.55667 270.11 188.49C 270.07376 188.34024 270.09238 188.1835 270.16116 188.05931C 270.22995 187.93512 270.34232 187.85532 270.47 187.84C 270.74335 187.80667 270.9867 187.89667 271.2 188.11C 271.3796 188.28105 271.65704 188.28972 271.84 188.13L271.84 188.13L274 186.21L275.83 187.74C 276.09357 187.96387 276.46368 187.97247 276.69 187.76C 276.90335 187.56667 276.9267 187.3 276.76 186.96C 276.32666 186.1 275.65668 185.51666 274.75 185.21C 274.01666 184.49667 274.16333 184.08334 275.19 183.97C 275.49893 183.9317 275.7695 183.7538 275.92 183.49C 276.59332 182.27667 277.53668 181.44667 278.75 181C 279.62335 180.68001 280.23 180.16667 280.57 179.46C 280.76266 179.06955 280.99463 178.79573 281.18 178.74C 281.49335 178.64667 281.75333 178.81668 281.96 179.25C 282.45334 180.44333 283.03003 181.21333 283.69 181.56C 284.44336 181.96667 284.69336 181.71667 284.44 180.81C 284.22 180.05 283.49 179.35 282.25 178.71C 281.25668 177.77667 281.42334 177.19333 282.75 176.96z" stroke="none" fill="#F7A6A3" fill-rule="nonzero" />
    <path transform="matrix(0.8480481 0.5299192 -0.5299192 0.8480481 250.3 178.69)"  d="M-1.2 0C -1.2 -0.38107648 -0.6627418 -0.69 0 -0.69C 0.6627418 -0.69 1.2 -0.38107648 1.2 0C 1.2 0.38107648 0.6627418 0.69 0 0.69C -0.6627418 0.69 -1.2 0.38107648 -1.2 0" stroke="none" fill="#D38D94" fill-rule="nonzero" />
    <path d="M149.46 178.75L145.54 184.75L145.46 184C 146.48001 182.01334 147.81334 180.26334 149.46 178.75z" stroke="none" fill="#6C4147" fill-rule="nonzero" />
    <path d="M282.25 178.71C 283.49 179.35 284.22 180.05 284.44 180.81C 284.69336 181.71667 284.44336 181.96667 283.69 181.56C 283.03003 181.21333 282.45334 180.44333 281.96 179.25C 281.92667 179.00334 282.02335 178.82335 282.25 178.71z" stroke="none" fill="#6A2C41" fill-rule="nonzero" />
    <path d="M145.46 184L145.54 184.75L141.75 190.5C 142.64334 188.14001 143.88 185.97334 145.46 184z" stroke="none" fill="#6C4147" fill-rule="nonzero" />
    <path transform="matrix(-0.6481198 0.7615384 -0.7615384 -0.6481198 243.72 186.95)"  d="M-3.07 0C -3.07 -0.8615642 -1.6955142 -1.56 0 -1.56C 1.6955142 -1.56 3.07 -0.8615642 3.07 0C 3.07 0.8615642 1.6955142 1.56 0 1.56C -1.6955142 1.56 -3.07 0.8615642 -3.07 0" stroke="none" fill="#874255" fill-rule="nonzero" />
    <path d="M274.75 185.21C 275.65668 185.51666 276.32666 186.1 276.76 186.96C 276.9267 187.3 276.90335 187.56667 276.69 187.76C 276.46368 187.97247 276.09357 187.96387 275.83 187.74L275.83 187.74L274 186.21C 273.99335 185.68333 274.24335 185.35 274.75 185.21z" stroke="none" fill="#874255" fill-rule="nonzero" />
    <path d="M256.75 192.29C 255.37 191.43 254.62 190.16667 254.5 188.5C 254.38669 186.92001 253.90668 186.69 253.06 187.81C 251.38667 190.03 250.38 192.73001 250.04 195.91C 249.08667 192.95667 249.42667 190.42334 251.06 188.31C 252.84668 186.00334 254.80667 185.92001 256.94 188.06C 258.48 189.61334 258.4167 191.02333 256.75 192.29z" stroke="none" fill="#6C4147" fill-rule="nonzero" />
    <path d="M256.75 192.29C 256.98334 193.23 256.67 193.90334 255.81 194.31C 253.94334 195.19002 252.02 195.72336 250.04 195.91C 250.38 192.73001 251.38667 190.03 253.06 187.81C 253.90668 186.69 254.38669 186.92001 254.5 188.5C 254.62 190.16667 255.37 191.43 256.75 192.29z" stroke="none" fill="#FFF9F9" fill-rule="nonzero" />
    <path d="M268.15 187.92C 269.49 193.06667 272.53 196.45001 277.27 198.07C 279.81668 198.04333 282.21667 197.95334 284.47 197.8C 284.85 197.78001 285.3567 197.68668 285.99 197.52C 287.65668 197.07333 287.92334 197.73334 286.79 199.5C 285.99002 200.50667 285.22668 201.09 284.5 201.25C 278.46667 202.57 273.56335 200.90334 269.79 196.25C 267.86334 193.74335 267.31665 190.96667 268.15 187.92z" stroke="none" fill="#C47983" fill-rule="nonzero" />
    <path d="M141.75 190.5L138.04 198L137.96 197C 138.77335 194.56668 140.03667 192.40001 141.75 190.5z" stroke="none" fill="#6C4147" fill-rule="nonzero" />
    <path d="M269.79 196.25C 273.56335 200.90334 278.46667 202.57 284.5 201.25C 285.22668 201.09 285.99002 200.50667 286.79 199.5C 287.29666 199.11334 287.79666 199.11334 288.29 199.5C 286.61002 205.75334 286.26666 212.08667 287.26 218.5C 288.90002 229.13333 291.36334 239.56 294.65 249.78C 297.05002 260.02667 299.06335 270.34 300.69 280.72C 301.29 285.55334 301.33334 290.4467 300.82 295.4C 298.87335 294.09335 297.38 294.09668 296.34 295.41C 296.16666 295.63 295.92334 295.83002 295.61 296.01C 295.00336 296.36334 294.74335 296.94 294.83 297.74C 294.91 298.55334 294.68335 299.20667 294.15 299.7C 293.92697 299.9044 293.84372 300.20566 293.94 300.46C 294.48 301.96667 294.33334 303.23 293.5 304.25C 291.80002 306.32333 289.38 308.34 286.24 310.3C 285.97818 310.46362 285.6534 310.55695 285.3 310.57C 282.16 310.65668 279.74667 312.07 278.06 314.81C 277.51334 315.70334 276.00333 316.57 273.53 317.41C 273.2382 317.50735 272.98123 317.708 272.8 317.98C 271.24667 320.32 269.86334 320.25 268.65 317.77C 268.50623 317.47617 268.2838 317.2329 268.01 317.07C 265.89 315.7967 264.16 313.55334 262.82 310.34C 262.526 309.62753 262.43933 308.8475 262.57 308.09C 262.85 306.45 263.20667 304.7367 263.64 302.95C 263.96002 301.62335 264.37 300.73666 264.87 300.29C 265.63666 299.59668 266.69333 299.34668 268.04 299.54C 268.4246 299.59488 268.81747 299.38455 269.03 299.01L269.03 299.01L272.5 292.79C 273.73334 292.17 274.32 291.15668 274.26 289.75C 274.15335 287.07 273.88666 284.40335 273.46 281.75C 273.29333 275.05667 272.55667 268.42334 271.25 261.85C 271.20334 261.64337 271.14 261.4567 271.06 261.29C 270.58667 260.34335 270.43668 260.66 270.61 262.24C 271.31 268.63333 271.8567 275.04 272.25 281.46C 269.15668 282.45334 266.01 283.2367 262.81 283.81C 261.97668 283.96335 261.22 284.47668 260.54 285.35C 260.47498 285.43118 260.37323 285.47443 260.2713 285.4642C 260.16937 285.454 260.08182 285.39185 260.04 285.3C 258.06 280.96667 256.7967 277.2 256.25 274C 254.85 265.75336 250.69667 259.83667 243.79 256.25C 243.17001 255.17001 242.26001 254.57335 241.06 254.46C 240.7545 254.42767 240.4773 254.26353 240.3 254.01C 239.70001 253.16335 239.20668 253.33334 238.82 254.52C 237.91335 257.34668 236.54333 259.92334 234.71 262.25L234.71 262.25L230.37 259.76C 230.05667 259.57336 229.78333 259.47668 229.55 259.47C 228.62335 259.4367 228.53001 259.62003 229.27 260.02C 233.81001 262.46667 237.98668 265.37 241.8 268.73C 246.28001 272.68335 249.35335 276.64 251.02 280.6C 253.62668 286.78003 253.67667 293.40335 251.17 300.47C 250.27667 302.98334 249.47002 305.26 248.75 307.3C 248.43147 308.18536 248.6728 309.19742 249.37 309.9L249.37 309.9L260.95 321.57C 261.63 322.25668 261.48334 322.66003 260.51 322.78C 257.43 323.14667 254.66335 324.38666 252.21 326.5C 250.11668 327.12668 248.38 328.30667 247 330.04C 244.82 329.15332 242.75 328.05 240.79 326.73C 237.47668 324.50336 233.96335 322.6767 230.25 321.25C 226.95001 319.98334 222.97002 320.00336 218.31 321.31C 212.62334 322.91 207.52 322.87668 203 321.21L203 321.21L196.79 318.5C 189.23 314.30002 184.70334 307.88336 183.21 299.25C 183.35667 298.61002 183.68333 298.23 184.19 298.11C 184.31386 298.0787 184.44667 298.1094 184.55667 298.19476C 184.66667 298.2801 184.74394 298.4124 184.77 298.56C 185.77667 304.0467 188.18668 308.81335 192 312.86C 192.22 313.09332 192.45334 313.28668 192.7 313.44C 193.96 314.21335 194.11 313.78003 193.15 312.14C 192.21667 310.52667 192.65335 309.89667 194.46 310.25C 196.46002 312.1967 196.89001 312.01666 195.75 309.71C 196.21667 308.81 196.91 308.21667 197.83 307.93C 198.19405 307.81458 198.45105 307.58127 198.48 307.34L198.48 307.34L198.61 306.06C 198.6473 305.73035 198.7982 305.4625 199.01 305.35C 199.71667 304.97668 200.31334 304.49002 200.8 303.89C 201.02667 303.6167 201.28668 302.92 201.58 301.8C 201.80667 300.91333 202.32335 300.27002 203.13 299.87C 203.75002 299.55667 204.50334 299.53668 205.39 299.81C 206.80333 300.24335 208.13666 300.86002 209.39 301.66C 209.65 301.8267 209.86334 302.06668 210.03 302.38C 210.76334 303.76666 211.85667 304.78668 213.31 305.44C 215.74335 306.53333 217.05669 306.13666 217.25 304.25C 217.60335 300.77002 216.76334 297.8 214.73 295.34C 212.78333 292.99335 211.73334 291.69336 211.58 291.44C 209.72 288.29333 208.27667 284.81335 207.25 281C 206.77002 279.21335 206.93335 277.60333 207.74 276.17C 207.93001 275.83432 207.99965 275.5007 207.93 275.26L207.93 275.26L206.04 268.53C 206.29999 267.91 206.35666 267.31668 206.21 266.75C 205.03668 265.98334 204.13333 264.97003 203.5 263.71C 204.04001 262.96332 204.27667 262.14334 204.21 261.25C 204.50334 259.70334 205.3 258.62 206.6 258C 206.88908 257.8654 207.11475 257.6254 207.23 257.33C 207.87 255.65 209.02667 254.52667 210.7 253.96C 211.02667 253.84666 211.14667 253.95667 211.06 254.29C 209.96667 258.37668 210.35335 258.65002 212.22 255.11C 212.36 254.84334 212.43333 254.54668 212.44 254.22C 212.49335 252.63335 212.91669 251.14334 213.71 249.75C 214.73001 247.87668 215.73668 245.99667 216.73 244.11C 217.38335 242.88333 218.34668 241.72 219.62 240.62C 224.66 236.26666 227.72668 230.69333 228.82 223.9C 230.09335 222.11334 230.99335 220.00002 231.52 217.56C 231.54948 217.43288 231.52232 217.29921 231.44556 217.19368C 231.3688 217.08813 231.25002 217.02112 231.12 217.01C 230.08002 216.91 229.33334 217.27335 228.88 218.1C 226.10667 223.12003 222.81334 227.76668 219 232.04C 218.47334 231.76668 218.34668 231.43335 218.62 231.04C 218.78001 230.81334 218.86334 230.64334 218.87 230.53C 218.92334 230.10335 218.62668 230.09335 217.98 230.5C 216.96 231.13333 215.93001 231.74667 214.89 232.34C 214.58334 232.51335 214.46 232.46335 214.52 232.19C 214.54001 232.11002 214.59001 232.03336 214.67 231.96C 217.21 229.42668 219.37334 226.54668 221.16 223.32C 222.92001 221.01334 224.29668 218.40668 225.29 215.5C 227.40334 212.50668 226.85 211.10667 223.63 211.3C 220.86334 209.64668 219.86334 207.27002 220.63 204.17C 220.85 203.28334 221.07 202.39334 221.29 201.5C 221.86334 202.95334 222.70334 203.05667 223.81 201.81C 225.02335 200.45668 226.33669 199.83002 227.75 199.93C 228.09473 199.95607 228.4167 199.88957 228.67 199.74C 230.77667 198.47334 232.88669 197.89334 235 198C 235.80667 198.04001 236.47668 198.38667 237.01 199.04C 237.69 199.87334 238.16 200.38335 238.42 200.57C 239.6 201.43668 240.81668 202.24335 242.07 202.99C 242.33035 203.15245 242.65208 203.2294 242.99 203.21C 244.15001 203.15 245.25334 203.34332 246.3 203.79C 246.62607 203.92686 246.95602 203.9755 247.25 203.93C 249.11 203.61668 250.86 202.80669 252.5 201.5C 256.21335 198.54001 259.94 198.5 263.68 201.38C 264.00198 201.63098 264.35983 201.71324 264.55 201.58C 264.67667 201.48666 264.71332 201.33334 264.66 201.12C 264.6017 200.88228 264.6828 200.64713 264.86 200.54C 266.74667 199.39334 268.39 197.96335 269.79 196.25zM201.2011 311.7167C 201.32509 311.63495 201.3164 311.36304 201.17696 310.96075C 201.0375 310.55847 200.7787 310.0588 200.4575 309.5717C 200.13629 309.08453 199.77898 308.64984 199.46417 308.36322C 199.14937 308.0766 198.90286 307.96152 198.7789 308.0433C 198.52072 308.2136 198.85365 309.17392 199.5225 310.1883C 199.8437 310.67545 200.201 311.11014 200.5158 311.39676C 200.8306 311.6834 201.0771 311.7985 201.2011 311.7167zM204.71 316.08C 204.41 314.84668 204.12668 314.74667 203.86 315.78C 203.77162 316.10968 203.81569 316.43655 203.98 316.67C 204.14667 316.91 204.31334 316.99335 204.48 316.92C 204.70412 316.81934 204.80138 316.46417 204.71 316.08zM200.6749 317.5762C 200.8808 317.41815 200.6471 316.76794 200.1529 316.1239C 199.91554 315.81458 199.64864 315.54807 199.41087 315.38303C 199.17311 315.21796 198.98398 315.16788 198.8851 315.2438C 198.6792 315.40186 198.9129 316.05206 199.4071 316.6961C 199.64445 317.00543 199.91136 317.27194 200.14912 317.43698C 200.38689 317.60205 200.57602 317.65213 200.6749 317.5762z" stroke="none" fill="#FFC3C6" fill-rule="nonzero" />
    <path d="M218.96 196.5C 219.06668 198.28 219.66333 199.85 220.75 201.21C 219.70334 202.05002 218.67 202.16 217.65 201.54C 217.34334 201.34668 217.04333 201.24667 216.75 201.24C 213.98334 201.15334 211.28668 200.69667 208.66 199.87L208.66 199.87L217 197.21C 217.89334 197.49667 218.54666 197.26001 218.96 196.5z" stroke="none" fill="#FFC3C6" fill-rule="nonzero" />
    <path d="M137.96 197L138.04 198L135.04 204.75C 135.06001 204.47 134.96335 204.29001 134.75 204.21L134.75 204.21L137.96 197z" stroke="none" fill="#524A3C" fill-rule="nonzero" fill-opacity="0.77254903" />
    <path d="M208.66 199.87C 211.28668 200.69667 213.98334 201.15334 216.75 201.24C 217.04333 201.24667 217.34334 201.34668 217.65 201.54C 218.67 202.16 219.70334 202.05002 220.75 201.21C 220.99667 201.17668 221.17667 201.27335 221.29 201.5C 221.07 202.39334 220.85 203.28334 220.63 204.17C 219.86334 207.27002 220.86334 209.64668 223.63 211.3L223.63 211.3L210.03 215.75C 209.26729 215.99748 208.43942 215.72017 208 215.07C 207.33334 214.09668 206.66667 213.64334 206 213.71C 209.90001 209.50333 214.3 205.91 219.2 202.93C 219.93333 202.48334 219.87 202.25667 219.01 202.25C 216.15668 202.22334 213.55 202.97667 211.19 204.51C 206.13 207.80333 202.40001 212.21667 200 217.75C 199.25334 219.46335 198.55334 220.81334 197.9 221.8C 197.82 221.92 197.56667 222.37334 197.14 223.16C 196.63335 224.09334 195.89334 224.29333 194.92 223.76C 194.67668 223.63083 194.37526 223.6797 194.18 223.88C 193.72667 224.36002 193.18 224.65001 192.54 224.75C 191.37332 211.79668 196.74667 203.50334 208.66 199.87z" stroke="none" fill="#DD8C95" fill-rule="nonzero" />
    <path d="M206 213.71C 201.56668 218.15 198.31668 223.31667 196.25 229.21L196.25 229.21L192.04 237.11C 191.83273 237.4934 191.82118 237.95374 192.00845 238.3669C 192.19572 238.78006 192.56255 239.10349 193.01 239.25C 198.32333 241.00334 203.14334 239.93668 207.47 236.05C 208.38333 236.06334 209.24667 235.56668 210.06 234.56C 212.48001 231.57333 216.18001 227.82668 221.16 223.32C 219.37334 226.54668 217.21 229.42668 214.67 231.96C 214.59001 232.03336 214.54001 232.11002 214.52 232.19C 214.46 232.46335 214.58334 232.51335 214.89 232.34C 215.93001 231.74667 216.96 231.13333 217.98 230.5C 218.62668 230.09335 218.92334 230.10335 218.87 230.53C 218.86334 230.64334 218.78001 230.81334 218.62 231.04C 218.34668 231.43335 218.47334 231.76668 219 232.04C 215.52667 236.38 211.36002 239.88 206.5 242.54C 201.32 243.82668 196.32333 243.53668 191.51 241.67C 190.03 241.09001 189.02667 240.42001 188.5 239.66C 187.76001 238.60667 187.87334 237.53 188.84 236.43C 189.83334 235.29666 190.43001 234.52333 190.63 234.11C 192.01668 231.19 192.65335 228.07 192.54 224.75C 193.18 224.65001 193.72667 224.36002 194.18 223.88C 194.37526 223.6797 194.67668 223.63083 194.92 223.76C 195.89334 224.29333 196.63335 224.09334 197.14 223.16C 197.56667 222.37334 197.82 221.92 197.9 221.8C 198.55334 220.81334 199.25334 219.46335 200 217.75C 202.40001 212.21667 206.13 207.80333 211.19 204.51C 213.55 202.97667 216.15668 202.22334 219.01 202.25C 219.87 202.25667 219.93333 202.48334 219.2 202.93C 214.3 205.91 209.90001 209.50333 206 213.71z" stroke="none" fill="#944F5E" fill-rule="nonzero" />
    <path d="M134.75 204.21C 134.96335 204.29001 135.06001 204.47 135.04 204.75L135.04 204.75L134.04 207C 133.86002 205.95334 134.09668 205.02335 134.75 204.21z" stroke="none" fill="#524A3C" fill-rule="nonzero" fill-opacity="0.77254903" />
    <path d="M223.63 211.3C 226.85 211.10667 227.40334 212.50668 225.29 215.5C 225.11 214.44669 224.68001 214.06001 224 214.34C 223.69334 214.47334 223.39001 214.78 223.09 215.26C 220.69669 219.10666 217.95668 222.57666 214.87 225.67C 213.17001 222.67001 210.93001 221.46335 208.15 222.05C 207.08334 222.27667 205.18668 223.41335 202.46 225.46C 200.52002 226.90668 198.45001 228.15668 196.25 229.21C 198.31668 223.31667 201.56668 218.15 206 213.71C 206.66667 213.64334 207.33334 214.09668 208 215.07C 208.43942 215.72017 209.26729 215.99748 210.03 215.75L210.03 215.75L223.63 211.3z" stroke="none" fill="#F7A6A3" fill-rule="nonzero" />
    <path d="M225.29 215.5C 224.29668 218.40668 222.92001 221.01334 221.16 223.32C 216.18001 227.82668 212.48001 231.57333 210.06 234.56C 209.24667 235.56668 208.38333 236.06334 207.47 236.05C 207.37668 235.19667 207.82333 234.36667 208.81 233.56C 211.26334 231.56 213.28334 228.93 214.87 225.67C 217.95668 222.57666 220.69669 219.10666 223.09 215.26C 223.39001 214.78 223.69334 214.47334 224 214.34C 224.68001 214.06001 225.11 214.44669 225.29 215.5z" stroke="none" fill="#C47983" fill-rule="nonzero" />
    <path d="M228.82 223.9C 224.83334 233.08 218.70667 240.42667 210.44 245.94C 209.33334 246.67334 207.60335 246.68 205.25 245.96L205.25 245.96L206.5 242.54C 211.36002 239.88 215.52667 236.38 219 232.04C 222.81334 227.76668 226.10667 223.12003 228.88 218.1C 229.33334 217.27335 230.08002 216.91 231.12 217.01C 231.25002 217.02112 231.3688 217.08813 231.44556 217.19368C 231.52232 217.29921 231.54948 217.43288 231.52 217.56C 230.99335 220.00002 230.09335 222.11334 228.82 223.9z" stroke="none" fill="#6C4147" fill-rule="nonzero" />
    <path d="M214.87 225.67C 213.28334 228.93 211.26334 231.56 208.81 233.56C 207.82333 234.36667 207.37668 235.19667 207.47 236.05C 203.14334 239.93668 198.32333 241.00334 193.01 239.25C 192.56255 239.10349 192.19572 238.78006 192.00845 238.3669C 191.82118 237.95374 191.83273 237.4934 192.04 237.11L192.04 237.11L196.25 229.21C 198.45001 228.15668 200.52002 226.90668 202.46 225.46C 205.18668 223.41335 207.08334 222.27667 208.15 222.05C 210.93001 221.46335 213.17001 222.67001 214.87 225.67z" stroke="none" fill="#FFC3C6" fill-rule="nonzero" />
    <path d="M228.82 223.9C 227.72668 230.69333 224.66 236.26666 219.62 240.62C 218.34668 241.72 217.38335 242.88333 216.73 244.11C 215.73668 245.99667 214.73001 247.87668 213.71 249.75C 212.69 249.57668 211.87001 249.83667 211.25 250.53C 211.13002 250.66333 210.87335 250.87 210.48 251.15L210.48 251.15L206.6 253.89C 206.18668 254.18335 205.91335 254.36002 205.78 254.42C 204.97334 254.79333 204.54668 255.5 204.5 256.54C 204.48135 256.88275 204.27116 257.18246 203.96 257.31C 202.85333 257.76334 201.98001 258.32666 201.34 259C 201.21335 259.13336 201.07 259.3667 200.91 259.7C 200.67667 260.17334 200.40668 260.30667 200.1 260.1C 199.88513 259.95853 199.85425 259.6145 200.03 259.32C 200.97667 257.73334 201.08667 256.11 200.36 254.45L200.36 254.45L205.25 245.96C 207.60335 246.68 209.33334 246.67334 210.44 245.94C 218.70667 240.42667 224.83334 233.08 228.82 223.9z" stroke="none" fill="#D38D94" fill-rule="nonzero" />
    <path d="M213.71 249.75C 212.91669 251.14334 212.49335 252.63335 212.44 254.22C 212.43333 254.54668 212.36 254.84334 212.22 255.11C 210.35335 258.65002 209.96667 258.37668 211.06 254.29C 211.14667 253.95667 211.02667 253.84666 210.7 253.96C 209.02667 254.52667 207.87 255.65 207.23 257.33C 207.11475 257.6254 206.88908 257.8654 206.6 258C 205.3 258.62 204.50334 259.70334 204.21 261.25C 203.08334 261.86334 202.23334 262.76337 201.66 263.95C 201.20001 264.89667 201.29335 265.4 201.94 265.46C 202.15977 265.47803 202.4326 265.29095 202.64 264.98L202.64 264.98L203.5 263.71C 204.13333 264.97003 205.03668 265.98334 206.21 266.75C 205.29666 267.26334 204.82333 267.99335 204.79 268.94C 204.7844 269.08746 204.83907 269.2305 204.93936 269.3308C 205.03966 269.4311 205.17532 269.4784 205.31 269.46C 205.76334 269.4 206.00668 269.09 206.04 268.53L206.04 268.53L207.93 275.26C 207.99965 275.5007 207.93001 275.83432 207.74 276.17C 206.93335 277.60333 206.77002 279.21335 207.25 281C 208.27667 284.81335 209.72 288.29333 211.58 291.44C 211.73334 291.69336 212.78333 292.99335 214.73 295.34C 216.76334 297.8 217.60335 300.77002 217.25 304.25C 217.05669 306.13666 215.74335 306.53333 213.31 305.44C 211.85667 304.78668 210.76334 303.76666 210.03 302.38C 209.86334 302.06668 209.65 301.8267 209.39 301.66C 208.13666 300.86002 206.80333 300.24335 205.39 299.81C 204.50334 299.53668 203.75002 299.55667 203.13 299.87C 202.32335 300.27002 201.80667 300.91333 201.58 301.8C 201.28668 302.92 201.02667 303.6167 200.8 303.89C 200.31334 304.49002 199.71667 304.97668 199.01 305.35C 198.7982 305.4625 198.6473 305.73035 198.61 306.06L198.61 306.06L198.48 307.34C 198.45105 307.58127 198.19405 307.81458 197.83 307.93C 196.91 308.21667 196.21667 308.81 195.75 309.71C 195.01001 309.29666 194.58002 309.47668 194.46 310.25C 192.65335 309.89667 192.21667 310.52667 193.15 312.14C 194.11 313.78003 193.96 314.21335 192.7 313.44C 192.45334 313.28668 192.22 313.09332 192 312.86C 188.18668 308.81335 185.77667 304.0467 184.77 298.56C 184.74394 298.4124 184.66667 298.2801 184.55667 298.19476C 184.44667 298.1094 184.31386 298.0787 184.19 298.11C 183.68333 298.23 183.35667 298.61002 183.21 299.25C 181.54335 290.23 183.03668 281.71002 187.69 273.69C 191.73668 266.70334 195.96 260.28998 200.36 254.45C 201.08667 256.11 200.97667 257.73334 200.03 259.32C 199.85425 259.6145 199.88513 259.95853 200.1 260.1C 200.40668 260.30667 200.67667 260.17334 200.91 259.7C 201.07 259.3667 201.21335 259.13336 201.34 259C 201.98001 258.32666 202.85333 257.76334 203.96 257.31C 204.27116 257.18246 204.48135 256.88275 204.5 256.54C 204.54668 255.5 204.97334 254.79333 205.78 254.42C 205.91335 254.36002 206.18668 254.18335 206.6 253.89L206.6 253.89L210.48 251.15C 210.87335 250.87 211.13002 250.66333 211.25 250.53C 211.87001 249.83667 212.69 249.57668 213.71 249.75zM195.591 266.3854C 195.8598 266.5792 196.58311 266.0355 197.2066 265.171C 197.50604 264.75583 197.74193 264.3207 197.86241 263.9613C 197.98288 263.6019 197.97806 263.34772 197.849 263.2546C 197.58022 263.0608 196.8569 263.6045 196.2334 264.469C 195.93396 264.88416 195.69804 265.3193 195.57758 265.67868C 195.4571 266.0381 195.46193 266.2923 195.591 266.3854zM197.965 271.7272C 198.08524 271.805 198.32646 271.68497 198.6356 271.39355C 198.94475 271.10214 199.29646 270.6632 199.6134 270.1733C 199.93034 269.6834 200.18652 269.18265 200.3256 268.78122C 200.46468 268.3798 200.47525 268.1106 200.355 268.0328C 200.10457 267.87085 199.36656 268.56653 198.7066 269.5867C 198.38968 270.0766 198.1335 270.57733 197.99442 270.97876C 197.85533 271.3802 197.84476 271.6494 197.965 271.7272zM192.71 270.56C 191.20334 273.09332 191.55667 273.27332 193.77 271.1C 193.97 270.90668 194.10667 270.6767 194.18 270.41C 194.54668 269.03003 194.23001 268.85 193.23 269.87C 193.04333 270.06335 192.87 270.29333 192.71 270.56zM201.3273 275.6313C 201.46912 275.71454 201.7171 275.60352 202.0167 275.32266C 202.31628 275.0418 202.64294 274.61414 202.9248 274.1337C 203.51169 273.13336 203.74805 272.18195 203.4527 272.0087C 203.31088 271.92548 203.0629 272.0365 202.7633 272.31735C 202.46371 272.5982 202.13705 273.02588 201.8552 273.5063C 201.26831 274.50662 201.03195 275.45804 201.3273 275.6313zM198.38 279C 197.46667 279.90668 197.23 280.69666 197.67 281.37C 197.7424 281.4801 197.86316 281.5489 197.99771 281.5567C 198.13226 281.5645 198.26576 281.51044 198.36 281.41C 198.88 280.84335 199.15668 280.15668 199.19 279.35C 199.21667 278.55667 198.94669 278.44 198.38 279zM193.573 282.4434C 193.70624 282.12796 193.55853 281.76425 193.2431 281.631L193.2431 281.631L193.0589 281.5532C 192.90744 281.4892 192.73674 281.488 192.58438 281.5499C 192.43204 281.61176 192.3105 281.7316 192.2465 281.8831L192.2465 281.8831L191.227 284.2966C 191.16302 284.4481 191.16183 284.61877 191.2237 284.77115C 191.28557 284.9235 191.40543 285.04504 191.5569 285.109L191.5569 285.109L191.7411 285.1868C 191.89258 285.2508 192.06328 285.25198 192.21564 285.1901C 192.36798 285.12823 192.48952 285.0084 192.5535 284.8569L192.5535 284.8569L193.573 282.4434zM186.4838 287.4061C 186.86476 287.538 187.5032 286.69308 187.9098 285.5189C 188.10507 284.955 188.21965 284.38904 188.22836 283.9455C 188.23706 283.50198 188.13916 283.21722 187.9562 283.1539C 187.57524 283.022 186.9368 283.8669 186.5302 285.0411C 186.33493 285.605 186.22035 286.17096 186.21164 286.6145C 186.20294 287.058 186.30084 287.34277 186.4838 287.4061zM190.38 291.4693C 190.61176 291.49695 190.85297 291.36444 191.0506 291.10092C 191.24823 290.83743 191.38606 290.4645 191.4338 290.0642C 191.5332 289.23065 191.22258 288.50827 190.74 288.4507C 190.50826 288.42307 190.26704 288.55557 190.06941 288.8191C 189.87178 289.08258 189.73395 289.4555 189.6862 289.8558C 189.58682 290.68933 189.89745 291.4117 190.38 291.4693zM196.3159 297.4564C 196.78741 297.39932 197.06853 296.5175 196.9438 295.4867C 196.8839 294.9917 196.7365 294.52783 196.53401 294.19717C 196.33153 293.86652 196.09055 293.69617 195.8641 293.7236C 195.3926 293.78067 195.11148 294.6625 195.2362 295.6933C 195.29613 296.1883 195.44353 296.65216 195.64601 296.98282C 195.8485 297.31348 196.08948 297.48383 196.3159 297.4564zM191.0211 295.2105C 190.9889 295.06277 190.89934 294.9339 190.77211 294.8522C 190.64487 294.77054 190.4904 294.74274 190.3427 294.775L190.3427 294.775L190.2646 294.792C 189.95703 294.85907 189.76205 295.16275 189.8291 295.4703L189.8291 295.4703L190.5789 298.9095C 190.6111 299.05722 190.70065 299.1861 190.82788 299.2678C 190.95511 299.34946 191.10957 299.37723 191.2573 299.345L191.2573 299.345L191.3354 299.328C 191.64297 299.26093 191.83795 298.95724 191.7709 298.6497L191.7709 298.6497L191.0211 295.2105zM197.51 304.44C 198.02335 303.72668 197.95668 303.04333 197.31 302.39C 197.1012 302.17822 196.76155 302.16513 196.53 302.36C 195.64334 303.1 195.72 303.83002 196.76 304.55C 197.01318 304.72186 197.34717 304.67288 197.51 304.44zM191.69 303.43C 191.55667 304.23 191.83334 304.89 192.52 305.41C 192.62349 305.4922 192.75963 305.52087 192.88748 305.48746C 193.01534 305.454 193.12 305.36234 193.17 305.24C 193.55 304.34003 193.25334 303.64 192.28 303.14C 192.16272 303.0799 192.02393 303.0783 191.90701 303.13577C 191.79008 303.19324 191.70934 303.3027 191.69 303.43z" stroke="none" fill="#FDA9AE" fill-rule="nonzero" />
    <path d="M294.65 249.78L297.46 253.5C 296.74 253.57333 296.55667 253.92334 296.91 254.55C 297.37665 255.36334 297.83667 256.18 298.29 257L298.29 257L297.9 258.03C 297.79614 258.30234 297.78912 258.63953 297.88 258.99C 299.81335 266.13 301.09 273.38336 301.71 280.75L301.71 280.75L300.69 280.72C 299.06335 270.34 297.05002 260.02667 294.65 249.78z" stroke="none" fill="#874255" fill-rule="nonzero" />
    <path d="M243.79 256.25C 243.73001 257.07666 244.13335 257.67334 245 258.04C 244.85335 260.1 245.57 261.72 247.15 262.9C 247.42836 263.10696 247.62259 263.37537 247.7 263.66C 248.32668 266.01337 248.46667 267.97668 248.12 269.55C 247.84 270.81668 248.21333 271.84668 249.24 272.64C 252.28667 274.9867 253.22667 277.32666 252.06 279.66C 247.66002 272.42667 241.87668 266.62335 234.71 262.25C 236.54333 259.92334 237.91335 257.34668 238.82 254.52C 239.20668 253.33334 239.70001 253.16335 240.3 254.01C 240.4773 254.26353 240.7545 254.42767 241.06 254.46C 242.26001 254.57335 243.17001 255.17001 243.79 256.25z" stroke="none" fill="#EAA5AB" fill-rule="nonzero" />
    <path d="M297.46 253.5L311.29 272.75C 311.18335 273.77667 310.38336 274.27002 308.89 274.23C 308.1989 274.2131 307.58612 274.67685 307.41 275.35C 307.23666 276.03003 306.51334 276.48334 305.24 276.71L305.24 276.71L302.31 266.55C 301.94336 265.27667 301.74002 264.44 301.7 264.04C 301.34003 260.80667 300.20337 258.46002 298.29 257C 297.83667 256.18 297.37665 255.36334 296.91 254.55C 296.55667 253.92334 296.74 253.57333 297.46 253.5z" stroke="none" fill="#FFC3C6" fill-rule="nonzero" />
    <path d="M243.79 256.25C 250.69667 259.83667 254.85 265.75336 256.25 274C 256.7967 277.2 258.06 280.96667 260.04 285.3C 260.08182 285.39185 260.16937 285.454 260.2713 285.4642C 260.37323 285.47443 260.47498 285.43118 260.54 285.35C 261.22 284.47668 261.97668 283.96335 262.81 283.81C 266.01 283.2367 269.15668 282.45334 272.25 281.46C 272.59668 281.74002 273 281.83667 273.46 281.75C 273.88666 284.40335 274.15335 287.07 274.26 289.75C 274.32 291.15668 273.73334 292.17 272.5 292.79L272.5 292.79L272.04 292.75C 270.76 292.44336 269.49667 292.52667 268.25 293C 267.7367 293.19336 266.97668 293.11002 265.97 292.75C 265.37668 292.53003 264.65668 292.37335 263.81 292.28C 261.84332 292.06 260.34332 290.9467 259.31 288.94C 257.63666 285.6667 256.42334 282.49 255.67 279.41C 254.91666 276.31665 254.54 274.76666 254.54 274.76C 253.86667 272.46667 253.11667 270.1967 252.29 267.95C 250.82333 263.93002 248.39334 260.62668 245 258.04C 244.13335 257.67334 243.73001 257.07666 243.79 256.25z" stroke="none" fill="#6A2C41" fill-rule="nonzero" />
    <path d="M298.29 257C 300.20337 258.46002 301.34003 260.80667 301.7 264.04C 301.74002 264.44 301.94336 265.27667 302.31 266.55L302.31 266.55L305.24 276.71L302.75 281.79L301.71 280.75C 301.09 273.38336 299.81335 266.13 297.88 258.99C 297.78912 258.63953 297.79614 258.30234 297.9 258.03L297.9 258.03L298.29 257z" stroke="none" fill="#C47983" fill-rule="nonzero" />
    <path d="M245 258.04C 248.39334 260.62668 250.82333 263.93002 252.29 267.95C 253.11667 270.1967 253.86667 272.46667 254.54 274.76C 254.54 274.76666 254.91666 276.31665 255.67 279.41C 256.42334 282.49 257.63666 285.6667 259.31 288.94C 260.34332 290.9467 261.84332 292.06 263.81 292.28C 264.65668 292.37335 265.37668 292.53003 265.97 292.75C 266.97668 293.11002 267.7367 293.19336 268.25 293C 269.49667 292.52667 270.76 292.44336 272.04 292.75C 270.71332 292.91 269.72333 294.02667 269.07 296.1C 268.93765 296.52298 268.54675 296.89914 268.01 297.12L268.01 297.12L262.93 299.26C 262.63687 299.38538 262.3209 299.34137 262.14 299.15L262.14 299.15L257.08 293.88C 256.9841 293.77945 256.85522 293.71835 256.7231 293.71082C 256.591 293.70325 256.46707 293.7499 256.38 293.84C 255.88667 294.35333 255.60333 294.99 255.53 295.75C 255.41667 296.92334 255.08667 298.00668 254.54 299L254.54 299L253.54 297.5C 253.88 296.04 253.98666 294.58667 253.86 293.14C 253.69333 291.26666 253.62334 289.8333 253.65 288.84C 253.71667 285.72668 253.18668 282.6667 252.06 279.66C 253.22667 277.32666 252.28667 274.9867 249.24 272.64C 248.21333 271.84668 247.84 270.81668 248.12 269.55C 248.46667 267.97668 248.32668 266.01337 247.7 263.66C 247.62259 263.37537 247.42836 263.10696 247.15 262.9C 245.57 261.72 244.85335 260.1 245 258.04z" stroke="none" fill="#C47983" fill-rule="nonzero" />
    <path d="M234.71 262.25C 241.87668 266.62335 247.66002 272.42667 252.06 279.66C 253.18668 282.6667 253.71667 285.72668 253.65 288.84C 253.62334 289.8333 253.69333 291.26666 253.86 293.14C 253.98666 294.58667 253.88 296.04 253.54 297.5L253.54 297.5L250.22 307.97C 250.03604 308.56067 250.202 309.20905 250.65 309.65C 252.77667 311.73 254.92667 313.84668 257.1 316C 257.7 316.59335 258.84 317.88 260.52 319.86C 261.63333 321.18 262.86334 322.39334 264.21 323.5C 264.59 324.38666 265.34332 324.86667 266.47 324.94C 263.16333 331.67334 257.74335 333.86002 250.21 331.5L250.21 331.5L252.21 326.5C 254.66335 324.38666 257.43 323.14667 260.51 322.78C 261.48334 322.66003 261.63 322.25668 260.95 321.57L260.95 321.57L249.37 309.9C 248.6728 309.19742 248.43147 308.18536 248.75 307.3C 249.47002 305.26 250.27667 302.98334 251.17 300.47C 253.67667 293.40335 253.62668 286.78003 251.02 280.6C 249.35335 276.64 246.28001 272.68335 241.8 268.73C 237.98668 265.37 233.81001 262.46667 229.27 260.02C 228.53001 259.62003 228.62335 259.4367 229.55 259.47C 229.78333 259.47668 230.05667 259.57336 230.37 259.76L230.37 259.76L234.71 262.25z" stroke="none" fill="#6A2C41" fill-rule="nonzero" />
    <path d="M273.46 281.75C 273 281.83667 272.59668 281.74002 272.25 281.46C 271.8567 275.04 271.31 268.63333 270.61 262.24C 270.43668 260.66 270.58667 260.34335 271.06 261.29C 271.14 261.4567 271.20334 261.64337 271.25 261.85C 272.55667 268.42334 273.29333 275.05667 273.46 281.75z" stroke="none" fill="#D38D94" fill-rule="nonzero" />
    <path d="M204.21 261.25C 204.27667 262.14334 204.04001 262.96332 203.5 263.71L203.5 263.71L202.64 264.98C 202.4326 265.29095 202.15977 265.47803 201.94 265.46C 201.29335 265.4 201.20001 264.89667 201.66 263.95C 202.23334 262.76337 203.08334 261.86334 204.21 261.25z" stroke="none" fill="#C47983" fill-rule="nonzero" />
    <path transform="matrix(-0.58495766 0.8110638 -0.8110638 -0.58495766 196.72 264.82)"  d="M-1.93 0C -1.93 -0.3313709 -1.0659096 -0.6 0 -0.6C 1.0659096 -0.6 1.93 -0.3313709 1.93 0C 1.93 0.3313709 1.0659096 0.6 0 0.6C -1.0659096 0.6 -1.93 0.3313709 -1.93 0" stroke="none" fill="#C47983" fill-rule="nonzero" />
    <path d="M206.21 266.75C 206.35666 267.31668 206.29999 267.91 206.04 268.53C 206.00668 269.09 205.76334 269.4 205.31 269.46C 205.17532 269.4784 205.03966 269.4311 204.93936 269.3308C 204.83907 269.2305 204.7844 269.08746 204.79 268.94C 204.82333 267.99335 205.29666 267.26334 206.21 266.75z" stroke="none" fill="#DD8C95" fill-rule="nonzero" />
    <path transform="matrix(-0.5431744 0.83961993 -0.83961993 -0.5431744 199.16 269.88)"  d="M-2.2 0C -2.2 -0.29823378 -1.2150265 -0.54 0 -0.54C 1.2150265 -0.54 2.2 -0.29823378 2.2 0C 2.2 0.29823378 1.2150265 0.54 0 0.54C -1.2150265 0.54 -2.2 0.29823378 -2.2 0" stroke="none" fill="#DD8C95" fill-rule="nonzero" />
    <path d="M193.23 269.87C 194.23001 268.85 194.54668 269.03003 194.18 270.41C 194.10667 270.6767 193.97 270.90668 193.77 271.1C 191.55667 273.27332 191.20334 273.09332 192.71 270.56C 192.87 270.29333 193.04333 270.06335 193.23 269.87z" stroke="none" fill="#C47983" fill-rule="nonzero" />
    <path transform="matrix(-0.50603366 0.8625137 -0.8625137 -0.50603366 202.39 273.82)"  d="M-2.1 0C -2.1 -0.34241655 -1.159798 -0.62 0 -0.62C 1.159798 -0.62 2.1 -0.34241655 2.1 0C 2.1 0.34241655 1.159798 0.62 0 0.62C -1.159798 0.62 -2.1 0.34241655 -2.1 0" stroke="none" fill="#D38D94" fill-rule="nonzero" />
    <path d="M311.29 272.75C 312.94333 275.09668 313.84 277.68335 313.98 280.51C 313.99872 280.85367 313.88544 281.17154 313.67 281.38C 313.17 281.86002 312.55002 282.10004 311.81 282.1C 311.4634 282.09995 311.1546 282.20767 310.95 282.4L310.95 282.4L308.55 284.6C 308.32062 284.8168 307.99707 284.89673 307.7 284.81C 305.79333 284.27002 304.14334 283.26337 302.75 281.79L302.75 281.79L305.24 276.71C 306.51334 276.48334 307.23666 276.03003 307.41 275.35C 307.58612 274.67685 308.1989 274.2131 308.89 274.23C 310.38336 274.27002 311.18335 273.77667 311.29 272.75z" stroke="none" fill="#6A2C41" fill-rule="nonzero" />
    <path d="M198.38 279C 198.94669 278.44 199.21667 278.55667 199.19 279.35C 199.15668 280.15668 198.88 280.84335 198.36 281.41C 198.26576 281.51044 198.13226 281.5645 197.99771 281.5567C 197.86316 281.5489 197.7424 281.4801 197.67 281.37C 197.23 280.69666 197.46667 279.90668 198.38 279z" stroke="none" fill="#C47983" fill-rule="nonzero" />
    <path transform="matrix(0.9211854 0.38912392 -0.38912392 0.9211854 192.4 283.37)"  d="M-0.72 -1.31C -0.72 -1.6524165 -0.44241658 -1.93 -0.100000024 -1.93L-0.100000024 -1.93L0.100000024 -1.93C 0.44241658 -1.93 0.72 -1.6524165 0.72 -1.31L0.72 -1.31L0.72 1.31C 0.72 1.6524165 0.44241658 1.93 0.100000024 1.93L0.100000024 1.93L-0.100000024 1.93C -0.44241658 1.93 -0.72 1.6524165 -0.72 1.31L-0.72 1.31L-0.72 -1.31z" stroke="none" fill="#C47983" fill-rule="nonzero" />
    <path transform="matrix(-0.32721776 0.9449489 -0.9449489 -0.32721776 187.22 285.28)"  d="M-2.25 0C -2.25 -0.4031679 -1.2426407 -0.73 0 -0.73C 1.2426407 -0.73 2.25 -0.4031679 2.25 0C 2.25 0.4031679 1.2426407 0.73 0 0.73C -1.2426407 0.73 -2.25 0.4031679 -2.25 0" stroke="none" fill="#C47983" fill-rule="nonzero" />
    <path transform="matrix(-0.11840401 0.99296546 -0.99296546 -0.11840401 190.56 289.96)"  d="M-1.52 0C -1.52 -0.4860106 -0.83947283 -0.88 0 -0.88C 0.83947283 -0.88 1.52 -0.4860106 1.52 0C 1.52 0.4860106 0.83947283 0.88 0 0.88C -0.83947283 0.88 -1.52 0.4860106 -1.52 0" stroke="none" fill="#C47983" fill-rule="nonzero" />
    <path d="M272.04 292.75L272.5 292.79L269.03 299.01C 268.81747 299.38455 268.4246 299.59488 268.04 299.54C 266.69333 299.34668 265.63666 299.59668 264.87 300.29C 264.37 300.73666 263.96002 301.62335 263.64 302.95C 263.20667 304.7367 262.85 306.45 262.57 308.09C 262.43933 308.8475 262.526 309.62753 262.82 310.34C 264.16 313.55334 265.89 315.7967 268.01 317.07C 268.2838 317.2329 268.50623 317.47617 268.65 317.77C 269.86334 320.25 271.24667 320.32 272.8 317.98C 272.98123 317.708 273.2382 317.50735 273.53 317.41C 276.00333 316.57 277.51334 315.70334 278.06 314.81C 279.74667 312.07 282.16 310.65668 285.3 310.57C 285.6534 310.55695 285.97818 310.46362 286.24 310.3C 289.38 308.34 291.80002 306.32333 293.5 304.25C 294.33334 303.23 294.48 301.96667 293.94 300.46C 293.84372 300.20566 293.92697 299.9044 294.15 299.7C 294.68335 299.20667 294.91 298.55334 294.83 297.74C 294.74335 296.94 295.00336 296.36334 295.61 296.01C 295.92334 295.83002 296.16666 295.63 296.34 295.41C 297.38 294.09668 298.87335 294.09335 300.82 295.4C 300.00668 300.86667 298.05334 305.98334 294.96 310.75C 290.74667 315.26334 285.98 319.0833 280.66 322.21L280.66 322.21L266.47 324.94C 265.34332 324.86667 264.59 324.38666 264.21 323.5C 264.45 322.19336 264.34335 320.95337 263.89 319.78C 263.78705 319.52298 263.5512 319.28717 263.23 319.12C 262.83002 318.91333 262.51 318.63 262.27 318.27C 261.74335 317.47 261.45334 317.04 261.4 316.98C 258.73334 314.08002 256.14667 311.11334 253.64 308.08C 253.4112 307.8064 253.30524 307.48117 253.35 307.19L253.35 307.19L254.54 299C 255.08667 298.00668 255.41667 296.92334 255.53 295.75C 255.60333 294.99 255.88667 294.35333 256.38 293.84C 256.46707 293.7499 256.591 293.70325 256.7231 293.71082C 256.85522 293.71835 256.9841 293.77945 257.08 293.88L257.08 293.88L262.14 299.15C 262.3209 299.34137 262.63687 299.38538 262.93 299.26L262.93 299.26L268.01 297.12C 268.54675 296.89914 268.93765 296.52298 269.07 296.1C 269.72333 294.02667 270.71332 292.91 272.04 292.75z" stroke="none" fill="#F09DA3" fill-rule="nonzero" />
    <path transform="matrix(0.12013692 0.9927573 -0.9927573 0.12013692 196.09 295.59)"  d="M-1.88 0C -1.88 -0.47496492 -1.0382954 -0.86 0 -0.86C 1.0382954 -0.86 1.88 -0.47496492 1.88 0C 1.88 0.47496492 1.0382954 0.86 0 0.86C -1.0382954 0.86 -1.88 0.47496492 -1.88 0" stroke="none" fill="#DD8C95" fill-rule="nonzero" />
    <path transform="matrix(0.97704554 -0.2130304 0.2130304 0.97704554 190.8 297.06)"  d="M-0.61 -1.76C -0.61 -2.0748022 -0.3548023 -2.33 -0.04000002 -2.33L-0.04000002 -2.33L0.04000002 -2.33C 0.3548023 -2.33 0.61 -2.0748022 0.61 -1.76L0.61 -1.76L0.61 1.76C 0.61 2.0748022 0.3548023 2.33 0.04000002 2.33L0.04000002 2.33L-0.04000002 2.33C -0.3548023 2.33 -0.61 2.0748022 -0.61 1.76L-0.61 1.76L-0.61 -1.76z" stroke="none" fill="#C47983" fill-rule="nonzero" />
    <path d="M253.54 297.5L254.54 299L253.35 307.19C 253.30524 307.48117 253.4112 307.8064 253.64 308.08C 256.14667 311.11334 258.73334 314.08002 261.4 316.98C 261.45334 317.04 261.74335 317.47 262.27 318.27C 262.51 318.63 262.83002 318.91333 263.23 319.12C 263.5512 319.28717 263.78705 319.52298 263.89 319.78C 264.34335 320.95337 264.45 322.19336 264.21 323.5C 262.86334 322.39334 261.63333 321.18 260.52 319.86C 258.84 317.88 257.7 316.59335 257.1 316C 254.92667 313.84668 252.77667 311.73 250.65 309.65C 250.202 309.20905 250.03604 308.56067 250.22 307.97L250.22 307.97L253.54 297.5z" stroke="none" fill="#C47983" fill-rule="nonzero" />
    <path d="M196.76 304.55C 195.72 303.83002 195.64334 303.1 196.53 302.36C 196.76155 302.16513 197.1012 302.17822 197.31 302.39C 197.95668 303.04333 198.02335 303.72668 197.51 304.44C 197.34717 304.67288 197.01318 304.72186 196.76 304.55z" stroke="none" fill="#C47983" fill-rule="nonzero" />
    <path d="M192.28 303.14C 193.25334 303.64 193.55 304.34003 193.17 305.24C 193.12 305.36234 193.01534 305.454 192.88748 305.48746C 192.75963 305.52087 192.62349 305.4922 192.52 305.41C 191.83334 304.89 191.55667 304.23 191.69 303.43C 191.70934 303.3027 191.79008 303.19324 191.90701 303.13577C 192.02393 303.0783 192.16272 303.0799 192.28 303.14z" stroke="none" fill="#C47983" fill-rule="nonzero" />
    <path transform="matrix(0.5504808 0.8348478 -0.8348478 0.5504808 199.99 309.88)"  d="M-2.2 0C -2.2 -0.30927947 -1.2150265 -0.56 0 -0.56C 1.2150265 -0.56 2.2 -0.30927947 2.2 0C 2.2 0.30927947 1.2150265 0.56 0 0.56C -1.2150265 0.56 -2.2 0.30927947 -2.2 0" stroke="none" fill="#C47983" fill-rule="nonzero" />
    <path d="M195.75 309.71C 196.89001 312.01666 196.46002 312.1967 194.46 310.25C 194.58002 309.47668 195.01001 309.29666 195.75 309.71z" stroke="none" fill="#DD8C95" fill-rule="nonzero" />
    <path d="M294.96 310.75C 295.48 311.13 296.07666 311.36667 296.75 311.46C 296.2967 311.42667 295.93335 311.57666 295.66 311.91C 291.92 316.53668 287.36667 320.1367 282 322.71L282 322.71L280.66 322.21C 285.98 319.0833 290.74667 315.26334 294.96 310.75z" stroke="none" fill="#4F1E25" fill-rule="nonzero" />
    <path d="M296.75 311.46L302 312.29C 301.99335 312.82333 301.84 313.31 301.54 313.75C 300.6667 312.25668 299.55002 311.9867 298.19 312.94C 296.87668 313.85333 295.81 315.22003 294.99 317.04C 294.97 317.08667 294.74335 317.91666 294.31 319.53C 294.11002 320.30334 293.7367 321.1067 293.19 321.94C 292.06335 323.64667 292.5 324.51337 294.5 324.54L294.5 324.54L294 325.54L282 322.71C 287.36667 320.1367 291.92 316.53668 295.66 311.91C 295.93335 311.57666 296.2967 311.42667 296.75 311.46z" stroke="none" fill="#BD747F" fill-rule="nonzero" />
    <path d="M302 312.29C 307.62 312.87668 308.69 315.53003 305.21 320.25C 303.68335 320.71002 303.25668 320.34003 303.93 319.14C 304.27002 318.54 304.44666 317.89667 304.46 317.21C 304.54666 313.75 303.79 312.67334 302.19 313.98C 302.03003 314.1067 301.85004 314.3767 301.65 314.79C 301.24335 315.63 300.27335 315.9 298.74 315.6C 300.36667 315.29337 301.3 314.6767 301.54 313.75C 301.84 313.31 301.99335 312.82333 302 312.29z" stroke="none" fill="#874255" fill-rule="nonzero" />
    <path d="M301.54 313.75C 301.3 314.6767 300.36667 315.29337 298.74 315.6C 298.99335 318.91336 297.92667 321.48 295.54 323.3C 295.1 323.63333 294.75336 324.0467 294.5 324.54C 292.5 324.51337 292.06335 323.64667 293.19 321.94C 293.7367 321.1067 294.11002 320.30334 294.31 319.53C 294.74335 317.91666 294.97 317.08667 294.99 317.04C 295.81 315.22003 296.87668 313.85333 298.19 312.94C 299.55002 311.9867 300.6667 312.25668 301.54 313.75z" stroke="none" fill="#F09DA3" fill-rule="nonzero" />
    <path d="M305.21 320.25C 305.57 321.52335 305.48 322.69 304.94 323.75C 304.79727 324.02863 304.5472 324.26108 304.23 324.41C 300.98334 325.9367 297.57333 326.31335 294 325.54L294 325.54L294.5 324.54C 294.75336 324.0467 295.1 323.63333 295.54 323.3C 297.92667 321.48 298.99335 318.91336 298.74 315.6C 300.27335 315.9 301.24335 315.63 301.65 314.79C 301.85004 314.3767 302.03003 314.1067 302.19 313.98C 303.79 312.67334 304.54666 313.75 304.46 317.21C 304.44666 317.89667 304.27002 318.54 303.93 319.14C 303.25668 320.34003 303.68335 320.71002 305.21 320.25z" stroke="none" fill="#6A2C41" fill-rule="nonzero" />
    <path d="M204.48 316.92C 204.31334 316.99335 204.14667 316.91 203.98 316.67C 203.81569 316.43655 203.77162 316.10968 203.86 315.78C 204.12668 314.74667 204.41 314.84668 204.71 316.08C 204.80138 316.46417 204.70412 316.81934 204.48 316.92z" stroke="none" fill="#F09DA3" fill-rule="nonzero" />
    <path transform="matrix(0.6087614 0.79335326 -0.79335326 0.6087614 199.78 316.41)"  d="M-1.47 0C -1.47 -0.25957385 -0.81185865 -0.47 0 -0.47C 0.81185865 -0.47 1.47 -0.25957385 1.47 0C 1.47 0.25957385 0.81185865 0.47 0 0.47C -0.81185865 0.47 -1.47 0.25957385 -1.47 0" stroke="none" fill="#DD8C95" fill-rule="nonzero" />
    <path d="M196.79 318.5L203 321.21L199.5 323.96C 198.29333 322.41998 196.79333 321.25333 195 320.46L195 320.46L196.79 318.5z" stroke="none" fill="#6C4147" fill-rule="nonzero" />
    <path d="M195 320.46C 196.79333 321.25333 198.29333 322.41998 199.5 323.96L199.5 323.96L197.79 324.75C 195.91 324.27667 194.48001 323.18 193.5 321.46L193.5 321.46L195 320.46z" stroke="none" fill="#BD747F" fill-rule="nonzero" />
    <path d="M193.5 321.46C 194.48001 323.18 195.91 324.27667 197.79 324.75C 194.41666 326.7967 190.89667 326.86334 187.23 324.95C 186.54333 324.59668 186.57333 324.26666 187.32 323.96L187.32 323.96L193.5 321.46z" stroke="none" fill="#F7A6A3" fill-rule="nonzero" />
    <path d="M150.5 326.04C 152.14001 327.1667 153.30667 328.65335 154 330.5C 152.48666 329.27335 151.32 327.78668 150.5 326.04z" stroke="none" fill="#6C4147" fill-rule="nonzero" />
    <path d="M252.21 326.5L250.21 331.5C 248.95001 331.40002 247.88 330.91333 247 330.04C 248.38 328.30667 250.11668 327.12668 252.21 326.5z" stroke="none" fill="#944F5E" fill-rule="nonzero" />
    <path d="M154 330.5L160.46 337.25L160 337.29C 157.58667 335.38336 155.58667 333.12 154 330.5z" stroke="none" fill="#524A3C" fill-rule="nonzero" fill-opacity="0.77254903" />
    <path d="M160 337.29L160.46 337.25C 163.88669 340.7367 166.67001 343.30002 168.81 344.94C 169.29666 345.30667 169.52667 345.66 169.5 346C 165.99335 343.46667 162.82668 340.56335 160 337.29z" stroke="none" fill="#524A3C" fill-rule="nonzero" fill-opacity="0.77254903" />
    <path d="M169.5 346C 171.53334 346.6067 173.03334 347.84335 174 349.71C 172.28 348.74335 170.78 347.50668 169.5 346z" stroke="none" fill="#524A3C" fill-rule="nonzero" fill-opacity="0.77254903" />
    <path d="M175.29 350.75C 176.61002 350.95 177.68001 351.60333 178.5 352.71C 177.20667 352.45667 176.13666 351.80334 175.29 350.75z" stroke="none" fill="#524A3C" fill-rule="nonzero" fill-opacity="0.77254903" />
    <path d="M316.71 353.5C 315.93668 354.62 314.86667 355.27332 313.5 355.46C 314.42 354.55334 315.49002 353.90002 316.71 353.5z" stroke="none" fill="#524A3C" fill-rule="nonzero" fill-opacity="0.77254903" />
    <path d="M186.75 358.04C 187.68333 358.13333 188.35 358.60666 188.75 359.46C 187.81668 359.34668 187.15001 358.87335 186.75 358.04z" stroke="none" fill="#6C4147" fill-rule="nonzero" />
    <path d="M210.29 368.75L215.25 369.96L214.25 370.04C 212.77 370.08667 211.45 369.65668 210.29 368.75z" stroke="none" fill="#524A3C" fill-rule="nonzero" fill-opacity="0.77254903" />
    <path d="M214.25 370.04L215.25 369.96L220.75 371.46L214.25 370.04z" stroke="none" fill="#524A3C" fill-rule="nonzero" fill-opacity="0.77254903" />
</g>
</svg>