<?xml version="1.0" encoding="utf-8"?>
<!-- Generator: Adobe Illustrator 26.0.3, SVG Export Plug-In . SVG Version: 6.00 Build 0)  -->
<svg version="1.1" id="Layer_1" xmlns="http://www.w3.org/2000/svg" xmlns:xlink="http://www.w3.org/1999/xlink" x="0px" y="0px"
	 viewBox="0 0 1151 482" style="enable-background:new 0 0 1151 482;" xml:space="preserve">
<style type="text/css">
	.st0{fill:none;stroke:#8B8C8C;stroke-width:2;}
	.st1{fill:none;stroke:#83774E;stroke-width:2;}
	.st2{fill:none;stroke:#6E612F;stroke-width:2;}
	.st3{fill:none;stroke:#E2D4A2;stroke-width:2;}
	.st4{fill:none;stroke:#F7EBC1;stroke-width:2;}
	.st5{fill:none;stroke:#D9C063;stroke-width:2;}
	.st6{fill:none;stroke:#7E7249;stroke-width:2;}
	.st7{fill:none;stroke:#F2E5BC;stroke-width:2;}
	.st8{fill:none;stroke:#7A7044;stroke-width:2;}
	.st9{fill:none;stroke:#E9D17E;stroke-width:2;}
	.st10{fill:none;stroke:#E4CB79;stroke-width:2;}
	.st11{fill:none;stroke:#DDC86E;stroke-width:2;}
	.st12{fill:none;stroke:#D4BA5F;stroke-width:2;}
	.st13{fill:none;stroke:#756940;stroke-width:2;}
	.st14{fill:#FFFFFF;}
	.st15{fill:#EED682;}
	.st16{fill:#C4A944;}
	.st17{fill:#E4CB79;}
	.st18{fill:#DDC86E;}
</style>
<g>
	<path vector-effect="non-scaling-stroke" class="st0" d="M839.1,229.6c5.9,0,11.8-0.1,17.7-0.3c1.2,0,2-0.2,2.4-0.5
		c0.8-0.5,1.1-1.4,0.8-2.7c-0.3-1.6-1.2-2.3-2.7-2.4l-17.9-0.2c-0.5,0-0.9-0.4-0.9-0.9c0-9.4,0-18.8,0-28.1c0-3.8,0.8-8.5,2.5-14
		c2.2-7.1,6.9-11.5,14.2-13.1c1.4-0.3,2.1-1.2,2-2.6c-0.1-2.7-1.6-3.8-4.5-3.3c-2.1,0.4-4.3,1.2-6.6,2.6c-1.9,1.2-3.7,2.7-5.3,4.5
		c-5.8,6.6-8.8,14.7-9.2,24.4c-0.3,9.5-0.4,15.5-0.2,18c0.3,4.9,0.3,8.9-0.1,11.8c0,0.3-0.3,0.5-0.6,0.5l-10,0.4
		c-0.3,0-0.6,0.1-0.9,0.4c-1.8,1.5-2,2.8-0.8,4c0.7,0.7,1.8,1.1,3.2,1.2c2.9,0.2,5.7,0.3,8.5,0.2c0.5,0,0.9,0.4,1,0.9c0,0,0,0,0,0.1
		c-0.4,23.3-0.4,46.2-0.1,68.8c0,1.3,0.2,2.2,0.7,2.8c0.7,1,1.7,1.4,3,1.3c1.2-0.2,2-0.7,2.5-1.8c0.4-0.9,0.6-2,0.6-3.3
		c0-22.7,0-45.5,0.1-68.2C838.6,229.8,838.8,229.6,839.1,229.6C839.1,229.6,839.1,229.6,839.1,229.6"/>
	<path vector-effect="non-scaling-stroke" class="st1" d="M204.2,256.5l-30.4,38.7c-0.2,0.3-0.3,0.6-0.1,0.9
		c0.4,0.7,0.9,0.8,1.6,0.5c0.3-0.2,0.7-0.6,1.2-1.1c8.2-10.6,16.5-21.1,24.8-31.5c1.2-1.5,2.2-3,3.2-4.6"/>
	<path vector-effect="non-scaling-stroke" class="st2" d="M204.5,259.2l0.2,0.1"/>
	<path vector-effect="non-scaling-stroke" class="st0" d="M204.8,259.3c-0.4,12.7-0.4,25.3,0,38c0.1,1.8,1,2.7,2.8,2.7
		c14.4,0.4,28.7,0.4,43.1,0c1.1,0,2-0.3,2.6-0.8c1.1-0.9,1.3-1.9,0.8-3.1c-0.5-1-1.4-1.6-2.8-1.8c-1.1-0.2-2.5-0.2-4.2-0.2
		c-11.8,0.1-23.5,0-35.3-0.2c-0.2,0-0.4-0.2-0.4-0.4l0.4-42.8"/>
	<path vector-effect="non-scaling-stroke" class="st1" d="M211.8,250.8c18.3-23.5,36.8-46.9,55.4-70.2c0.4-0.5,0.7-1,0.8-1.4
		c0.1-0.7-0.1-1.2-0.7-1.6c-0.2-0.2-0.6-0.1-0.7,0.2l-55,70"/>
	<path vector-effect="non-scaling-stroke" class="st2" d="M211.5,247.8l-0.2,0"/>
	<path vector-effect="non-scaling-stroke" class="st0" d="M211.2,247.7c0.4-23,0.4-46-0.1-69c-0.1-3.2-1.5-4.3-4.2-3.3
		c-1.4,0.5-2.2,1.5-2.2,3.1c-0.3,24.6-0.3,49.2-0.2,73.8c0,1.9-0.1,3.3-0.2,4.2"/>
	<path vector-effect="non-scaling-stroke" class="st3" d="M211.2,247.7l-6,8.6"/>
	<path vector-effect="non-scaling-stroke" class="st4" d="M205.2,256.3c-0.4-0.1-0.7,0-1,0.2"/>
	<path vector-effect="non-scaling-stroke" class="st3" d="M210.8,251l-6,8.3"/>
	<path vector-effect="non-scaling-stroke" class="st5" d="M204.5,259.2l0.8-2.9"/>
	<path vector-effect="non-scaling-stroke" class="st4" d="M211.8,250.8c-0.3,0.2-0.6,0.2-1,0.2"/>
	<path vector-effect="non-scaling-stroke" class="st5" d="M210.8,251l0.7-3.2"/>
	<path vector-effect="non-scaling-stroke" class="st1" d="M410.5,253.2c-1,1.7-2,3.2-3.2,4.7c-9.7,12.1-19.3,24.2-28.9,36.5
		c-0.3,0.4-0.6,0.8-0.6,1.1c-0.3,1,0.3,1.3,1.6,0.9c0.3-0.1,0.6-0.3,0.8-0.6l30.4-38.6"/>
	<path vector-effect="non-scaling-stroke" class="st2" d="M410.5,257.2c0.2,0,0.3-0.1,0.5-0.2"/>
	<path vector-effect="non-scaling-stroke" class="st0" d="M411,257c0.1,0.3,0.1,0.7-0.1,1"/>
	<path vector-effect="non-scaling-stroke" class="st6" d="M410.8,258c-0.6,4.3-0.6,8.7-0.1,13"/>
	<path vector-effect="non-scaling-stroke" class="st0" d="M410.7,271l0.1,25.7c0,2.2,1.1,3.3,3.3,3.3c12.3,0.3,24.8,0.4,37.4,0.2
		c2.7,0,4.7-0.1,6.2-0.3c1-0.1,1.7-0.5,2.2-1.1c0.7-0.9,0.9-1.8,0.3-2.8c-0.5-0.9-1.3-1.4-2.6-1.6c-1.2-0.2-2.6-0.2-4.4-0.2
		c-11.8,0.1-23.5,0-35.3-0.2c-0.2,0-0.4-0.2-0.4-0.4l0.4-45.1"/>
	<path vector-effect="non-scaling-stroke" class="st1" d="M418,248.5c0.1-0.7,0.5-1.4,1.1-2.2c17.4-21.9,34.9-44.1,52.5-66.4
		c0.2-0.3,0.3-0.6,0.3-0.9c-0.2-1.8-0.7-2.1-1.6-1c-17.5,22-35,44.1-52.2,66.3"/>
	<path vector-effect="non-scaling-stroke" class="st2" d="M418,244.3l-0.5,0.2"/>
	<path vector-effect="non-scaling-stroke" class="st0" d="M417.5,244.5c0.1-7,0.2-23.6,0.2-50c0-7.4-0.2-13.2-0.5-17.4
		c0-0.3-0.2-0.6-0.4-0.8c-1.8-1.5-3.4-1.6-4.7-0.2c-0.8,0.8-1.2,2.1-1.2,3.9c-0.3,21.4-0.4,42.8-0.4,64.1c0,3.1,0,6.2-0.1,9.2"/>
	<path vector-effect="non-scaling-stroke" class="st3" d="M417.5,244.5l-6,8.8"/>
	<path vector-effect="non-scaling-stroke" class="st4" d="M411.5,253.2c-0.4,0.1-0.7,0.1-1,0"/>
	<path vector-effect="non-scaling-stroke" class="st3" d="M417.2,248.2L411,257"/>
	<path vector-effect="non-scaling-stroke" class="st5" d="M410.5,257.2l1-4"/>
	<path vector-effect="non-scaling-stroke" class="st7" d="M410.7,271l0.1-13"/>
	<path vector-effect="non-scaling-stroke" class="st4" d="M418,248.5c-0.2-0.2-0.4-0.3-0.7-0.3"/>
	<path vector-effect="non-scaling-stroke" class="st5" d="M417.2,248.2l0.8-3.9"/>
	<path vector-effect="non-scaling-stroke" class="st2" d="M638,291.5l0,0.5"/>
	<path vector-effect="non-scaling-stroke" class="st1" d="M638,292l-2.5,3.4c-0.2,0.2-0.1,0.6,0.1,0.8c0.9,0.8,1.7,0.6,2.3-0.7
		c0.6-1.2,1.4-2,2.3-2.4"/>
	<path vector-effect="non-scaling-stroke" class="st0" d="M640.2,293c8.3,5.7,17.5,9,27.5,9.9c10.4,1,20.5-0.2,30.3-3.5
		c7.4-2.5,13.9-6.4,19.6-11.8c1.9-1.8,1.9-3.5,0-4.9c-1.2-0.9-2.3-0.9-3.4,0.3c-5.7,6.2-12.6,10.2-20.8,12c-9,2-17.5,2.7-25.6,1.9
		c-8.1-0.8-16.1-3.7-24-8.8"/>
	<path vector-effect="non-scaling-stroke" class="st1" d="M644,288.2c0.8-1.5,1.8-3,2.9-4.3c21.3-26.6,42.4-53.3,63.4-80.1
		c1.8-2.2,3.3-4.2,4.8-5.9c1.8-2.2,3.4-4.1,4.7-5.9c2.8-3.9,5.7-7.7,8.8-11.4c0.4-0.4,0.6-0.9,0.8-1.2c0.5-1.3,0.2-1.8-0.8-1.5
		c-0.4,0.1-0.8,0.4-1.2,0.9c-3.6,4.6-7.2,9.3-10.9,13.8"/>
	<path vector-effect="non-scaling-stroke" class="st2" d="M716.5,192.5h-0.2"/>
	<path vector-effect="non-scaling-stroke" class="st0" d="M716.3,192.5c-5-6.3-11.2-10.8-18.7-13.5c-12.6-4.6-25.1-5.3-37.5-2.1
		c-6.5,1.7-12.6,4.4-18.2,8.1c-9.9,6.6-17.2,15.4-21.8,26.3c-4.3,10.2-6.2,21.2-5.6,32.9c1,19.5,8.8,35.2,23.5,47.3"/>
	<path vector-effect="non-scaling-stroke" class="st3" d="M716.3,192.5L713,197"/>
	<path vector-effect="non-scaling-stroke" class="st4" d="M713,197l-0.2,0.1"/>
	<path vector-effect="non-scaling-stroke" class="st0" d="M712.8,197c-0.4-0.1-0.7-0.2-1-0.5c-5.6-6.5-12.4-10.9-20.2-13.1
		c-5.8-1.7-12.4-2.3-19.8-2.1c-11.7,0.5-21.9,4.4-30.7,11.9c-5.1,4.3-9.2,9.5-12.5,15.4c-3.9,7.1-6.2,14.8-7.1,23.1
		c-0.6,6.3-0.6,12.2,0,17.5c1.8,15,8.6,27.4,20.2,37.3"/>
	<path vector-effect="non-scaling-stroke" class="st3" d="M641.8,286.5c-0.7,2.1-2,3.7-3.8,5"/>
	<path vector-effect="non-scaling-stroke" class="st4" d="M644,288.2l-0.7,0"/>
	<path vector-effect="non-scaling-stroke" class="st5" d="M643.3,288.2l-1.1-1.8"/>
	<path vector-effect="non-scaling-stroke" class="st1" d="M642.2,286.5l70.5-89.5"/>
	<path vector-effect="non-scaling-stroke" class="st5" d="M713,197c2.2-0.6,3.4-2.1,3.5-4.5"/>
	<path vector-effect="non-scaling-stroke" class="st2" d="M642.2,286.5l-0.5,0"/>
	<path vector-effect="non-scaling-stroke" class="st5" d="M640.2,292.5L638,292"/>
	<path vector-effect="non-scaling-stroke" class="st4" d="M640.2,293c0.1-0.2,0.1-0.3,0-0.5"/>
	<path vector-effect="non-scaling-stroke" class="st3" d="M640.2,292.5l3.1-4.2"/>
	<path vector-effect="non-scaling-stroke" class="st0" d="M914.9,187.2c-3.6,4.4-7.1,8.9-10.6,13.4c-1.2,1.5-1.7,3-1.5,4.5
		c0,0.3,0.2,0.6,0.5,0.7c1.4,0.6,2.8,0.2,4.2-1.2c7-7.1,11.8-12.1,14.5-15.1c0.9-1,1.4-2,1.4-3c0-1.7-0.8-2.7-2.5-2.9
		c-1.2-0.2-2.3,0.1-3.4,1C916.7,185.2,915.8,186.1,914.9,187.2"/>
	<path vector-effect="non-scaling-stroke" class="st0" d="M323.4,259.3c-0.9,8.4-1.1,16.7-0.6,25.1c0.3,5.4,1.1,9.2,2.3,11.5
		c2,3.8,5.4,6.3,10.2,7.4c1.2,0.3,2.3,0.2,3.5-0.2c1.1-0.4,1.9-1.1,2.2-2.1c0.6-1.7-0.3-2.7-2.7-3c-2.2-0.3-4-1-5.4-2.2
		c-1.2-1-2-2.6-2.5-4.8c-0.5-2.5-0.8-5.3-0.9-8.2c-0.1-11.2,0.2-21.2,1-30c0.3-3.3,0.4-6.7,0.3-10c-0.1-6-2.4-10.8-7.1-14.5
		c-3.4-2.7-6.9-4.4-10.5-5c-10.9-2.1-21,0-30.4,6.3c-1.7,1.1-3.2,2.6-4.6,4.4c-1,1.4-1.4,2.8-1.2,4.3c0.1,0.8,0.5,1.5,1.1,2
		c0.7,0.6,1.5,0.8,2.4,0.6c0.8-0.1,1.6-0.8,2.4-2c1.9-3.1,3.7-5,5.1-5.9c6.9-4,14.1-5.3,21.7-4.1c3.2,0.5,5.7,1.2,7.3,2
		c2.5,1.2,4.3,3.1,5.6,5.6c1.8,3.6,2.1,7.6,0.9,11.9c-0.6,2.2-1.6,3.8-3,4.8c-2.9,2.1-6.6,3.9-11.1,5.3c-7.7,2.5-15.2,5.4-22.6,8.8
		c-3.6,1.7-6.6,3.5-8.9,5.5c-3,2.5-4.8,5.9-5.4,10.1c-0.6,4.4,0.1,8.2,2.2,11.5c1.8,2.9,4.6,5.2,8.5,6.9c7.3,3.2,14.8,2.6,22.3-2
		c3.3-2,6.2-4.6,8.8-7.9c0.8-1,1.2-2,1.1-3c-0.1-1.9-1-2.8-2.9-2.5c-1.1,0.1-2.2,0.8-3.2,2c-1,1.1-1.9,2.2-2.9,3.3
		c-4.8,5.3-10.8,7.3-18,5.9c-4.5-0.9-7.4-3.1-8.8-6.8c-1.7-4.6-1.3-8.6,1.2-11.9c1.5-2,4.5-4.2,8.8-6.4c5.5-2.7,11.2-4.9,17.1-6.4
		c1.9-0.5,7.3-2.7,16.2-6.7C323.3,258.9,323.4,259,323.4,259.3"/>
	<path vector-effect="non-scaling-stroke" class="st0" d="M529.6,259.3c-0.8,9.9-0.9,19.8,0,29.7c0.7,8.1,5,12.9,12.9,14.3
		c3.2,0.6,4.8-0.5,4.9-3.2c0-0.3-0.1-0.6-0.4-0.8c-1.2-0.8-2.8-1.4-5-1.8s-3.8-1.9-4.7-4.5c-0.7-2.1-1.2-4.3-1.3-6.5
		c-0.4-8.3-0.3-16.5,0.4-24.7c1-11.6,1.3-18.5,0.9-20.8c-1.4-8.3-5.8-13.8-13.3-16.4c-9.6-3.4-19.3-2.8-29.1,1.7
		c-3.6,1.6-6.7,3.9-9.4,6.7c-1.1,1.1-1.7,2.4-2,3.8c-0.3,1.5,0.1,2.6,1.1,3.5c1,0.9,2.2,1,3.5,0.2c0.6-0.4,1.2-1.1,2-2.4
		c3.1-4.8,7.6-7.7,13.4-8.8c4.8-0.9,9.5-0.9,14.3,0c9.3,1.6,13.6,7.3,12.6,16.9c-0.3,3.4-1.6,5.9-3.9,7.4c-4.2,2.8-9.5,5.1-15.9,6.8
		c-7,1.9-14.5,5.1-22.5,9.8c-6.7,3.8-9.8,9.3-9.2,16.3c0.3,4,1.7,7.4,4.2,10.3c2.7,3.1,6.1,5,10.3,5.9c8.8,1.8,16.5-0.4,23-6.6
		c1.8-1.7,2.9-2.8,3.3-3.2c1-1.1,1.9-2.4,2.6-3.8c0.1-0.3,0.1-0.6,0-0.9c-1.6-3.3-3.7-3.4-6.2-0.4c-1.9,2.2-3.9,4.3-6.2,6
		c-3.7,2.9-7.6,4.2-11.9,3.9c-4-0.3-7.2-1.6-9.7-4.1c-2.9-2.9-3.8-6.7-2.6-11.5c0.7-2.7,2.2-4.9,4.5-6.7c1-0.8,3.2-2,6.4-3.7
		c2.4-1.2,4.6-2.2,6.8-2.9c9.5-3,18.2-6.4,26-10c0.1-0.1,0.3,0,0.4,0.1C529.6,259.2,529.6,259.3,529.6,259.3"/>
	<path vector-effect="non-scaling-stroke" class="st0" d="M787.7,259c-0.5,8.2-0.5,16.4-0.2,24.7c0.2,5.9,1,9.9,2.1,12.2
		c2.1,4.1,5.9,6.6,11.4,7.4c3.5,0.5,5-0.6,4.4-3.3c-0.2-1.2-1-1.8-2.2-1.9c-3.9-0.3-6.6-2-7.9-5.1c-0.8-1.9-1.2-5.2-1.3-9.9
		c-0.1-9.8,0.2-19.6,0.9-29.4c0.5-7.1,0.5-11.8,0.1-14.2c-1.1-5.4-3.8-9.5-8.1-12.4c-4.8-3.2-11-4.7-18.6-4.3
		c-8.4,0.4-16.1,3.3-23.1,8.8c-2.2,1.7-3.4,4-3.6,6.8c0,0.3,0.1,0.7,0.3,0.9c1.9,2.6,3.7,2.5,5.6-0.2c3.8-5.5,8.7-8.8,14.8-9.8
		c5-0.9,9.9-0.7,14.9,0.3c8.3,1.8,12.2,7,11.8,15.6c-0.2,4.6-2.3,8-6.4,10.1c-3.9,2-7.7,3.6-11.3,4.6c-8.6,2.6-16.7,5.9-24.1,9.9
		c-6.3,3.4-9.7,8.2-10.1,14.5c-0.4,4.7,0.9,8.8,3.8,12.4c3,3.6,7.1,5.8,12.4,6.6c5.8,0.8,11.1-0.2,16.1-3.2
		c4.1-2.4,7.5-5.6,10.4-9.4c1.1-1.5,0.9-2.8-0.7-3.9c-1.8-1.3-3.5-0.9-5,1.1c-2.1,2.8-4.6,5.2-7.5,7.2c-3.7,2.4-7.6,3.4-11.7,2.9
		c-3.6-0.4-6.5-1.8-8.6-4c-2.4-2.6-3.3-5.9-2.6-10.2c0.7-4.2,2.8-7.3,6.3-9.2c6.9-3.8,14.5-6.8,22.7-9.1c3.4-0.9,8.2-3.1,14.5-6.5
		C787.5,258.6,787.7,258.7,787.7,259"/>
	<path vector-effect="non-scaling-stroke" class="st0" d="M882.6,254.6c10.2,6.1,21.7,9,34.4,8.7c5.5-0.1,10.5-1.1,15.1-3
		c5-2.1,8.5-5,10.5-8.6c1.7-3.2,2.2-6.6,1.4-10.3c-0.6-3.1-2.1-6.1-4.5-8.9c-3.9-4.7-9.1-7.7-15.5-9c-11.2-2.2-21.2-0.6-30.1,5
		c-4.6,2.9-8.6,6.6-11.8,11.2c-3.3,4.6-5.6,9.7-6.8,15.2c-2.9,13.1-0.4,24.5,7.4,34.2c3.5,4.3,7.4,7.6,12,9.9
		c4.7,2.4,9.9,3.8,15.4,4.2c6.6,0.4,13.7-0.4,21.2-2.4c5.7-1.5,10.4-4.2,14.1-7.9c1-1,1.6-1.9,1.8-2.6c0.3-1.3-0.2-2.4-1.6-3.2
		c-1-0.7-1.9-0.6-2.8,0.3c-3.6,3.6-7.6,6.2-12.3,7.8c-4,1.3-8.7,2.1-14,2.3c-3.9,0.2-7.8-0.2-11.6-1.2c-3.9-1-7.4-2.5-10.5-4.7
		c-8.8-6.1-13.3-15-13.4-26.8c0-3.4,0.4-6.7,1.1-10c0-0.2,0.2-0.3,0.4-0.3C882.5,254.5,882.6,254.5,882.6,254.6"/>
	<path vector-effect="non-scaling-stroke" class="st6" d="M997.6,360.9c2.4-0.2,4.4-0.8,6.2-1.7c0.3-0.2,0.5-0.4,0.5-0.8
		c0.1-1.2-0.6-1.6-2-0.9c-1.9,0.8-3.5,1.7-4.8,2.8C996.8,360.8,996.9,360.9,997.6,360.9"/>
	<path vector-effect="non-scaling-stroke" class="st6" d="M423.7,384.1c3.4,0.7,6.7,0,10-2.2c0.1-0.1,0.2-0.2,0.3-0.2
		c0.6-0.7,0.4-0.8-0.5-0.2c-3.1,1.8-6.1,2.3-9.2,1.5c-2.5-0.6-4.3-2-5.4-4.2c-1-2-1.4-4.4-1.3-7.3c0.2-4.6,2.2-7.4,6.1-8.4
		c4.2-1.1,7.4,0.2,9.7,4c0.2,0.3,0.3,0.3,0.4,0c0.2-0.8,0.2-1.5,0-2.2c-0.3-0.7-0.8-1.2-1.7-1.7c-2.7-1.3-5.5-1.7-8.4-1.2
		c-4.2,0.8-6.9,3.3-8.1,7.5c-1.1,3.7-0.8,7,0.9,9.7C418,381.9,420.4,383.5,423.7,384.1"/>
	<path vector-effect="non-scaling-stroke" class="st8" d="M139.4,382.8c-0.7-0.1-1.2-0.7-1.2-1.4l-0.1-17.5c0-0.3,0.2-0.6,0.5-0.6
		c2.9-0.7,5.2,0.1,6.8,2.5c0.2,0.3,0.3,0.3,0.4,0c0.3-1,0.3-2,0-3c-0.1-0.3-0.4-0.5-0.7-0.5l-15.7-0.2c-0.5,0-0.9,0.3-0.9,0.8
		l-0.2,2.9c0,0.5,0.1,0.6,0.4,0c1-1.8,3-2.6,6-2.5c0.6,0,1.1,0.5,1.1,1.1c0.1,4.8,0.1,9.3,0,13.7c0,0,0,0.8,0.1,2.3c0.1,2-0.9,3-3,3
		c-0.3,0-0.3,0,0,0.1c2.3,0.5,4.5,0.6,6.8,0.3C142,383.6,141.9,383.2,139.4,382.8"/>
	<path vector-effect="non-scaling-stroke" class="st6" d="M187.2,374.6c0.1,1.7,0.1,3.3,0.1,5c0,0.1,0,0.5,0.1,1.4
		c0.1,1-0.3,1.8-1.2,2.3c-0.3,0.2-0.3,0.3,0,0.4c1.5,0.5,3.2,0.4,5.1-0.1c0.5-0.1,0.5-0.3,0-0.4c-1.1-0.2-1.6-1-1.6-2.2
		c0-5.3,0.1-10.7,0.1-16c0-1.2,0.6-1.9,1.8-2.2c0.9-0.2,0.9-0.4,0-0.5c-2-0.3-3.9-0.4-5.9-0.2c-2.2,0.1-2,0.4,0.6,0.9
		c0.5,0.1,0.9,0.5,0.9,1v8c0,0.5-0.4,0.9-0.9,0.9h-10.9c-0.3,0-0.5-0.2-0.5-0.4c0,0,0,0,0,0l0.3-8.1c0-0.3,0.2-0.6,0.5-0.8l1.4-0.8
		c0.3-0.2,0.3-0.3-0.1-0.4c-2.2-0.3-4.4-0.4-6.7-0.4c-0.6,0-0.9,0.1-1,0.3c0,0.2,0.3,0.4,0.7,0.5c0,0,0,0,0,0c1.4,0.2,2.2,1.2,2.3,3
		c0.3,7.3,0.3,12.6,0,16c-0.1,0.8-0.4,1.4-1.1,1.7c-0.9,0.4-0.9,0.7,0.1,0.7c1.8,0.2,3.7,0.1,5.5-0.1c0.4-0.1,0.6-0.2,0.5-0.4
		c-0.1-0.1-0.3-0.2-0.5-0.2c-0.4-0.1-0.8-0.2-1.1-0.5c-0.3-0.2-0.4-0.5-0.5-1c-0.5-2.4-0.5-4.8-0.1-7.2c0.1-0.3,0.3-0.5,0.6-0.6
		c3.6-0.4,7.3-0.4,10.9,0C187,374,187.2,374.3,187.2,374.6"/>
	<path vector-effect="non-scaling-stroke" class="st6" d="M224.5,384l7.4,0c0.6,0,1.2-0.5,1.2-1.1c0.3-2.8,0-3.5-1-2
		c-0.4,0.6-1,1.1-1.7,1.4c-1.8,0.6-3.9,0.9-6.4,0.9"/>
	<path vector-effect="non-scaling-stroke" class="st6" d="M224,383.2c-1.5-3.3-1.8-6.6-1-10.2"/>
	<path vector-effect="non-scaling-stroke" class="st1" d="M223,373c0.7,0.8,1.9,0.9,3.7,0.5c0.4-0.1,0.8,0.1,1.1,0.4
		c1.5,2.3,2.1,2.3,1.9,0c-0.1-0.9-0.1-1.7,0-2.6c0.2-1.9-0.4-1.7-1.8,0.6c-0.1,0.2-0.2,0.3-0.4,0.3l-4.4,0.5"/>
	<path vector-effect="non-scaling-stroke" class="st6" d="M223,372.8c-0.5-3-0.5-6,0-8.9c0-0.3,0.3-0.5,0.6-0.6c2.1-0.2,4,0,6,0.8
		c0.5,0.2,0.8,0.5,1.1,0.9c0.3,0.4,0.6,0.8,0.8,1.2c0.3,0.5,0.4,0.5,0.4,0l-0.2-3c0-0.6-0.6-1.1-1.3-1.1l-12.6,0.1
		c-0.6,0-0.6,0.1-0.2,0.4c0.3,0.2,0.9,0.4,1.7,0.6c0.5,0.1,0.9,0.5,0.9,1.1c0.4,5.9,0.4,12-0.1,18.3c0,0.5-0.4,0.9-0.9,0.9
		c-0.9,0-1.1,0.2-0.8,0.5c0.2,0.2,0.5,0.3,0.8,0.3l5.3,0"/>
	<path vector-effect="non-scaling-stroke" class="st9" d="M223,372.8v0.2"/>
	<path vector-effect="non-scaling-stroke" class="st10" d="M224,383.2c2.1,0.4,2.2,0.7,0.5,0.8"/>
	<path vector-effect="non-scaling-stroke" class="st6" d="M294.8,383.9c0.2,0,0.3,0,0.4-0.2c0.1-0.1,0-0.3-0.1-0.5
		c-0.1,0-0.1-0.1-0.2-0.1c-0.6-0.1-1.1-0.4-1.5-0.7c-0.3-0.2-0.4-0.5-0.4-0.8l-0.2-6.7c0-0.4,0.3-0.7,0.7-0.7c0.1,0,0.1,0,0.2,0
		c2.7,0.8,5,0.7,6.9-0.4c1.9-1.1,3-2.8,3.2-5.2c0.3-2.9-1.2-5-4.6-6.3c-1.7-0.6-5.1-0.8-10.3-0.6c-0.2,0-0.5,0-0.8,0
		c-0.6-0.1-0.9,0.1-0.8,0.4c0,0.2,0.3,0.4,0.7,0.5c0.6,0,1.2,0.3,1.6,0.6c0.2,0.2,0.4,0.5,0.4,0.8c0.6,5.1,0.7,10.3,0.3,15.5
		c0,0.1,0,0.6,0,1.6c0,1.2-0.6,1.9-1.8,2c-0.3,0-0.5,0.2-0.5,0.4c0,0,0,0.1,0,0.1c0.1,0.2,0.3,0.3,0.7,0.3c0.5-0.1,0.8-0.1,0.9-0.1
		c1.4,0.1,2.9,0,4.3-0.2C294.1,383.9,294.3,383.9,294.8,383.9"/>
	<path vector-effect="non-scaling-stroke" class="st6" d="M338.5,384.4c6.1-0.3,10.7-5.7,10.4-11.9c-0.3-6.3-5.5-11.1-11.6-10.7
		c-6.1,0.3-10.7,5.7-10.4,11.9C327.3,379.9,332.5,384.7,338.5,384.4C338.5,384.4,338.5,384.4,338.5,384.4"/>
	<path vector-effect="non-scaling-stroke" class="st6" d="M378.8,373.4c1.7,0.3,3.1,1.3,4.1,2.9c1.5,2.3,2.5,4,2.9,5
		c1.1,2.4,3.1,3.2,6.2,2.2c0.5-0.2,0.5-0.3,0-0.4c-0.8-0.1-1.5-0.4-2.1-0.8c-0.5-0.3-1-0.9-1.4-1.7c-1.3-2.3-3-4.7-4.9-7.1
		c-0.1-0.2-0.1-0.4,0.1-0.5c0,0,0.1-0.1,0.1-0.1c1.4-0.4,2.5-1.2,3.3-2.3c0.7-1.1,1-2.3,0.8-3.6c-0.3-2.6-2-4.1-5.2-4.5
		c-3.6-0.5-6.6-0.6-9-0.3c-0.3,0-0.3,0.1,0,0.3c1.6,0.8,2.4,2.2,2.3,4.1c-0.1,1.2-0.1,1.8-0.1,1.8c0.1,4.6,0,9.2-0.3,13.8
		c0,0.5-0.4,0.9-0.9,1c-0.8,0.1-1,0.3-0.5,0.6c0.1,0.1,0.3,0.1,0.5,0.1c1.8,0.1,3.6,0.1,5.4-0.2c1-0.2,1-0.3,0-0.5
		c-1.3-0.2-1.9-1-1.8-2.2c0.1-2.4,0.1-4.8-0.1-7.2c0-0.2,0.1-0.4,0.3-0.4C378.7,373.4,378.8,373.4,378.8,373.4"/>
	<path vector-effect="non-scaling-stroke" class="st6" d="M493.5,373.4c1.8,0.4,3.2,1.3,4.2,2.9c1.4,2.3,2.3,3.9,2.7,4.8
		c1.2,2.7,3.4,3.6,6.4,2.8c0.5-0.1,0.6-0.3,0.4-0.5c-0.1-0.1-0.2-0.1-0.4-0.1c-1.4-0.1-2.4-0.6-3-1.5c-1.4-2.5-3.3-5.2-5.5-8
		c-0.2-0.2-0.1-0.5,0.1-0.6c0,0,0.1-0.1,0.1-0.1c1.1-0.4,2-1,2.7-1.7c0.8-0.7,1.2-1.6,1.5-2.7c0.4-2-0.1-3.6-1.5-4.8
		c-0.9-0.8-2.3-1.3-4.2-1.6c-2.9-0.4-5.8-0.5-8.7-0.3c-0.8,0.1-0.9,0.2-0.2,0.4l1.4,0.5c0.5,0.2,0.9,0.6,0.9,1.1
		c0.4,6.1,0.5,11.9,0.1,17.4c0,0.6-0.2,1.1-0.6,1.4c-0.4,0.4-0.9,0.6-1.4,0.7c-0.3,0-0.3,0.1,0,0.2c2.2,0.6,4.4,0.6,6.5,0
		c0.3-0.1,0.3-0.2,0-0.3c-0.5-0.2-0.9-0.4-1.3-0.8c-0.4-0.4-0.6-0.9-0.7-1.7c-0.3-2.4-0.3-4.7-0.1-7
		C493,373.6,493.3,373.4,493.5,373.4C493.5,373.4,493.5,373.4,493.5,373.4"/>
	<path vector-effect="non-scaling-stroke" class="st6" d="M541.1,384.4c6.1-0.5,10.5-6,10-12.2c-0.5-6.2-5.9-10.9-11.9-10.4l0,0
		c-6.1,0.5-10.5,6-10,12.2S535,384.9,541.1,384.4L541.1,384.4"/>
	<path vector-effect="non-scaling-stroke" class="st6" d="M578.7,372.3c2,1.1,3.8,2.4,5.5,3.9c1,0.9,1.5,1.8,1.7,2.8
		c0.2,1.4-0.2,2.6-1.2,3.4c-1.1,0.8-2.4,1.2-4.1,1c-2.7-0.3-4.2-1.9-4.3-4.7c-0.1-1.6-0.3-1.7-0.8-0.1c-0.4,1.3-0.4,2.5-0.1,3.7
		c0.1,0.3,0.3,0.6,0.6,0.7c3.1,1.8,6.2,1.9,9.1,0.4c1.3-0.7,2.2-1.6,2.7-2.8c0.6-1.4,0.6-2.8,0-4.2c-0.4-1-1.4-2-2.8-3
		c-1.8-1.3-3-2-3.5-2.3c-1.5-0.6-2.6-1.5-3.3-2.8c-0.6-1-0.7-2-0.3-3c0.4-1.2,1.3-1.9,2.7-2.2c2-0.4,3.5,0.2,4.7,1.8
		c0.2,0.3,0.3,0.6,0.4,1.1c0.8,3.7,1.3,3.4,1.6-1c0.1-0.8-0.4-1.6-1.2-1.9c-3-1.2-5.6-1.2-7.8,0c-1.7,1-2.7,2.4-2.7,4.3
		C575.4,369.3,576.5,371,578.7,372.3"/>
	<path vector-effect="non-scaling-stroke" class="st8" d="M616.5,384c2.8,0,5.7,0.1,8.5,0c0,0,0.5,0,1.5,0.1c1.9,0.1,2.7-1,2.1-3.5
		c-0.2-1.1-0.5-1.1-0.7,0c-0.1,0.6-0.6,1.1-1.4,1.5c-2.2,1-4.7,1.3-7.5,0.8"/>
	<path vector-effect="non-scaling-stroke" class="st8" d="M619.1,382.9c-0.7-3.1-0.8-6.2-0.5-9.4"/>
	<path vector-effect="non-scaling-stroke" class="st8" d="M618.5,373.5l4.3,0.2c0.6,0,1.2,0.5,1.3,1c0.2,0.8,0.4,1.4,0.6,1.6
		c0.3,0.2,0.4,0.1,0.4-0.4v-5.9c0-0.2-0.1-0.5-0.3-0.5c0,0-0.1,0-0.1,0c-0.3,0.2-0.5,0.6-0.4,1.4c0,0.7-0.4,1.2-1,1.3l-4.7,0.5"/>
	<path vector-effect="non-scaling-stroke" class="st8" d="M618.5,372.8c0-2.3-0.1-4.6,0-6.8c0-0.1,0-0.5-0.1-1.3
		c-0.1-1.3,0.4-1.8,1.6-1.6c1.1,0.2,1.8,0.3,2.1,0.3c2.2,0.2,3.9,1.1,5.1,2.8c0.2,0.3,0.4,0.3,0.4-0.1l0-3.2c0-0.3-0.3-0.5-0.6-0.5
		c-4.3-0.4-8.7-0.4-13-0.1c-0.7,0.1-0.9,0.2-0.4,0.5l1.5,0.8c0.5,0.2,0.7,0.6,0.8,1.1c0.4,5.6,0.4,11.2,0,16.8
		c0,0.6-0.2,1.1-0.5,1.4c-0.3,0.4-0.8,0.7-1.3,0.8c-0.3,0.1-0.3,0.2,0,0.3c0.8,0.3,1.7,0.4,2.5,0.2"/>
	<path vector-effect="non-scaling-stroke" class="st11" d="M618.5,372.8c-0.1,0.3-0.1,0.5,0,0.8"/>
	<path vector-effect="non-scaling-stroke" class="st11" d="M619.1,382.9c-0.2,0.8-1.1,1.2-2.6,1.1"/>
	<path vector-effect="non-scaling-stroke" class="st8" d="M688.2,383.9l9.2,0.1c0.4,0,0.7-0.1,0.8-0.4c0.5-0.7,0.6-2,0-3.7
		c-0.1-0.5-0.2-0.5-0.3,0c-0.2,1.2-0.8,2-2,2.4c-1.7,0.6-3.9,0.9-6.4,0.9"/>
	<path vector-effect="non-scaling-stroke" class="st8" d="M689.6,383.2c-1.3-3.1-1.7-6.3-1.1-9.7"/>
	<path vector-effect="non-scaling-stroke" class="st8" d="M688.5,373.5l4.3,0.2c0.6,0,1.1,0.5,1.2,1c0.2,1,0.4,1.5,0.7,1.6
		c0.2,0.1,0.3-0.1,0.4-0.4c0-0.1,0-0.1,0-0.2l-0.1-5.7c0-0.5-0.1-0.6-0.4-0.4c-0.3,0.2-0.5,0.8-0.6,1.7c-0.1,0.6-0.6,1-1.2,1.1
		l-4.3,0.3"/>
	<path vector-effect="non-scaling-stroke" class="st8" d="M688.5,372.8l0-8.9c0-0.3,0.2-0.5,0.5-0.6c2.3-0.3,4.5,0.1,6.6,1.2
		c0.3,0.1,0.5,0.4,0.7,0.7c1.3,2,1.7,1.8,1.3-0.6c0-0.3,0-0.6,0.1-0.9c0.1-0.4,0.1-0.8-0.2-1.1c-0.2-0.2-0.5-0.4-0.8-0.4
		c-4.3-0.1-8.6,0-12.9,0c-0.5,0-0.6,0.1-0.5,0.4c0.1,0.2,0.3,0.3,0.6,0.3c1.2,0.1,1.8,0.6,1.9,1.5c0.5,4.3,0.4,10.2-0.2,17.7
		c-0.1,0.7-0.5,1.1-1.4,1.4c-0.9,0.3-0.9,0.5,0,0.5c1.5,0.2,2.8,0.2,4,0"/>
	<path vector-effect="non-scaling-stroke" class="st11" d="M688.5,372.8c-0.1,0.3-0.1,0.5,0,0.8"/>
	<path vector-effect="non-scaling-stroke" class="st11" d="M689.6,383.2c3,0.5,2.6,0.7-1.3,0.7"/>
	<path vector-effect="non-scaling-stroke" class="st2" d="M726.5,366.8c0.3,4.9,0.2,9.8-0.3,14.7c-0.1,0.6-0.2,1-0.6,1.3
		c-0.4,0.4-0.9,0.6-1.4,0.7c-0.3,0.1-0.3,0.1,0,0.2c2.1,0.4,4.1,0.4,6.2-0.1c0.3-0.1,0.3-0.1,0-0.1c-0.8-0.1-1.5-0.4-1.9-0.9
		c-0.4-0.4-0.6-1.2-0.6-2.3c-0.1-4.6-0.2-9.2-0.2-13.8"/>
	<path vector-effect="non-scaling-stroke" class="st6" d="M727.8,366.5c4.6,5.3,9,10.7,13.3,16.2c1.8,2.4,2.6,1.9,2.2-1.5
		c-0.3-2.3-0.2-7.7,0.2-16.2c0-0.7,0.2-1.2,0.5-1.5c0.4-0.4,0.9-0.7,1.6-0.8c1.2-0.2,1.2-0.3,0-0.5c-1.9-0.3-3.9-0.2-5.8,0.1
		c-0.3,0.1-0.3,0.1,0,0.2c0.8,0.3,1.4,0.7,1.9,1.3c0.2,0.2,0.3,0.5,0.3,0.9l0.3,13.5c0,1.8-0.5,2-1.5,0.5
		c-4.1-5.4-8.4-10.8-12.9-16.1c-0.6-0.7-1.5-0.9-2.9-0.8c-0.2,0-0.5,0-0.8,0c-0.4-0.1-0.7,0-0.8,0.3c-0.1,0.2,0.1,0.4,0.3,0.5
		c0,0,0.1,0,0.1,0c2.1,0.3,3,1.6,2.7,4"/>
	<path vector-effect="non-scaling-stroke" class="st12" d="M727.8,366.5l-1.2,0.2"/>
	<path vector-effect="non-scaling-stroke" class="st6" d="M787.7,364.6c0.7,0.9,1.3,1.9,1.8,2.8c0.2,0.3,0.3,0.3,0.3-0.1
		c0.3-1.7,0.1-2.9-0.7-3.6c-0.4-0.4-1.4-0.8-3-1.2c-1.9-0.5-3.8-0.7-5.7-0.5c-1.9,0.2-3.6,0.9-5.2,2c-3.8,2.8-5.1,6.9-3.8,12.3
		c1.2,4.8,4.4,7.5,9.6,8c3.7,0.3,6.8-0.6,9.1-2.9c0.3-0.2,0.2-0.3-0.1-0.1c-2.5,1.1-4.9,1.8-7.3,2c-2.2,0.2-4-0.2-5.5-1.4
		c-1.3-1-2.3-2.4-3-4.4c-1.1-3.3-0.9-6.7,0.6-10.2c1.2-2.7,3.2-4.2,6-4.3c1.1-0.1,2.2,0,3.4,0.1C786,363.2,787.1,363.7,787.7,364.6"
		/>
	<path vector-effect="non-scaling-stroke" class="st6" d="M832,373.8c0.3,1.4,0.5,2.8,0.4,4.3c0,0.1,0,0.9,0.1,2.5
		c0,1.3-0.5,2.3-1.7,2.9c-0.3,0.1-0.3,0.2,0,0.4c1.4,0.4,2.7,0.5,4.1,0.2c0.3-0.1,0.5-0.1,0.8-0.1c1.6,0.1,1.5-0.3-0.1-1.3
		c-0.5-0.3-0.8-0.8-0.8-1.4c0-5.1,0-10.3,0-15.6c0-0.8,0.2-1.4,0.5-1.8c0.4-0.5,1-0.9,1.7-1.1c0.3-0.1,0.3-0.2,0-0.2
		c-2-0.5-4.1-0.7-6.3-0.5c-1.7,0.1-1.3,0.7,1,1.9c0.3,0.1,0.5,0.4,0.5,0.8l0,8.3"/>
	<path vector-effect="non-scaling-stroke" class="st6" d="M832.2,372.8l-11.5-0.2c-0.3,0-0.5-0.2-0.5-0.5c-0.3-2.3-0.2-5.1,0.3-8.2
		c0.1-0.5,0.5-0.9,1-1c1-0.1,1.4-0.3,1.4-0.6c-0.1-0.2-0.3-0.3-0.8-0.3c-2.2,0-4.4,0-6.5,0.1c-0.5,0-0.6,0.1-0.5,0.4
		c0.1,0.2,0.3,0.3,0.6,0.3c1.2,0.1,1.8,0.7,1.9,1.7c0.5,4.5,0.5,10.1,0.2,16.8c-0.1,1-0.6,1.7-1.7,2.1c-0.5,0.2-0.4,0.3,0,0.4
		c1.9,0.4,4,0.3,6.3-0.2c0.4-0.1,0.4-0.2,0-0.3c-1.5-0.4-2.2-1.2-2.2-2.3c-0.1-2-0.1-4.1-0.1-6.4c0-0.5,0.4-0.9,0.9-0.9c0,0,0,0,0,0
		l11.1,0"/>
	<path vector-effect="non-scaling-stroke" class="st10" d="M832.2,372.8l-0.2,1"/>
	<path vector-effect="non-scaling-stroke" class="st6" d="M862.5,382.5c-0.2,0.4-0.5,0.6-0.9,0.7c-1.5,0.2-1.7,0.4-0.6,0.4
		c1.3,0.1,2.6,0.2,3.9,0.2c0.7,0,0.7-0.3,0-1c-0.3-0.3-0.4-0.6-0.3-0.9l1.2-4.1c0.1-0.3,0.4-0.5,0.7-0.5l7.9,0
		c0.3,0,0.6,0.2,0.7,0.5l1.5,4.4c0.1,0.3-0.1,0.7-0.5,0.9c-2.3,0.9-2.1,1.3,0.6,1.2c1.4,0,2.8-0.2,4.2-0.4c1.2-0.2,1.2-0.5,0-0.8
		c-0.8-0.2-1.4-0.8-1.8-1.8c-2.3-5.8-4.5-11.9-6.7-18.1c-0.2-0.6-0.7-1-1.3-1.1c-4.2-0.4-5,0-2.6,1.5c0.3,0.2,0.4,0.5,0.3,0.7
		C867.3,370.6,865.2,376.7,862.5,382.5"/>
	<path vector-effect="non-scaling-stroke" class="st2" d="M907.3,366.8c0.1,4.8,0,9.6-0.2,14.4c0,0.7-0.2,1.3-0.6,1.6
		c-0.4,0.4-1,0.7-1.7,0.8c-0.3,0-0.3,0.1,0,0.1c1.9,0.5,3.8,0.5,5.7-0.1c0.3-0.1,0.3-0.2,0-0.3c-1.2-0.3-1.7-0.9-1.7-1.8
		c0.1-5,0-10-0.2-15"/>
	<path vector-effect="non-scaling-stroke" class="st6" d="M908.5,366.5c0.3,0,0.6,0.3,1.1,0.9c4.2,5.3,8.5,10.7,12.9,16
		c1,1.2,1.5,1,1.5-0.5c0-5.8,0.1-11.7,0.2-17.9c0-1.6,0.9-2.3,2.7-2.3c0.2,0,0.3,0,0.4-0.1c0.2-0.1,0.2-0.2,0-0.3
		c-0.3-0.1-0.7-0.2-1.1-0.2c-6-0.1-7.5,0.2-4.6,1.1c0.7,0.2,1.3,0.9,1.2,1.6l-0.1,14.6c0,0.7-0.2,0.8-0.7,0.2
		c-3.8-5-7.7-9.8-11.7-14.6c0,0-0.3-0.4-0.8-1.2c-0.7-1.1-2-1.7-3.7-1.8c-0.6,0-1.1,0-1.3,0.2c-0.3,0.2-0.1,0.4,0.3,0.5
		c1.9,0.4,2.7,1.8,2.2,4"/>
	<path vector-effect="non-scaling-stroke" class="st12" d="M908.5,366.5c-0.7-0.1-1.1,0-1.2,0.2"/>
	<path vector-effect="non-scaling-stroke" class="st6" d="M958.4,364.3l-0.2,17.5c0,1.2-0.8,1.7-2.5,1.5c-0.6-0.1-0.8,0-0.7,0.2
		c0.1,0.2,0.3,0.3,0.6,0.3c2.5,0.2,4.9,0.2,7.4,0c1.3-0.1,0.8-0.4-1.5-0.9c-0.4-0.1-0.7-0.5-0.8-0.9v-18.2c0-0.5,0.4-0.9,0.9-0.9
		c0,0,0,0,0.1,0c2,0.1,3.6,0.6,5.1,1.4c0.3,0.1,0.5,0.4,0.7,0.7c1.2,2.3,1.5,1.5,0.9-2.4c-0.1-0.4-0.4-0.6-0.7-0.6l-16.6,0.1
		c-0.3,0-0.5,0.2-0.5,0.5l-0.2,3.4c0,0.6,0.1,0.7,0.5,0.2c1.7-2.1,3.8-3.1,6.3-3.2C957.9,363,958.4,363.6,958.4,364.3
		C958.4,364.3,958.4,364.3,958.4,364.3"/>
	<path vector-effect="non-scaling-stroke" class="st8" d="M997.8,373.2c0.8,0.4,1.9,0.5,3.5,0.5c1.3,0,1.9,0.6,2,1.9
		c0,0.3,0.1,0.5,0.2,0.7c0.3,0.4,0.5,0.2,0.5-0.5c0-1.9,0-3.8,0.2-5.7c0-0.2-0.1-0.4-0.3-0.5c-0.1,0-0.1,0-0.2,0
		c-0.3,0.1-0.5,0.5-0.5,1.1c0,0.7-0.4,1.3-1.1,1.4l-4.4,0.9"/>
	<path vector-effect="non-scaling-stroke" class="st8" d="M997.8,373l-0.4-9.1c0-0.3,0.2-0.6,0.5-0.7c0.8-0.2,1.5-0.3,2.3-0.2
		c1,0.1,1.9,0.3,2.7,0.4c1.3,0.3,2.4,1,3.1,2.3c0.2,0.3,0.3,0.3,0.4,0c0.3-1,0.3-2,0-3c-0.1-0.3-0.4-0.5-0.6-0.5l-11-0.1
		c-0.3,0-0.6-0.1-0.9-0.2c-0.5-0.2-0.9-0.1-1.1,0.2c-0.1,0.2,0,0.4,0.2,0.5c0,0,0.1,0,0.1,0c1.1,0.2,1.6,0.7,1.7,1.5
		c0.4,5.9,0.4,11.8,0,17.7c0,0.3-0.2,0.6-0.5,0.7c-0.6,0.3-1,0.5-1.2,0.7c-0.3,0.3-0.2,0.4,0.5,0.5c3.2,0.2,6.5,0.3,9.7,0.2
		c0.1,0,0.7,0,2,0.1c2.4,0.1,3.2-1.2,2.6-3.8c-0.1-0.3-0.2-0.4-0.5-0.1c-2.3,2.7-5.1,3.6-8.4,2.8c-0.9-0.2-1.5-0.9-1.4-1.7l0.2-8"/>
	<path vector-effect="non-scaling-stroke" class="st11" d="M997.8,373v0.2"/>
	<path vector-effect="non-scaling-stroke" class="st0" d="M903.4,256.1c7.6,1.3,14.4,1.4,20.3,0.4c4.9-0.9,8.6-2.4,11-4.5
		c3.1-2.9,4.2-6.2,3.1-9.9c-1.7-5.9-5.8-9.8-12.2-11.8c-6.1-1.8-12.2-2-18.5-0.6c-10.2,2.3-17.5,8-22,17c-0.4,0.7-0.1,1.6,0.5,2.1
		C891.1,252.5,897,255,903.4,256.1"/>
	<path vector-effect="non-scaling-stroke" class="st6" d="M293.5,373.3c4.8,1.4,7.4,0.1,7.8-3.9c0.2-2.1-0.4-3.8-1.7-4.8
		c-1.3-1.1-3.2-1.6-5.6-1.6c-0.7,0-1.2,0.6-1.2,1.2l0,8.2C292.8,372.9,293.1,373.2,293.5,373.3"/>
	<path vector-effect="non-scaling-stroke" class="st6" d="M338.1,383.6c4.6-0.1,8.2-4.8,8-10.6c0,0,0,0,0,0
		c-0.1-5.7-3.9-10.3-8.5-10.2c-4.6,0.1-8.2,4.8-8,10.6v0C329.8,379.1,333.6,383.7,338.1,383.6"/>
	<path vector-effect="non-scaling-stroke" class="st6" d="M383.4,363.7c-1.5-0.7-3-0.9-4.5-0.5c-0.3,0.1-0.5,0.3-0.5,0.6l0.1,7.8
		c0,0.3,0.2,0.5,0.5,0.6c4.4,0.6,6.6-1.2,6.4-5.4C385.4,365.4,384.7,364.4,383.4,363.7"/>
	<path vector-effect="non-scaling-stroke" class="st6" d="M498.9,364.4c-1.4-0.9-3.1-1.4-4.8-1.4c-0.6,0-1.1,0.5-1.1,1c0,0,0,0,0,0
		l0,7.7c0,0.3,0.2,0.5,0.5,0.6c4.4,0.7,6.6-1.1,6.7-5.3C500.3,365.8,499.8,365,498.9,364.4"/>
	<path vector-effect="non-scaling-stroke" class="st6" d="M540.3,383.6c4.6-0.1,8.2-4.8,8.1-10.6s-3.9-10.3-8.4-10.3
		c-4.6,0.1-8.2,4.8-8.1,10.6S535.7,383.6,540.3,383.6"/>
	<path vector-effect="non-scaling-stroke" class="st13" d="M870.4,365l-3.7,10c-0.1,0.4,0.1,0.8,0.4,0.9c0.1,0,0.2,0,0.3,0h6.4
		c0.4,0,0.6-0.3,0.6-0.7c0-0.1,0-0.2,0-0.2l-3.7-10.1C870.6,364.7,870.5,364.7,870.4,365"/>
</g>
<path class="st14" d="M838.6,230.1c-0.1,22.7-0.1,45.5-0.1,68.2c0,1.3-0.2,2.5-0.6,3.3c-0.5,1-1.3,1.6-2.5,1.8
	c-1.3,0.2-2.3-0.3-3-1.3c-0.4-0.6-0.6-1.6-0.7-2.8c-0.4-22.6-0.4-45.5,0.1-68.8c0-0.5-0.4-0.9-0.9-1c0,0,0,0-0.1,0
	c-2.7,0.1-5.5,0-8.5-0.2c-1.5-0.1-2.6-0.5-3.2-1.2c-1.2-1.2-0.9-2.5,0.8-4c0.2-0.2,0.6-0.3,0.9-0.4l10-0.4c0.3,0,0.5-0.2,0.6-0.5
	c0.4-3,0.4-6.9,0.1-11.8c-0.2-2.5-0.1-8.5,0.2-18c0.3-9.7,3.4-17.8,9.2-24.4c1.6-1.9,3.4-3.4,5.3-4.5c2.2-1.3,4.4-2.2,6.6-2.6
	c2.9-0.5,4.4,0.6,4.5,3.3c0,1.4-0.6,2.3-2,2.6c-7.3,1.6-12,5.9-14.2,13.1c-1.7,5.5-2.5,10.2-2.5,14c0,9.3,0,18.7,0,28.1
	c0,0.5,0.4,0.9,0.9,0.9l17.9,0.2c1.5,0,2.4,0.8,2.7,2.4c0.2,1.3,0,2.2-0.8,2.7c-0.4,0.3-1.2,0.4-2.4,0.5c-5.9,0.2-11.8,0.3-17.7,0.3
	C838.8,229.6,838.6,229.8,838.6,230.1C838.6,230.1,838.6,230.1,838.6,230.1z"/>
<path class="st14" d="M211.2,247.7l-6,8.6c-0.4-0.1-0.7,0-1,0.2c0.2-0.9,0.3-2.3,0.2-4.2c-0.1-24.6,0-49.2,0.2-73.8
	c0-1.5,0.7-2.5,2.2-3.1c2.8-1,4.2,0.1,4.2,3.3C211.6,201.7,211.7,224.7,211.2,247.7z"/>
<path class="st14" d="M417.5,244.5l-6,8.8c-0.4,0.1-0.7,0.1-1,0c0.1-3.1,0.1-6.2,0.1-9.2c0-21.4,0.1-42.8,0.4-64.1
	c0-1.8,0.4-3,1.2-3.9c1.3-1.4,2.8-1.3,4.7,0.2c0.2,0.2,0.4,0.5,0.4,0.8c0.4,4.3,0.5,10.1,0.5,17.4
	C417.7,220.8,417.6,237.5,417.5,244.5z"/>
<path class="st14" d="M716.3,192.5L713,197l-0.2,0.1c-0.4-0.1-0.7-0.2-1-0.5c-5.6-6.5-12.4-10.9-20.2-13.1
	c-5.8-1.7-12.4-2.3-19.8-2.1c-11.7,0.5-21.9,4.4-30.7,11.9c-5.1,4.3-9.2,9.5-12.5,15.4c-3.9,7.1-6.2,14.8-7.1,23.1
	c-0.6,6.3-0.6,12.2,0,17.5c1.8,15,8.6,27.4,20.2,37.3c-0.7,2.1-2,3.7-3.8,5c-14.7-12.1-22.5-27.8-23.5-47.3
	c-0.6-11.7,1.2-22.7,5.6-32.9c4.6-11,11.9-19.8,21.8-26.3c5.6-3.7,11.7-6.4,18.2-8.1c12.4-3.2,24.9-2.5,37.5,2.1
	C705.1,181.7,711.3,186.2,716.3,192.5z"/>
<path class="st15" d="M211.8,250.8c-0.3,0.2-0.6,0.2-1,0.2l0.7-3.2l55-70c0.2-0.2,0.5-0.3,0.7-0.2c0.6,0.4,0.8,0.9,0.7,1.6
	c-0.1,0.4-0.3,0.9-0.8,1.4C248.6,203.9,230.1,227.3,211.8,250.8z"/>
<path class="st15" d="M418,248.5c-0.2-0.2-0.4-0.3-0.7-0.3l0.8-3.9c17.3-22.2,34.7-44.3,52.2-66.3c0.9-1.1,1.4-0.7,1.6,1
	c0,0.3-0.1,0.7-0.3,0.9c-17.6,22.3-35.1,44.4-52.5,66.4C418.5,247.1,418.1,247.8,418,248.5z"/>
<path class="st15" d="M644,288.2l-0.7,0l-1.1-1.8l70.5-89.5l0.2-0.1c2.2-0.6,3.4-2.1,3.5-4.5c3.7-4.6,7.3-9.2,10.9-13.8
	c0.4-0.5,0.7-0.7,1.2-0.9c1-0.3,1.3,0.2,0.8,1.5c-0.2,0.4-0.4,0.8-0.8,1.2c-3,3.7-6,7.5-8.8,11.4c-1.3,1.8-2.9,3.8-4.7,5.9
	c-1.4,1.7-3,3.6-4.8,5.9c-21,26.8-42.1,53.5-63.4,80.1C645.8,285.2,644.8,286.7,644,288.2z"/>
<path class="st14" d="M914.9,187.2c0.9-1.1,1.8-2,2.6-2.7c1-0.8,2.2-1.1,3.4-1c1.7,0.2,2.5,1.2,2.5,2.9c0,1-0.5,2-1.4,3
	c-2.7,2.9-7.5,8-14.5,15.1c-1.4,1.4-2.8,1.8-4.2,1.2c-0.3-0.1-0.5-0.4-0.5-0.7c-0.2-1.5,0.3-3,1.5-4.5
	C907.8,196.1,911.4,191.6,914.9,187.2z"/>
<path class="st16" d="M716.3,192.5h0.2c-0.1,2.4-1.3,3.9-3.5,4.5L716.3,192.5z"/>
<path class="st14" d="M323,259c-8.9,4-14.3,6.2-16.2,6.7c-6,1.5-11.7,3.7-17.1,6.4c-4.4,2.2-7.3,4.3-8.8,6.4
	c-2.5,3.3-2.9,7.3-1.2,11.9c1.3,3.7,4.3,5.9,8.8,6.8c7.2,1.4,13.2-0.6,18-5.9c1-1.1,2-2.2,2.9-3.3c1-1.2,2.1-1.9,3.2-2
	c1.9-0.3,2.8,0.6,2.9,2.5c0,1-0.3,2-1.1,3c-2.6,3.2-5.5,5.8-8.8,7.9c-7.5,4.6-14.9,5.2-22.3,2c-3.9-1.7-6.7-4-8.5-6.9
	c-2-3.3-2.8-7.1-2.2-11.5c0.6-4.2,2.4-7.5,5.4-10.1c2.4-2,5.3-3.8,8.9-5.5c7.3-3.4,14.9-6.4,22.6-8.8c4.5-1.4,8.2-3.2,11.1-5.3
	c1.4-1,2.4-2.7,3-4.8c1.2-4.3,0.9-8.3-0.9-11.9c-1.3-2.5-3.1-4.4-5.6-5.6c-1.7-0.8-4.1-1.5-7.3-2c-7.6-1.2-14.9,0.1-21.7,4.1
	c-1.5,0.9-3.2,2.8-5.1,5.9c-0.7,1.2-1.5,1.8-2.4,2c-0.9,0.1-1.7-0.1-2.4-0.6c-0.6-0.5-1-1.1-1.1-2c-0.2-1.5,0.2-2.9,1.2-4.3
	c1.4-1.8,2.9-3.3,4.6-4.4c9.4-6.3,19.5-8.4,30.4-6.3c3.6,0.7,7.1,2.4,10.5,5c4.6,3.7,7,8.5,7.1,14.5c0,3.3-0.1,6.7-0.3,10
	c-0.7,8.8-1,18.8-1,30c0,3,0.3,5.7,0.9,8.2c0.5,2.2,1.3,3.8,2.5,4.8c1.4,1.2,3.2,1.9,5.4,2.2c2.4,0.3,3.2,1.3,2.7,3
	c-0.4,1-1.1,1.7-2.2,2.1c-1.1,0.4-2.3,0.4-3.5,0.2c-4.8-1.1-8.2-3.6-10.2-7.4c-1.2-2.2-1.9-6.1-2.3-11.5c-0.5-8.4-0.3-16.7,0.6-25.1
	C323.4,259,323.3,258.9,323,259z"/>
<path class="st14" d="M529.2,259c-7.8,3.6-16.4,6.9-26,10c-2.2,0.7-4.5,1.7-6.8,2.9c-3.3,1.7-5.4,2.9-6.4,3.7
	c-2.3,1.8-3.8,4-4.5,6.7c-1.2,4.8-0.3,8.6,2.6,11.5c2.5,2.5,5.7,3.8,9.7,4.1c4.3,0.3,8.3-1,11.9-3.9c2.3-1.8,4.4-3.8,6.2-6
	c2.5-3,4.5-2.8,6.2,0.4c0.1,0.3,0.2,0.6,0,0.9c-0.7,1.4-1.5,2.7-2.6,3.8c-0.4,0.4-1.5,1.4-3.3,3.2c-6.5,6.1-14.2,8.3-23,6.6
	c-4.1-0.8-7.5-2.8-10.3-5.9c-2.5-2.9-3.9-6.3-4.2-10.3c-0.5-7,2.6-12.5,9.2-16.3c8-4.6,15.5-7.9,22.5-9.8c6.5-1.7,11.8-4,15.9-6.8
	c2.3-1.6,3.6-4,3.9-7.4c0.9-9.6-3.3-15.3-12.6-16.9c-4.8-0.8-9.6-0.8-14.3,0c-5.8,1-10.3,3.9-13.4,8.8c-0.8,1.2-1.5,2-2,2.4
	c-1.3,0.8-2.4,0.7-3.5-0.2c-1-0.9-1.4-2.1-1.1-3.5c0.3-1.4,0.9-2.7,2-3.8c2.7-2.8,5.8-5,9.4-6.7c9.8-4.5,19.5-5.1,29.1-1.7
	c7.5,2.6,11.9,8.1,13.3,16.4c0.4,2.2,0.1,9.1-0.9,20.8c-0.7,8.2-0.8,16.5-0.4,24.7c0.1,2.2,0.5,4.4,1.3,6.5c0.9,2.6,2.5,4.1,4.7,4.5
	s3.9,1,5,1.8c0.3,0.2,0.4,0.5,0.4,0.8c-0.1,2.7-1.8,3.8-4.9,3.2c-7.9-1.4-12.2-6.2-12.9-14.3c-0.8-9.9-0.8-19.8,0-29.7
	c0-0.2-0.1-0.3-0.3-0.3C529.3,259,529.3,259,529.2,259z"/>
<path class="st14" d="M787.2,258.8c-6.3,3.4-11.1,5.5-14.5,6.5c-8.2,2.2-15.8,5.3-22.7,9.1c-3.6,2-5.7,5-6.3,9.2
	c-0.7,4.2,0.2,7.6,2.6,10.2c2.1,2.2,5,3.5,8.6,4c4.1,0.5,8-0.5,11.7-2.9c2.9-1.9,5.4-4.3,7.5-7.2c1.5-2,3.1-2.4,5-1.1
	c1.6,1.1,1.8,2.4,0.7,3.9c-2.8,3.8-6.3,7-10.4,9.4c-4.9,3-10.3,4-16.1,3.2c-5.3-0.8-9.4-2.9-12.4-6.6c-2.9-3.5-4.2-7.6-3.8-12.4
	c0.5-6.2,3.9-11,10.1-14.5c7.4-4.1,15.4-7.4,24.1-9.9c3.6-1.1,7.4-2.6,11.3-4.6c4-2.1,6.2-5.5,6.4-10.1c0.4-8.6-3.6-13.8-11.8-15.6
	c-4.9-1.1-9.9-1.2-14.9-0.3c-6,1-11,4.3-14.8,9.8c-1.8,2.7-3.7,2.7-5.6,0.2c-0.2-0.3-0.3-0.6-0.3-0.9c0.2-2.8,1.3-5,3.6-6.8
	c7-5.5,14.7-8.4,23.1-8.8c7.5-0.3,13.7,1.1,18.6,4.3c4.3,2.9,7,7,8.1,12.4c0.5,2.4,0.5,7.1-0.1,14.2c-0.7,9.8-1,19.6-0.9,29.4
	c0.1,4.8,0.5,8.1,1.3,9.9c1.3,3.1,4,4.8,7.9,5.1c1.2,0.1,1.9,0.7,2.2,1.9c0.6,2.7-0.9,3.8-4.4,3.3c-5.5-0.8-9.3-3.3-11.4-7.4
	c-1.2-2.3-1.9-6.3-2.1-12.2c-0.3-8.2-0.3-16.4,0.2-24.7C787.7,258.7,787.5,258.6,787.2,258.8z"/>
<path class="st14" d="M882.1,254.8c-0.8,3.3-1.2,6.6-1.1,10c0.1,11.8,4.5,20.7,13.4,26.8c3.1,2.2,6.7,3.7,10.5,4.7
	c3.8,1,7.7,1.3,11.6,1.2c5.3-0.2,9.9-1,14-2.3c4.6-1.5,8.7-4.1,12.3-7.8c0.8-0.9,1.8-1,2.8-0.3c1.4,0.9,1.9,2,1.6,3.2
	c-0.2,0.7-0.8,1.6-1.8,2.6c-3.7,3.7-8.4,6.4-14.1,7.9c-7.6,2-14.6,2.8-21.2,2.4c-5.5-0.4-10.7-1.8-15.4-4.2c-4.5-2.3-8.5-5.6-12-9.9
	c-7.8-9.7-10.3-21.1-7.4-34.2c1.2-5.5,3.5-10.5,6.8-15.2c3.3-4.5,7.2-8.3,11.8-11.2c8.9-5.6,18.9-7.2,30.1-5
	c6.4,1.3,11.6,4.3,15.5,9c2.3,2.8,3.8,5.7,4.5,8.9c0.8,3.7,0.3,7.2-1.4,10.3c-2,3.6-5.5,6.5-10.5,8.6c-4.6,1.9-9.6,2.9-15.1,3
	c-12.7,0.3-24.2-2.6-34.4-8.7c-0.2-0.1-0.4-0.1-0.5,0.1C882.1,254.7,882.1,254.8,882.1,254.8z M903.4,256.1
	c7.6,1.3,14.4,1.4,20.3,0.4c4.9-0.9,8.6-2.4,11-4.5c3.1-2.9,4.2-6.2,3.1-9.9c-1.7-5.9-5.8-9.8-12.2-11.8c-6.1-1.8-12.2-2-18.5-0.6
	c-10.2,2.3-17.5,8-22,17c-0.4,0.7-0.1,1.6,0.5,2.1C891.1,252.5,897,255,903.4,256.1z"/>
<path class="st16" d="M418,244.3l-0.8,3.9L411,257c-0.1,0.1-0.3,0.2-0.5,0.2l1-4l6-8.8L418,244.3z"/>
<path class="st16" d="M211.2,247.7l0.2,0l-0.7,3.2l-6,8.3l-0.2-0.1l0.8-2.9L211.2,247.7z"/>
<path class="st14" d="M417.2,248.2c0.3,0,0.5,0.1,0.7,0.3l-0.4,45.1c0,0.2,0.2,0.4,0.4,0.4c11.8,0.3,23.5,0.4,35.3,0.2
	c1.7,0,3.2,0.1,4.4,0.2c1.3,0.2,2.1,0.7,2.6,1.6c0.5,0.9,0.4,1.9-0.3,2.8c-0.5,0.6-1.2,1-2.2,1.1c-1.5,0.2-3.5,0.3-6.2,0.3
	c-12.7,0.1-25.1,0-37.4-0.2c-2.2,0-3.2-1.1-3.3-3.3l-0.1-25.7l0.1-13c0.2-0.3,0.2-0.6,0.1-1L417.2,248.2z"/>
<path class="st14" d="M211.8,250.8l-0.4,42.8c0,0.2,0.2,0.4,0.4,0.4c11.8,0.3,23.5,0.4,35.3,0.2c1.7,0,3.1,0.1,4.2,0.2
	c1.3,0.2,2.3,0.8,2.8,1.8c0.6,1.2,0.3,2.2-0.8,3.1c-0.6,0.5-1.5,0.7-2.6,0.8c-14.4,0.4-28.7,0.4-43.1,0c-1.8,0-2.7-1-2.8-2.7
	c-0.4-12.7-0.4-25.3,0-38l6-8.3C211.1,251,211.4,251,211.8,250.8z"/>
<path class="st15" d="M410.5,253.2c0.3,0.1,0.6,0.1,1,0l-1,4l-30.4,38.6c-0.2,0.3-0.5,0.5-0.8,0.6c-1.3,0.4-1.9,0.1-1.6-0.9
	c0.1-0.3,0.3-0.7,0.6-1.1c9.5-12.2,19.2-24.4,28.9-36.5C408.4,256.5,409.5,254.9,410.5,253.2z"/>
<path class="st15" d="M205.2,256.3l-0.8,2.9c-0.9,1.6-2,3.2-3.2,4.6c-8.3,10.5-16.6,21-24.8,31.5c-0.4,0.6-0.8,1-1.2,1.1
	c-0.7,0.4-1.2,0.2-1.6-0.5c-0.1-0.2-0.1-0.6,0.1-0.9l30.4-38.7C204.6,256.3,204.9,256.2,205.2,256.3z"/>
<path class="st17" d="M410.8,258l-0.1,13C410.2,266.7,410.3,262.3,410.8,258z"/>
<path class="st14" d="M640.2,293c0.1-0.2,0.1-0.3,0-0.5l3.1-4.2l0.7,0c7.9,5.1,15.9,8,24,8.8c8,0.7,16.5,0.1,25.6-1.9
	c8.2-1.8,15.1-5.9,20.8-12c1-1.1,2.2-1.2,3.4-0.3c1.9,1.5,1.9,3.1,0,4.9c-5.6,5.4-12.2,9.3-19.6,11.8c-9.9,3.3-20,4.4-30.3,3.5
	C657.7,302,648.5,298.7,640.2,293z"/>
<path class="st16" d="M641.8,286.5l0.5,0l1.1,1.8l-3.1,4.2L638,292l0-0.5C639.8,290.3,641,288.6,641.8,286.5z"/>
<path class="st15" d="M638,292l2.2,0.5c0.1,0.2,0.1,0.3,0,0.5c-0.9,0.4-1.7,1.3-2.3,2.4c-0.6,1.2-1.4,1.4-2.3,0.7
	c-0.2-0.2-0.2-0.5-0.1-0.8L638,292z"/>
<path class="st17" d="M997.6,360.9c-0.7,0.1-0.8-0.1-0.2-0.6c1.4-1.1,3-2,4.8-2.8c1.4-0.6,2.1-0.3,2,0.9c0,0.3-0.2,0.6-0.5,0.8
	C1002,360.1,1000,360.7,997.6,360.9z"/>
<path class="st17" d="M416.4,379.2c-1.7-2.7-2-6-0.9-9.7c1.2-4.2,3.9-6.7,8.1-7.5c2.9-0.5,5.7-0.2,8.4,1.2c0.9,0.4,1.5,1,1.7,1.7
	c0.3,0.7,0.3,1.4,0,2.2c-0.1,0.3-0.2,0.3-0.4,0c-2.3-3.8-5.5-5.1-9.7-4c-3.8,1-5.9,3.9-6.1,8.4c-0.1,2.8,0.3,5.2,1.3,7.3
	c1.1,2.2,2.8,3.6,5.4,4.2c3.1,0.7,6.2,0.2,9.2-1.5c0.9-0.5,1.1-0.5,0.5,0.2c-0.1,0.1-0.2,0.2-0.3,0.2c-3.2,2.2-6.6,2.9-10,2.2
	C420.4,383.5,418,381.9,416.4,379.2z"/>
<path class="st18" d="M139.4,382.8c2.4,0.4,2.6,0.8,0.3,1c-2.3,0.3-4.6,0.2-6.8-0.3c-0.3-0.1-0.3-0.1,0-0.1c2.1,0,3.1-1.1,3-3
	c-0.1-1.5-0.1-2.3-0.1-2.3c0.1-4.3,0.1-8.9,0-13.7c0-0.6-0.5-1.1-1.1-1.1c-3-0.1-5,0.7-6,2.5c-0.3,0.5-0.4,0.5-0.4,0l0.2-2.9
	c0-0.5,0.5-0.8,0.9-0.8l15.7,0.2c0.3,0,0.6,0.2,0.7,0.5c0.4,1,0.4,2,0,3c-0.1,0.3-0.3,0.3-0.4,0c-1.6-2.4-3.9-3.2-6.8-2.5
	c-0.3,0.1-0.5,0.3-0.5,0.6l0.1,17.5C138.2,382.1,138.7,382.7,139.4,382.8z"/>
<path class="st17" d="M186.7,374c-3.6-0.4-7.3-0.4-10.9,0c-0.3,0-0.5,0.3-0.6,0.6c-0.4,2.4-0.4,4.8,0.1,7.2c0.1,0.5,0.3,0.8,0.5,1
	c0.3,0.3,0.7,0.4,1.1,0.5c0.3,0,0.5,0.1,0.5,0.2c0.1,0.2,0,0.3-0.5,0.4c-1.8,0.3-3.6,0.3-5.5,0.1c-1-0.1-1-0.3-0.1-0.7
	c0.7-0.3,1.1-0.9,1.1-1.7c0.2-3.4,0.2-8.7,0-16c-0.1-1.7-0.8-2.7-2.3-3c-0.4-0.1-0.7-0.3-0.7-0.5c0,0,0,0,0,0c0-0.2,0.4-0.3,1-0.3
	c2.2,0,4.5,0.1,6.7,0.4c0.4,0,0.4,0.2,0.1,0.4l-1.4,0.8c-0.3,0.2-0.5,0.5-0.5,0.8l-0.3,8.1c0,0.2,0.2,0.4,0.5,0.4c0,0,0,0,0,0h10.9
	c0.5,0,0.9-0.4,0.9-0.9v-8c0-0.5-0.4-0.9-0.9-1c-2.6-0.4-2.8-0.7-0.6-0.9c1.9-0.1,3.9-0.1,5.9,0.2c0.9,0.1,0.9,0.3,0,0.5
	c-1.2,0.3-1.8,1-1.8,2.2c-0.1,5.3-0.1,10.7-0.1,16c0,1.2,0.5,2,1.6,2.2c0.5,0.1,0.5,0.2,0,0.4c-1.9,0.5-3.6,0.5-5.1,0.1
	c-0.3-0.1-0.3-0.2,0-0.4c0.8-0.5,1.2-1.3,1.2-2.3c0-0.8-0.1-1.3-0.1-1.4c0.1-1.7,0-3.3-0.1-5C187.2,374.3,187,374,186.7,374z"/>
<path class="st17" d="M223,372.8v0.2c-0.9,3.5-0.6,6.9,1,10.2c2.1,0.4,2.2,0.7,0.5,0.8l-5.3,0c-0.3,0-0.6-0.1-0.8-0.3
	c-0.3-0.3,0-0.5,0.8-0.5c0.5,0,0.9-0.4,0.9-0.9c0.4-6.3,0.5-12.4,0.1-18.3c0-0.5-0.4-1-0.9-1.1c-0.8-0.2-1.4-0.4-1.7-0.6
	c-0.4-0.3-0.3-0.4,0.2-0.4l12.6-0.1c0.7,0,1.2,0.5,1.3,1.1l0.2,3c0,0.5-0.1,0.5-0.4,0c-0.3-0.4-0.5-0.8-0.8-1.2
	c-0.3-0.4-0.7-0.7-1.1-0.9c-1.9-0.8-3.9-1-6-0.8c-0.3,0-0.5,0.3-0.6,0.6C222.6,366.8,222.6,369.8,223,372.8z"/>
<path class="st17" d="M294,383.9c-1.4,0.2-2.9,0.2-4.3,0.2c-0.1,0-0.4,0-0.9,0.1c-0.4,0-0.6,0-0.7-0.3c-0.1-0.2,0.1-0.4,0.3-0.5
	c0,0,0.1,0,0.1,0c1.2-0.1,1.8-0.8,1.8-2c0-1,0-1.5,0-1.6c0.4-5.2,0.3-10.3-0.3-15.5c0-0.3-0.2-0.6-0.4-0.8c-0.5-0.4-1-0.6-1.6-0.6
	c-0.4,0-0.7-0.2-0.7-0.5c0-0.3,0.2-0.4,0.8-0.4c0.4,0,0.6,0,0.8,0c5.1-0.2,8.6-0.1,10.3,0.6c3.4,1.3,4.9,3.4,4.6,6.3
	c-0.2,2.4-1.3,4.1-3.2,5.2c-1.9,1.1-4.2,1.2-6.9,0.4c-0.4-0.1-0.7,0.1-0.9,0.4c0,0.1,0,0.1,0,0.2l0.2,6.7c0,0.3,0.2,0.6,0.4,0.8
	c0.4,0.4,1,0.6,1.5,0.7c0.2,0,0.4,0.2,0.4,0.4c0,0,0,0.1-0.1,0.1c-0.1,0.1-0.3,0.2-0.4,0.2C294.3,383.9,294.1,383.9,294,383.9z
	 M293.5,373.3c4.8,1.4,7.4,0.1,7.8-3.9c0.2-2.1-0.4-3.8-1.7-4.8c-1.3-1.1-3.2-1.6-5.6-1.6c-0.7,0-1.2,0.6-1.2,1.2l0,8.2
	C292.8,372.9,293.1,373.2,293.5,373.3z"/>
<path class="st17" d="M338.5,384.4c-6.1,0.3-11.2-4.5-11.6-10.7c0,0,0,0,0,0c-0.3-6.3,4.3-11.6,10.4-11.9
	c6.1-0.3,11.2,4.5,11.6,10.7C349.2,378.7,344.6,384.1,338.5,384.4z M338.1,383.6c4.6-0.1,8.2-4.8,8-10.6c0,0,0,0,0,0
	c-0.1-5.7-3.9-10.3-8.5-10.2c-4.6,0.1-8.2,4.8-8,10.6v0C329.8,379.1,333.6,383.7,338.1,383.6z"/>
<path class="st17" d="M378.4,373.8c0.2,2.4,0.2,4.8,0.1,7.2c-0.1,1.3,0.5,2,1.8,2.2c1,0.2,1,0.3,0,0.5c-1.8,0.3-3.6,0.3-5.4,0.2
	c-0.2,0-0.4-0.1-0.5-0.1c-0.5-0.3-0.3-0.5,0.5-0.6c0.5-0.1,0.9-0.5,0.9-1c0.3-4.6,0.4-9.2,0.3-13.8c0,0,0-0.6,0.1-1.8
	c0.1-1.9-0.7-3.2-2.3-4.1c-0.3-0.1-0.3-0.2,0-0.3c2.4-0.3,5.3-0.3,9,0.3c3.2,0.4,4.9,2,5.2,4.5c0.2,1.4-0.1,2.6-0.8,3.6
	c-0.8,1.1-1.9,1.9-3.3,2.3c-0.2,0.1-0.3,0.3-0.3,0.5c0,0,0,0.1,0.1,0.1c1.9,2.5,3.5,4.8,4.9,7.1c0.5,0.8,0.9,1.3,1.4,1.7
	c0.7,0.4,1.4,0.7,2.1,0.8c0.5,0.1,0.5,0.2,0,0.4c-3.1,0.9-5.1,0.2-6.2-2.2c-0.5-1.1-1.4-2.7-2.9-5c-1.1-1.6-2.4-2.6-4.1-2.9
	c-0.2,0-0.4,0.1-0.4,0.3C378.3,373.7,378.3,373.8,378.4,373.8z M383.4,363.7c-1.5-0.7-3-0.9-4.5-0.5c-0.3,0.1-0.5,0.3-0.5,0.6
	l0.1,7.8c0,0.3,0.2,0.5,0.5,0.6c4.4,0.6,6.6-1.2,6.4-5.4C385.4,365.4,384.7,364.4,383.4,363.7z"/>
<path class="st17" d="M493,373.8c-0.2,2.3-0.2,4.7,0.1,7c0.1,0.8,0.3,1.3,0.7,1.7c0.3,0.3,0.8,0.6,1.3,0.8c0.3,0.1,0.3,0.2,0,0.3
	c-2.2,0.6-4.4,0.6-6.5,0c-0.3-0.1-0.3-0.1,0-0.2c0.6-0.1,1-0.3,1.4-0.7c0.3-0.3,0.5-0.8,0.6-1.4c0.4-5.5,0.4-11.3-0.1-17.4
	c0-0.5-0.4-0.9-0.9-1.1l-1.4-0.5c-0.7-0.2-0.6-0.4,0.2-0.4c2.9-0.2,5.8-0.1,8.7,0.3c1.9,0.3,3.3,0.8,4.2,1.6
	c1.4,1.2,1.9,2.8,1.5,4.8c-0.2,1.1-0.7,2-1.5,2.7c-0.7,0.7-1.6,1.2-2.7,1.7c-0.2,0.1-0.3,0.4-0.3,0.6c0,0,0,0.1,0.1,0.1
	c2.3,2.8,4.1,5.5,5.5,8c0.5,0.9,1.5,1.5,3,1.5c0.2,0,0.3,0.1,0.4,0.1c0.2,0.2,0.1,0.3-0.4,0.5c-3,0.8-5.1-0.1-6.4-2.8
	c-0.4-0.9-1.3-2.5-2.7-4.8c-1-1.6-2.4-2.6-4.2-2.9C493.3,373.3,493.1,373.5,493,373.8C493,373.8,493,373.8,493,373.8z M498.9,364.4
	c-1.4-0.9-3.1-1.4-4.8-1.4c-0.6,0-1.1,0.5-1.1,1c0,0,0,0,0,0l0,7.7c0,0.3,0.2,0.5,0.5,0.6c4.4,0.7,6.6-1.1,6.7-5.3
	C500.3,365.8,499.8,365,498.9,364.4z"/>
<path class="st17" d="M541.1,384.4c-6.1,0.5-11.4-4.1-11.9-10.4c0,0,0,0,0,0c-0.5-6.2,3.9-11.7,10-12.2s11.4,4.1,11.9,10.4l0,0
	C551.6,378.4,547.1,383.9,541.1,384.4z M540.3,383.6c4.6-0.1,8.2-4.8,8.1-10.6s-3.9-10.3-8.4-10.3c-4.6,0.1-8.2,4.8-8.1,10.6
	S535.7,383.6,540.3,383.6z"/>
<path class="st17" d="M578.7,372.3c-2.2-1.3-3.3-2.9-3.2-5.1c0.1-1.9,1-3.3,2.7-4.3c2.2-1.2,4.8-1.2,7.8,0c0.8,0.3,1.3,1.1,1.2,1.9
	c-0.3,4.4-0.8,4.8-1.6,1c-0.1-0.4-0.2-0.8-0.4-1.1c-1.1-1.6-2.7-2.1-4.7-1.8c-1.4,0.3-2.3,1-2.7,2.2c-0.4,1-0.3,2,0.3,3
	c0.7,1.3,1.8,2.2,3.3,2.8c0.6,0.2,1.7,1,3.5,2.3c1.4,1,2.4,2,2.8,3c0.6,1.4,0.6,2.8,0,4.2c-0.5,1.2-1.4,2.1-2.7,2.8
	c-3,1.5-6,1.3-9.1-0.4c-0.3-0.2-0.5-0.4-0.6-0.7c-0.3-1.2-0.3-2.5,0.1-3.7c0.4-1.6,0.7-1.5,0.8,0.1c0.1,2.8,1.6,4.4,4.3,4.7
	c1.7,0.2,3.1-0.1,4.1-1c1-0.8,1.4-1.9,1.2-3.4c-0.2-1-0.7-1.9-1.7-2.8C582.5,374.7,580.7,373.4,578.7,372.3z"/>
<path class="st18" d="M618.5,372.8c-0.1,0.3-0.1,0.5,0,0.8c-0.3,3.1-0.2,6.3,0.5,9.4c-0.2,0.8-1.1,1.2-2.6,1.1
	c-0.9,0.2-1.7,0.1-2.5-0.2c-0.3-0.1-0.3-0.2,0-0.3c0.6-0.1,1-0.4,1.3-0.8c0.3-0.3,0.4-0.8,0.5-1.4c0.4-5.7,0.3-11.3,0-16.8
	c0-0.4-0.3-0.8-0.8-1.1l-1.5-0.8c-0.5-0.3-0.3-0.4,0.4-0.5c4.3-0.3,8.7-0.3,13,0.1c0.3,0,0.6,0.3,0.6,0.5l0,3.2
	c0,0.4-0.1,0.4-0.4,0.1c-1.3-1.7-3-2.7-5.1-2.8c-0.3,0-1-0.1-2.1-0.3c-1.1-0.2-1.7,0.3-1.6,1.6c0.1,0.8,0.1,1.3,0.1,1.3
	C618.5,368.2,618.5,370.5,618.5,372.8z"/>
<path class="st18" d="M688.5,372.8c-0.1,0.3-0.1,0.5,0,0.8c-0.6,3.4-0.2,6.6,1.1,9.7c3,0.5,2.6,0.7-1.3,0.7c-1.2,0.2-2.6,0.2-4,0
	c-0.9-0.1-0.9-0.3,0-0.5c0.9-0.3,1.3-0.7,1.4-1.4c0.6-7.5,0.7-13.4,0.2-17.7c-0.1-0.8-0.7-1.3-1.9-1.5c-0.3,0-0.5-0.1-0.6-0.3
	c-0.2-0.3,0-0.4,0.5-0.4c4.3-0.1,8.6-0.1,12.9,0c0.4,0,0.7,0.1,0.8,0.4c0.2,0.3,0.3,0.7,0.2,1.1c-0.1,0.4-0.1,0.7-0.1,0.9
	c0.4,2.4,0,2.6-1.3,0.6c-0.2-0.3-0.4-0.5-0.7-0.7c-2.1-1.1-4.2-1.5-6.6-1.2c-0.3,0-0.5,0.3-0.5,0.6L688.5,372.8z"/>
<path class="st17" d="M727.8,366.5l-1.2,0.2c0.3-2.4-0.6-3.7-2.7-4c-0.3,0-0.5-0.2-0.5-0.4c0,0,0-0.1,0-0.1c0.1-0.3,0.4-0.4,0.8-0.3
	c0.3,0,0.6,0.1,0.8,0c1.4-0.2,2.4,0.1,2.9,0.8c4.5,5.3,8.8,10.7,12.9,16.1c1.1,1.4,1.6,1.2,1.5-0.5l-0.3-13.5c0-0.3-0.1-0.7-0.3-0.9
	c-0.5-0.6-1.1-1-1.9-1.3c-0.3-0.1-0.3-0.2,0-0.2c1.9-0.4,3.8-0.4,5.8-0.1c1.2,0.2,1.2,0.3,0,0.5c-0.7,0.1-1.2,0.3-1.6,0.8
	c-0.3,0.3-0.4,0.8-0.5,1.5c-0.4,8.4-0.5,13.8-0.2,16.2c0.4,3.3-0.3,3.8-2.2,1.5C736.8,377.2,732.4,371.8,727.8,366.5z"/>
<path class="st17" d="M787.7,364.6c-0.6-0.8-1.7-1.3-3.2-1.5c-1.2-0.1-2.4-0.2-3.4-0.1c-2.8,0.2-4.8,1.6-6,4.3
	c-1.5,3.5-1.7,6.8-0.6,10.2c0.7,2,1.7,3.4,3,4.4c1.5,1.1,3.4,1.6,5.5,1.4c2.4-0.2,4.8-0.9,7.3-2c0.3-0.1,0.4-0.1,0.1,0.1
	c-2.4,2.3-5.4,3.2-9.1,2.9c-5.2-0.5-8.4-3.1-9.6-8c-1.3-5.4,0-9.5,3.8-12.3c1.5-1.1,3.2-1.8,5.2-2c1.9-0.2,3.8-0.1,5.7,0.5
	c1.6,0.4,2.6,0.8,3,1.2c0.8,0.7,1,1.9,0.7,3.6c-0.1,0.3-0.2,0.4-0.3,0.1C789,366.4,788.4,365.5,787.7,364.6z"/>
<path class="st17" d="M832.2,372.8l-0.2,1l-11.1,0c-0.5,0-0.9,0.4-0.9,0.9v0c0,2.2,0,4.4,0.1,6.4c0,1.2,0.8,1.9,2.2,2.3
	c0.4,0.1,0.4,0.2,0,0.3c-2.4,0.5-4.5,0.6-6.3,0.2c-0.5-0.1-0.5-0.2,0-0.4c1.1-0.4,1.7-1.1,1.7-2.1c0.4-6.6,0.3-12.2-0.2-16.8
	c-0.1-1-0.7-1.6-1.9-1.7c-0.3,0-0.5-0.1-0.6-0.3c-0.2-0.3,0-0.4,0.5-0.4c2.2,0,4.4-0.1,6.5-0.1c0.5,0,0.7,0.1,0.8,0.3
	c0.1,0.2-0.4,0.4-1.4,0.6c-0.5,0.1-0.9,0.5-1,1c-0.5,3.1-0.6,5.9-0.3,8.2c0,0.3,0.3,0.5,0.5,0.5L832.2,372.8z"/>
<path class="st17" d="M832,373.8l0.2-1l0-8.3c0-0.3-0.2-0.6-0.5-0.8c-2.4-1.2-2.7-1.8-1-1.9c2.1-0.1,4.2,0,6.3,0.5
	c0.3,0.1,0.3,0.1,0,0.2c-0.7,0.2-1.3,0.6-1.7,1.1c-0.3,0.4-0.5,1-0.5,1.8c-0.1,5.3-0.1,10.5,0,15.6c0,0.6,0.3,1.1,0.8,1.4
	c1.6,1,1.7,1.4,0.1,1.3c-0.3,0-0.5,0-0.8,0.1c-1.4,0.3-2.8,0.3-4.1-0.2c-0.3-0.1-0.3-0.2,0-0.4c1.2-0.6,1.8-1.5,1.7-2.9
	c-0.1-1.5-0.1-2.3-0.1-2.5C832.4,376.6,832.3,375.2,832,373.8z"/>
<path class="st17" d="M862.5,382.5c2.7-5.8,4.8-11.9,6.3-18.2c0.1-0.3-0.1-0.6-0.3-0.7c-2.4-1.4-1.5-1.9,2.6-1.5
	c0.6,0.1,1.1,0.5,1.3,1.1c2.2,6.2,4.4,12.3,6.7,18.1c0.4,0.9,1,1.5,1.8,1.8c1.2,0.3,1.1,0.6,0,0.8c-1.4,0.2-2.8,0.4-4.2,0.4
	c-2.6,0.1-2.8-0.3-0.6-1.2c0.4-0.1,0.6-0.5,0.5-0.9l-1.5-4.4c-0.1-0.3-0.4-0.5-0.7-0.5l-7.9,0c-0.4,0-0.7,0.2-0.7,0.5l-1.2,4.1
	c-0.1,0.3,0,0.6,0.3,0.9c0.6,0.7,0.6,1.1,0,1c-1.3-0.1-2.6-0.2-3.9-0.2c-1-0.1-0.8-0.2,0.6-0.4C862,383.1,862.4,382.8,862.5,382.5z
	 M870.4,365l-3.7,10c-0.1,0.4,0.1,0.8,0.4,0.9c0.1,0,0.2,0,0.3,0h6.4c0.4,0,0.6-0.3,0.6-0.7c0-0.1,0-0.2,0-0.2l-3.7-10.1
	C870.6,364.7,870.5,364.7,870.4,365z"/>
<path class="st17" d="M908.5,366.5c-0.7-0.1-1.1,0-1.2,0.2c0.4-2.2-0.3-3.5-2.2-4c-0.5-0.1-0.6-0.3-0.3-0.5c0.2-0.2,0.6-0.3,1.3-0.2
	c1.7,0.1,3,0.7,3.7,1.8c0.5,0.8,0.8,1.2,0.8,1.2c4,4.8,7.9,9.6,11.7,14.6c0.4,0.6,0.6,0.5,0.7-0.2l0.1-14.6c0-0.7-0.5-1.4-1.2-1.6
	c-2.9-0.9-1.4-1.2,4.6-1.1c0.4,0,0.7,0.1,1.1,0.2c0.2,0.1,0.1,0.2,0,0.3c-0.1,0.1-0.2,0.1-0.4,0.1c-1.8,0-2.7,0.8-2.7,2.3
	c-0.2,6.2-0.2,12.1-0.2,17.9c0,1.6-0.5,1.7-1.5,0.5c-4.4-5.3-8.7-10.7-12.9-16C909.2,366.9,908.8,366.6,908.5,366.5z"/>
<path class="st17" d="M958.4,364.3c0-0.7-0.5-1.3-1.2-1.3c0,0,0,0,0,0c-2.5,0-4.6,1.1-6.3,3.2c-0.4,0.5-0.5,0.4-0.5-0.2l0.2-3.4
	c0-0.3,0.2-0.5,0.5-0.5l16.6-0.1c0.4,0,0.7,0.3,0.7,0.6c0.5,3.9,0.2,4.7-0.9,2.4c-0.2-0.3-0.4-0.6-0.7-0.7c-1.4-0.8-3.1-1.2-5.1-1.4
	c-0.5,0-0.9,0.3-0.9,0.8c0,0,0,0,0,0.1V382c0,0.4,0.3,0.8,0.8,0.9c2.3,0.5,2.8,0.7,1.5,0.9c-2.5,0.2-4.9,0.2-7.4,0
	c-0.3,0-0.5-0.1-0.6-0.3c-0.1-0.2,0.1-0.3,0.7-0.2c1.7,0.2,2.5-0.3,2.5-1.5L958.4,364.3z"/>
<path class="st18" d="M997.8,373v0.2l-0.2,8c0,0.8,0.6,1.5,1.4,1.7c3.3,0.8,6.1-0.1,8.4-2.8c0.2-0.3,0.4-0.2,0.5,0.1
	c0.6,2.6-0.2,3.9-2.6,3.8c-1.3-0.1-1.9-0.1-2-0.1c-3.2,0.1-6.5,0-9.7-0.2c-0.7,0-0.8-0.2-0.5-0.5c0.2-0.2,0.6-0.4,1.2-0.7
	c0.3-0.1,0.4-0.4,0.5-0.7c0.4-5.9,0.4-11.8,0-17.7c-0.1-0.8-0.6-1.3-1.7-1.5c-0.2,0-0.4-0.2-0.4-0.4c0,0,0-0.1,0-0.1
	c0.2-0.4,0.6-0.4,1.1-0.2c0.3,0.1,0.6,0.2,0.9,0.2l11,0.1c0.3,0,0.6,0.2,0.6,0.5c0.3,1,0.3,2,0,3c-0.1,0.3-0.2,0.3-0.4,0
	c-0.7-1.2-1.8-2-3.1-2.3c-0.8-0.2-1.7-0.3-2.7-0.4c-0.8-0.1-1.5,0-2.3,0.2c-0.3,0.1-0.5,0.4-0.5,0.7L997.8,373z"/>
<path class="st16" d="M727.8,366.5c0,4.6,0.1,9.2,0.2,13.8c0,1.1,0.2,1.8,0.6,2.3c0.5,0.6,1.1,0.9,1.9,0.9c0.3,0,0.3,0.1,0,0.1
	c-2.1,0.4-4.1,0.4-6.2,0.1c-0.3-0.1-0.3-0.1,0-0.2c0.5-0.1,1-0.4,1.4-0.7c0.3-0.3,0.5-0.7,0.6-1.3c0.5-4.9,0.6-9.8,0.3-14.7
	L727.8,366.5z"/>
<path class="st16" d="M908.5,366.5c0.3,5,0.4,10,0.2,15c0,0.9,0.5,1.5,1.7,1.8c0.3,0.1,0.3,0.2,0,0.3c-1.9,0.5-3.8,0.6-5.7,0.1
	c-0.3-0.1-0.3-0.1,0-0.1c0.7-0.1,1.3-0.3,1.7-0.8c0.3-0.3,0.5-0.9,0.6-1.6c0.2-4.8,0.3-9.6,0.2-14.4
	C907.5,366.5,907.9,366.4,908.5,366.5z"/>
<path class="st15" d="M223,373v-0.2l4.4-0.5c0.2,0,0.3-0.1,0.4-0.3c1.4-2.3,2-2.5,1.8-0.6c-0.1,0.9-0.1,1.7,0,2.6
	c0.2,2.3-0.4,2.3-1.9,0c-0.2-0.4-0.6-0.5-1.1-0.4C225,373.9,223.7,373.8,223,373z"/>
<path class="st18" d="M618.5,373.5c-0.1-0.2-0.1-0.5,0-0.8l4.7-0.5c0.6-0.1,1-0.6,1-1.3c0-0.8,0.1-1.2,0.4-1.4
	c0.2-0.1,0.3,0.1,0.4,0.3c0,0.1,0,0.1,0,0.2v5.9c0,0.5-0.1,0.6-0.4,0.4c-0.3-0.2-0.5-0.7-0.6-1.6c-0.1-0.6-0.6-1-1.3-1L618.5,373.5z
	"/>
<path class="st18" d="M688.5,373.5c-0.1-0.2-0.1-0.5,0-0.8l4.3-0.3c0.6,0,1.1-0.5,1.2-1.1c0.1-0.9,0.3-1.5,0.6-1.7
	c0.3-0.2,0.4-0.1,0.4,0.4l0.1,5.7c0,0.3-0.1,0.6-0.3,0.6c0,0-0.1,0-0.1,0c-0.3-0.1-0.6-0.6-0.7-1.6c-0.1-0.6-0.6-1-1.2-1
	L688.5,373.5z"/>
<path class="st18" d="M997.8,373.2V373l4.4-0.9c0.6-0.1,1.1-0.7,1.1-1.4c0-0.6,0.1-0.9,0.5-1.1c0.2-0.1,0.4,0.1,0.4,0.3
	c0,0.1,0,0.1,0,0.2c-0.2,1.9-0.2,3.8-0.2,5.7c0,0.8-0.1,1-0.5,0.5c-0.1-0.2-0.2-0.4-0.2-0.7c-0.1-1.3-0.7-1.9-2-1.9
	C999.7,373.8,998.6,373.6,997.8,373.2z"/>
<path class="st17" d="M224.5,384c1.7-0.1,1.6-0.4-0.5-0.8c2.5,0,4.7-0.3,6.4-0.9c0.7-0.3,1.3-0.7,1.7-1.4c0.9-1.5,1.3-0.8,1,2
	c-0.1,0.6-0.6,1.1-1.2,1.1L224.5,384z"/>
<path class="st18" d="M616.5,384c1.5,0.1,2.3-0.3,2.6-1.1c2.7,0.5,5.2,0.2,7.5-0.8c0.8-0.4,1.3-0.9,1.4-1.5c0.2-1.1,0.5-1.1,0.7,0
	c0.5,2.5-0.2,3.7-2.1,3.5c-1-0.1-1.5-0.1-1.5-0.1C622.2,384,619.3,384,616.5,384z"/>
<path class="st18" d="M688.2,383.9c3.9,0,4.4-0.2,1.3-0.7c2.5,0,4.7-0.3,6.4-0.9c1.2-0.4,1.9-1.2,2-2.4c0.1-0.5,0.2-0.5,0.3,0
	c0.5,1.8,0.5,3,0,3.7c-0.2,0.2-0.5,0.4-0.8,0.4L688.2,383.9z"/>
</svg>
